<svg width="183" height="188" viewBox="0 0 183 188" fill="none" xmlns="http://www.w3.org/2000/svg">
<path fill-rule="evenodd" clip-rule="evenodd" d="M90 172C135.287 172 172 135.287 172 90C172 44.7127 135.287 8 90 8C44.7127 8 8 44.7127 8 90C8 135.287 44.7127 172 90 172ZM90 148C122.033 148 148 122.033 148 90C148 57.9675 122.033 32 90 32C57.9675 32 32 57.9675 32 90C32 122.033 57.9675 148 90 148Z" fill="#D9D9D9"/>
<path fill-rule="evenodd" clip-rule="evenodd" d="M90 172C135.287 172 172 135.287 172 90C172 44.7127 135.287 8 90 8C44.7127 8 8 44.7127 8 90C8 135.287 44.7127 172 90 172ZM90 148C122.033 148 148 122.033 148 90C148 57.9675 122.033 32 90 32C57.9675 32 32 57.9675 32 90C32 122.033 57.9675 148 90 148Z" fill="#D9D9D9"/>
<path fill-rule="evenodd" clip-rule="evenodd" d="M90 172C135.287 172 172 135.287 172 90C172 44.7127 135.287 8 90 8C44.7127 8 8 44.7127 8 90C8 135.287 44.7127 172 90 172ZM90 148C122.033 148 148 122.033 148 90C148 57.9675 122.033 32 90 32C57.9675 32 32 57.9675 32 90C32 122.033 57.9675 148 90 148Z" fill="#D9D9D9"/>
<path fill-rule="evenodd" clip-rule="evenodd" d="M90 172C135.287 172 172 135.287 172 90C172 44.7127 135.287 8 90 8C44.7127 8 8 44.7127 8 90C8 135.287 44.7127 172 90 172ZM90 148C122.033 148 148 122.033 148 90C148 57.9675 122.033 32 90 32C57.9675 32 32 57.9675 32 90C32 122.033 57.9675 148 90 148Z" fill="#D9D9D9"/>
<path fill-rule="evenodd" clip-rule="evenodd" d="M90 172C135.287 172 172 135.287 172 90C172 44.7127 135.287 8 90 8C44.7127 8 8 44.7127 8 90C8 135.287 44.7127 172 90 172ZM90 148C122.033 148 148 122.033 148 90C148 57.9675 122.033 32 90 32C57.9675 32 32 57.9675 32 90C32 122.033 57.9675 148 90 148Z" fill="#D9D9D9"/>
<mask id="mask0_43_2609" style="mask-type:alpha" maskUnits="userSpaceOnUse" x="0" y="0" width="90" height="171">
<path d="M90 0V90L58.5 171L0 124L14.5 31.5L90 0Z" fill="white"/>
</mask>
<g mask="url(#mask0_43_2609)">
<path fill-rule="evenodd" clip-rule="evenodd" d="M90 172C135.287 172 172 135.287 172 90C172 44.7127 135.287 8 90 8C44.7127 8 8 44.7127 8 90C8 135.287 44.7127 172 90 172ZM90 148C122.033 148 148 122.033 148 90C148 57.9675 122.033 32 90 32C57.9675 32 32 57.9675 32 90C32 122.033 57.9675 148 90 148Z" fill="url(#paint0_radial_43_2609)"/>
</g>
<mask id="mask1_43_2609" style="mask-type:alpha" maskUnits="userSpaceOnUse" x="45" y="90" width="129" height="98">
<path d="M45.5 187.5L90 90L173.5 92.5L163.5 177.5L45.5 187.5Z" fill="url(#paint1_radial_43_2609)"/>
</mask>
<g mask="url(#mask1_43_2609)">
<path fill-rule="evenodd" clip-rule="evenodd" d="M90 172C135.287 172 172 135.287 172 90C172 44.7127 135.287 8 90 8C44.7127 8 8 44.7127 8 90C8 135.287 44.7127 172 90 172ZM90 148C122.033 148 148 122.033 148 90C148 57.9675 122.033 32 90 32C57.9675 32 32 57.9675 32 90C32 122.033 57.9675 148 90 148Z" fill="url(#paint2_radial_43_2609)"/>
</g>
<mask id="mask2_43_2609" style="mask-type:alpha" maskUnits="userSpaceOnUse" x="90" y="34" width="93" height="74">
<path d="M182.5 108L90 90L150.5 34.5L171.5 48L182.5 108Z" fill="white"/>
</mask>
<g mask="url(#mask2_43_2609)">
<path fill-rule="evenodd" clip-rule="evenodd" d="M90 172C135.287 172 172 135.287 172 90C172 44.7127 135.287 8 90 8C44.7127 8 8 44.7127 8 90C8 135.287 44.7127 172 90 172ZM90 148C122.033 148 148 122.033 148 90C148 57.9675 122.033 32 90 32C57.9675 32 32 57.9675 32 90C32 122.033 57.9675 148 90 148Z" fill="url(#paint3_radial_43_2609)"/>
</g>
<mask id="mask3_43_2609" style="mask-type:alpha" maskUnits="userSpaceOnUse" x="90" y="2" width="61" height="88">
<path d="M90 8V90L150.5 34.5L134 2L90 8Z" fill="white"/>
</mask>
<g mask="url(#mask3_43_2609)">
<path fill-rule="evenodd" clip-rule="evenodd" d="M90 172C135.287 172 172 135.287 172 90C172 44.7127 135.287 8 90 8C44.7127 8 8 44.7127 8 90C8 135.287 44.7127 172 90 172ZM90 148C122.033 148 148 122.033 148 90C148 57.9675 122.033 32 90 32C57.9675 32 32 57.9675 32 90C32 122.033 57.9675 148 90 148Z" fill="url(#paint4_radial_43_2609)"/>
</g>
<defs>
<radialGradient id="paint0_radial_43_2609" cx="0" cy="0" r="1" gradientUnits="userSpaceOnUse" gradientTransform="translate(90 90) rotate(90) scale(82)">
<stop offset="0.640625" stop-color="#5C8588"/>
<stop offset="1" stop-color="#9C91E1"/>
</radialGradient>
<radialGradient id="paint1_radial_43_2609" cx="0" cy="0" r="1" gradientUnits="userSpaceOnUse" gradientTransform="translate(109.5 138.75) rotate(90) scale(48.75 64)">
<stop offset="0.640625" stop-color="#948FAC"/>
<stop offset="1" stop-color="#BCB4E8"/>
</radialGradient>
<radialGradient id="paint2_radial_43_2609" cx="0" cy="0" r="1" gradientUnits="userSpaceOnUse" gradientTransform="translate(90 90) rotate(90) scale(82)">
<stop offset="0.640625" stop-color="#8D6689"/>
<stop offset="1" stop-color="#9B93CF"/>
</radialGradient>
<radialGradient id="paint3_radial_43_2609" cx="0" cy="0" r="1" gradientUnits="userSpaceOnUse" gradientTransform="translate(90 90) rotate(90) scale(82)">
<stop offset="0.640625" stop-color="#76B3C0"/>
<stop offset="1" stop-color="#BCB4E8"/>
</radialGradient>
<radialGradient id="paint4_radial_43_2609" cx="0" cy="0" r="1" gradientUnits="userSpaceOnUse" gradientTransform="translate(90 90) rotate(90) scale(82)">
<stop offset="0.59375" stop-color="#C6ABBE"/>
<stop offset="1" stop-color="#E4DEFF"/>
</radialGradient>
</defs>
</svg>
