<svg width="389" height="210" viewBox="0 0 389 210" fill="none" xmlns="http://www.w3.org/2000/svg">
<path d="M310.938 5.625V17H309.43V5.625H310.938ZM313.68 5.625H317.445C318.299 5.625 319.021 5.75521 319.609 6.01562C320.203 6.27604 320.654 6.66146 320.961 7.17188C321.273 7.67708 321.43 8.29948 321.43 9.03906C321.43 9.5599 321.323 10.0365 321.109 10.4688C320.901 10.8958 320.599 11.2604 320.203 11.5625C319.812 11.8594 319.344 12.0807 318.797 12.2266L318.375 12.3906H314.836L314.82 11.1641H317.492C318.034 11.1641 318.484 11.0703 318.844 10.8828C319.203 10.6901 319.474 10.4323 319.656 10.1094C319.839 9.78646 319.93 9.42969 319.93 9.03906C319.93 8.60156 319.844 8.21875 319.672 7.89062C319.5 7.5625 319.229 7.3099 318.859 7.13281C318.495 6.95052 318.023 6.85938 317.445 6.85938H315.188V17H313.68V5.625ZM320.328 17L317.562 11.8438L319.133 11.8359L321.938 16.9062V17H320.328ZM327.508 5.625H331.273C332.128 5.625 332.849 5.75521 333.438 6.01562C334.031 6.27604 334.482 6.66146 334.789 7.17188C335.102 7.67708 335.258 8.29948 335.258 9.03906C335.258 9.5599 335.151 10.0365 334.938 10.4688C334.729 10.8958 334.427 11.2604 334.031 11.5625C333.641 11.8594 333.172 12.0807 332.625 12.2266L332.203 12.3906H328.664L328.648 11.1641H331.32C331.862 11.1641 332.312 11.0703 332.672 10.8828C333.031 10.6901 333.302 10.4323 333.484 10.1094C333.667 9.78646 333.758 9.42969 333.758 9.03906C333.758 8.60156 333.672 8.21875 333.5 7.89062C333.328 7.5625 333.057 7.3099 332.688 7.13281C332.323 6.95052 331.852 6.85938 331.273 6.85938H329.016V17H327.508V5.625ZM334.156 17L331.391 11.8438L332.961 11.8359L335.766 16.9062V17H334.156ZM340.656 17.1562C340.068 17.1562 339.534 17.0573 339.055 16.8594C338.581 16.6562 338.172 16.3724 337.828 16.0078C337.49 15.6432 337.229 15.2109 337.047 14.7109C336.865 14.2109 336.773 13.6641 336.773 13.0703V12.7422C336.773 12.0547 336.875 11.4427 337.078 10.9062C337.281 10.3646 337.557 9.90625 337.906 9.53125C338.255 9.15625 338.651 8.8724 339.094 8.67969C339.536 8.48698 339.995 8.39062 340.469 8.39062C341.073 8.39062 341.594 8.49479 342.031 8.70312C342.474 8.91146 342.836 9.20312 343.117 9.57812C343.398 9.94792 343.607 10.3854 343.742 10.8906C343.878 11.3906 343.945 11.9375 343.945 12.5312V13.1797H337.633V12H342.5V11.8906C342.479 11.5156 342.401 11.151 342.266 10.7969C342.135 10.4427 341.927 10.151 341.641 9.92188C341.354 9.69271 340.964 9.57812 340.469 9.57812C340.141 9.57812 339.839 9.64844 339.562 9.78906C339.286 9.92448 339.049 10.1276 338.852 10.3984C338.654 10.6693 338.5 11 338.391 11.3906C338.281 11.7812 338.227 12.2318 338.227 12.7422V13.0703C338.227 13.4714 338.281 13.849 338.391 14.2031C338.505 14.5521 338.669 14.8594 338.883 15.125C339.102 15.3906 339.365 15.599 339.672 15.75C339.984 15.901 340.339 15.9766 340.734 15.9766C341.245 15.9766 341.677 15.8724 342.031 15.6641C342.385 15.4557 342.695 15.1771 342.961 14.8281L343.836 15.5234C343.654 15.7995 343.422 16.0625 343.141 16.3125C342.859 16.5625 342.513 16.7656 342.102 16.9219C341.695 17.0781 341.214 17.1562 340.656 17.1562ZM350.555 14.7578C350.555 14.5495 350.508 14.3568 350.414 14.1797C350.326 13.9974 350.141 13.8333 349.859 13.6875C349.583 13.5365 349.167 13.4062 348.609 13.2969C348.141 13.1979 347.716 13.0807 347.336 12.9453C346.961 12.8099 346.641 12.6458 346.375 12.4531C346.115 12.2604 345.914 12.0339 345.773 11.7734C345.633 11.513 345.562 11.2083 345.562 10.8594C345.562 10.526 345.635 10.2109 345.781 9.91406C345.932 9.61719 346.143 9.35417 346.414 9.125C346.69 8.89583 347.021 8.71615 347.406 8.58594C347.792 8.45573 348.221 8.39062 348.695 8.39062C349.372 8.39062 349.951 8.51042 350.43 8.75C350.909 8.98958 351.276 9.3099 351.531 9.71094C351.786 10.1068 351.914 10.5469 351.914 11.0312H350.469C350.469 10.7969 350.398 10.5703 350.258 10.3516C350.122 10.1276 349.922 9.94271 349.656 9.79688C349.396 9.65104 349.076 9.57812 348.695 9.57812C348.294 9.57812 347.969 9.64062 347.719 9.76562C347.474 9.88542 347.294 10.0391 347.18 10.2266C347.07 10.4141 347.016 10.612 347.016 10.8203C347.016 10.9766 347.042 11.1172 347.094 11.2422C347.151 11.362 347.25 11.474 347.391 11.5781C347.531 11.6771 347.729 11.7708 347.984 11.8594C348.24 11.9479 348.565 12.0365 348.961 12.125C349.654 12.2812 350.224 12.4688 350.672 12.6875C351.12 12.9062 351.453 13.1745 351.672 13.4922C351.891 13.8099 352 14.1953 352 14.6484C352 15.0182 351.922 15.3568 351.766 15.6641C351.615 15.9714 351.393 16.237 351.102 16.4609C350.815 16.6797 350.471 16.8516 350.07 16.9766C349.674 17.0964 349.229 17.1562 348.734 17.1562C347.99 17.1562 347.359 17.0234 346.844 16.7578C346.328 16.4922 345.938 16.1484 345.672 15.7266C345.406 15.3047 345.273 14.8594 345.273 14.3906H346.727C346.747 14.7865 346.862 15.1016 347.07 15.3359C347.279 15.5651 347.534 15.7292 347.836 15.8281C348.138 15.9219 348.438 15.9688 348.734 15.9688C349.13 15.9688 349.461 15.9167 349.727 15.8125C349.997 15.7083 350.203 15.5651 350.344 15.3828C350.484 15.2005 350.555 14.9922 350.555 14.7578ZM357.406 17.1562C356.818 17.1562 356.284 17.0573 355.805 16.8594C355.331 16.6562 354.922 16.3724 354.578 16.0078C354.24 15.6432 353.979 15.2109 353.797 14.7109C353.615 14.2109 353.523 13.6641 353.523 13.0703V12.7422C353.523 12.0547 353.625 11.4427 353.828 10.9062C354.031 10.3646 354.307 9.90625 354.656 9.53125C355.005 9.15625 355.401 8.8724 355.844 8.67969C356.286 8.48698 356.745 8.39062 357.219 8.39062C357.823 8.39062 358.344 8.49479 358.781 8.70312C359.224 8.91146 359.586 9.20312 359.867 9.57812C360.148 9.94792 360.357 10.3854 360.492 10.8906C360.628 11.3906 360.695 11.9375 360.695 12.5312V13.1797H354.383V12H359.25V11.8906C359.229 11.5156 359.151 11.151 359.016 10.7969C358.885 10.4427 358.677 10.151 358.391 9.92188C358.104 9.69271 357.714 9.57812 357.219 9.57812C356.891 9.57812 356.589 9.64844 356.312 9.78906C356.036 9.92448 355.799 10.1276 355.602 10.3984C355.404 10.6693 355.25 11 355.141 11.3906C355.031 11.7812 354.977 12.2318 354.977 12.7422V13.0703C354.977 13.4714 355.031 13.849 355.141 14.2031C355.255 14.5521 355.419 14.8594 355.633 15.125C355.852 15.3906 356.115 15.599 356.422 15.75C356.734 15.901 357.089 15.9766 357.484 15.9766C357.995 15.9766 358.427 15.8724 358.781 15.6641C359.135 15.4557 359.445 15.1771 359.711 14.8281L360.586 15.5234C360.404 15.7995 360.172 16.0625 359.891 16.3125C359.609 16.5625 359.263 16.7656 358.852 16.9219C358.445 17.0781 357.964 17.1562 357.406 17.1562ZM363.828 9.875V17H362.383V8.54688H363.789L363.828 9.875ZM366.469 8.5L366.461 9.84375C366.341 9.81771 366.227 9.80208 366.117 9.79688C366.013 9.78646 365.893 9.78125 365.758 9.78125C365.424 9.78125 365.13 9.83333 364.875 9.9375C364.62 10.0417 364.404 10.1875 364.227 10.375C364.049 10.5625 363.909 10.7865 363.805 11.0469C363.706 11.3021 363.641 11.5833 363.609 11.8906L363.203 12.125C363.203 11.6146 363.253 11.1354 363.352 10.6875C363.456 10.2396 363.615 9.84375 363.828 9.5C364.042 9.15104 364.312 8.88021 364.641 8.6875C364.974 8.48958 365.37 8.39062 365.828 8.39062C365.932 8.39062 366.052 8.40365 366.188 8.42969C366.323 8.45052 366.417 8.47396 366.469 8.5ZM370.516 15.6953L372.828 8.54688H374.305L371.266 17H370.297L370.516 15.6953ZM368.586 8.54688L370.969 15.7344L371.133 17H370.164L367.102 8.54688H368.586ZM379.094 17.1562C378.505 17.1562 377.971 17.0573 377.492 16.8594C377.018 16.6562 376.609 16.3724 376.266 16.0078C375.927 15.6432 375.667 15.2109 375.484 14.7109C375.302 14.2109 375.211 13.6641 375.211 13.0703V12.7422C375.211 12.0547 375.312 11.4427 375.516 10.9062C375.719 10.3646 375.995 9.90625 376.344 9.53125C376.693 9.15625 377.089 8.8724 377.531 8.67969C377.974 8.48698 378.432 8.39062 378.906 8.39062C379.51 8.39062 380.031 8.49479 380.469 8.70312C380.911 8.91146 381.273 9.20312 381.555 9.57812C381.836 9.94792 382.044 10.3854 382.18 10.8906C382.315 11.3906 382.383 11.9375 382.383 12.5312V13.1797H376.07V12H380.938V11.8906C380.917 11.5156 380.839 11.151 380.703 10.7969C380.573 10.4427 380.365 10.151 380.078 9.92188C379.792 9.69271 379.401 9.57812 378.906 9.57812C378.578 9.57812 378.276 9.64844 378 9.78906C377.724 9.92448 377.487 10.1276 377.289 10.3984C377.091 10.6693 376.938 11 376.828 11.3906C376.719 11.7812 376.664 12.2318 376.664 12.7422V13.0703C376.664 13.4714 376.719 13.849 376.828 14.2031C376.943 14.5521 377.107 14.8594 377.32 15.125C377.539 15.3906 377.802 15.599 378.109 15.75C378.422 15.901 378.776 15.9766 379.172 15.9766C379.682 15.9766 380.115 15.8724 380.469 15.6641C380.823 15.4557 381.133 15.1771 381.398 14.8281L382.273 15.5234C382.091 15.7995 381.859 16.0625 381.578 16.3125C381.297 16.5625 380.951 16.7656 380.539 16.9219C380.133 17.0781 379.651 17.1562 379.094 17.1562ZM313.695 29.5625V41H312.25V31.3672L309.336 32.4297V31.125L313.469 29.5625H313.695ZM325.086 34.4062V36.1406C325.086 37.0729 325.003 37.8594 324.836 38.5C324.669 39.1406 324.43 39.6562 324.117 40.0469C323.805 40.4375 323.427 40.7214 322.984 40.8984C322.547 41.0703 322.052 41.1562 321.5 41.1562C321.062 41.1562 320.659 41.1016 320.289 40.9922C319.919 40.8828 319.586 40.7083 319.289 40.4688C318.997 40.224 318.747 39.9062 318.539 39.5156C318.331 39.125 318.172 38.651 318.062 38.0938C317.953 37.5365 317.898 36.8854 317.898 36.1406V34.4062C317.898 33.474 317.982 32.6927 318.148 32.0625C318.32 31.4323 318.562 30.9271 318.875 30.5469C319.188 30.1615 319.562 29.8854 320 29.7188C320.443 29.5521 320.938 29.4688 321.484 29.4688C321.927 29.4688 322.333 29.5234 322.703 29.6328C323.078 29.737 323.411 29.9062 323.703 30.1406C323.995 30.3698 324.242 30.6771 324.445 31.0625C324.654 31.4427 324.812 31.9089 324.922 32.4609C325.031 33.013 325.086 33.6615 325.086 34.4062ZM323.633 36.375V34.1641C323.633 33.6536 323.602 33.2057 323.539 32.8203C323.482 32.4297 323.396 32.0964 323.281 31.8203C323.167 31.5443 323.021 31.3203 322.844 31.1484C322.672 30.9766 322.471 30.8516 322.242 30.7734C322.018 30.6901 321.766 30.6484 321.484 30.6484C321.141 30.6484 320.836 30.7135 320.57 30.8438C320.305 30.9688 320.081 31.1693 319.898 31.4453C319.721 31.7214 319.586 32.0833 319.492 32.5312C319.398 32.9792 319.352 33.5234 319.352 34.1641V36.375C319.352 36.8854 319.38 37.3359 319.438 37.7266C319.5 38.1172 319.591 38.4557 319.711 38.7422C319.831 39.0234 319.977 39.2552 320.148 39.4375C320.32 39.6198 320.518 39.7552 320.742 39.8438C320.971 39.9271 321.224 39.9688 321.5 39.9688C321.854 39.9688 322.164 39.901 322.43 39.7656C322.695 39.6302 322.917 39.4193 323.094 39.1328C323.276 38.8411 323.411 38.4688 323.5 38.0156C323.589 37.5573 323.633 37.0104 323.633 36.375ZM326.82 32.4141V31.8125C326.82 31.3802 326.914 30.987 327.102 30.6328C327.289 30.2786 327.557 29.9948 327.906 29.7812C328.255 29.5677 328.669 29.4609 329.148 29.4609C329.638 29.4609 330.055 29.5677 330.398 29.7812C330.747 29.9948 331.016 30.2786 331.203 30.6328C331.391 30.987 331.484 31.3802 331.484 31.8125V32.4141C331.484 32.8359 331.391 33.224 331.203 33.5781C331.021 33.9323 330.755 34.2161 330.406 34.4297C330.062 34.6432 329.648 34.75 329.164 34.75C328.68 34.75 328.26 34.6432 327.906 34.4297C327.557 34.2161 327.289 33.9323 327.102 33.5781C326.914 33.224 326.82 32.8359 326.82 32.4141ZM327.906 31.8125V32.4141C327.906 32.6536 327.951 32.8802 328.039 33.0938C328.133 33.3073 328.273 33.4818 328.461 33.6172C328.648 33.7474 328.883 33.8125 329.164 33.8125C329.445 33.8125 329.677 33.7474 329.859 33.6172C330.042 33.4818 330.177 33.3073 330.266 33.0938C330.354 32.8802 330.398 32.6536 330.398 32.4141V31.8125C330.398 31.5677 330.352 31.3385 330.258 31.125C330.169 30.9062 330.031 30.7318 329.844 30.6016C329.661 30.4661 329.43 30.3984 329.148 30.3984C328.872 30.3984 328.641 30.4661 328.453 30.6016C328.271 30.7318 328.133 30.9062 328.039 31.125C327.951 31.3385 327.906 31.5677 327.906 31.8125ZM332.359 38.8203V38.2109C332.359 37.7839 332.453 37.3932 332.641 37.0391C332.828 36.6849 333.096 36.401 333.445 36.1875C333.794 35.974 334.208 35.8672 334.688 35.8672C335.177 35.8672 335.594 35.974 335.938 36.1875C336.286 36.401 336.555 36.6849 336.742 37.0391C336.93 37.3932 337.023 37.7839 337.023 38.2109V38.8203C337.023 39.2474 336.93 39.638 336.742 39.9922C336.56 40.3464 336.294 40.6302 335.945 40.8438C335.602 41.0573 335.188 41.1641 334.703 41.1641C334.219 41.1641 333.802 41.0573 333.453 40.8438C333.104 40.6302 332.833 40.3464 332.641 39.9922C332.453 39.638 332.359 39.2474 332.359 38.8203ZM333.445 38.2109V38.8203C333.445 39.0599 333.49 39.2891 333.578 39.5078C333.672 39.7214 333.812 39.8958 334 40.0312C334.188 40.1615 334.422 40.2266 334.703 40.2266C334.984 40.2266 335.216 40.1615 335.398 40.0312C335.586 39.8958 335.724 39.7214 335.812 39.5078C335.901 39.2943 335.945 39.0651 335.945 38.8203V38.2109C335.945 37.9661 335.898 37.737 335.805 37.5234C335.716 37.3099 335.578 37.138 335.391 37.0078C335.208 36.8724 334.974 36.8047 334.688 36.8047C334.411 36.8047 334.18 36.8724 333.992 37.0078C333.81 37.138 333.672 37.3099 333.578 37.5234C333.49 37.737 333.445 37.9661 333.445 38.2109ZM335.047 31.2422L329.492 40.1328L328.68 39.6172L334.234 30.7266L335.047 31.2422Z" fill="white"/>
<path d="M288 24H236.6L227 36" stroke="#EECAFF"/>
<g filter="url(#filter0_i_61_12)">
<circle r="8" transform="matrix(1 0 0 -1 288 24)" fill="#BB89D2" fill-opacity="0.1"/>
</g>
<circle cx="288" cy="24" r="3.2" fill="#EECAFF"/>
<path d="M314.938 167.625V179H313.43V167.625H314.938ZM317.68 167.625H321.445C322.299 167.625 323.021 167.755 323.609 168.016C324.203 168.276 324.654 168.661 324.961 169.172C325.273 169.677 325.43 170.299 325.43 171.039C325.43 171.56 325.323 172.036 325.109 172.469C324.901 172.896 324.599 173.26 324.203 173.562C323.812 173.859 323.344 174.081 322.797 174.227L322.375 174.391H318.836L318.82 173.164H321.492C322.034 173.164 322.484 173.07 322.844 172.883C323.203 172.69 323.474 172.432 323.656 172.109C323.839 171.786 323.93 171.43 323.93 171.039C323.93 170.602 323.844 170.219 323.672 169.891C323.5 169.562 323.229 169.31 322.859 169.133C322.495 168.951 322.023 168.859 321.445 168.859H319.188V179H317.68V167.625ZM324.328 179L321.562 173.844L323.133 173.836L325.938 178.906V179H324.328ZM330.328 173.57V174.758H326.516V173.57H330.328ZM338.023 176.125C338.023 175.859 337.982 175.625 337.898 175.422C337.82 175.214 337.68 175.026 337.477 174.859C337.279 174.693 337.003 174.534 336.648 174.383C336.299 174.232 335.857 174.078 335.32 173.922C334.758 173.755 334.25 173.57 333.797 173.367C333.344 173.159 332.956 172.922 332.633 172.656C332.31 172.391 332.062 172.086 331.891 171.742C331.719 171.398 331.633 171.005 331.633 170.562C331.633 170.12 331.724 169.711 331.906 169.336C332.089 168.961 332.349 168.635 332.688 168.359C333.031 168.078 333.44 167.859 333.914 167.703C334.388 167.547 334.917 167.469 335.5 167.469C336.354 167.469 337.078 167.633 337.672 167.961C338.271 168.284 338.727 168.708 339.039 169.234C339.352 169.755 339.508 170.312 339.508 170.906H338.008C338.008 170.479 337.917 170.102 337.734 169.773C337.552 169.44 337.276 169.18 336.906 168.992C336.536 168.799 336.068 168.703 335.5 168.703C334.964 168.703 334.521 168.784 334.172 168.945C333.823 169.107 333.562 169.326 333.391 169.602C333.224 169.878 333.141 170.193 333.141 170.547C333.141 170.786 333.19 171.005 333.289 171.203C333.393 171.396 333.552 171.576 333.766 171.742C333.984 171.909 334.26 172.062 334.594 172.203C334.932 172.344 335.336 172.479 335.805 172.609C336.451 172.792 337.008 172.995 337.477 173.219C337.945 173.443 338.331 173.695 338.633 173.977C338.94 174.253 339.167 174.568 339.312 174.922C339.464 175.271 339.539 175.667 339.539 176.109C339.539 176.573 339.445 176.992 339.258 177.367C339.07 177.742 338.802 178.062 338.453 178.328C338.104 178.594 337.685 178.799 337.195 178.945C336.711 179.086 336.169 179.156 335.57 179.156C335.044 179.156 334.526 179.083 334.016 178.938C333.51 178.792 333.049 178.573 332.633 178.281C332.221 177.99 331.891 177.63 331.641 177.203C331.396 176.771 331.273 176.271 331.273 175.703H332.773C332.773 176.094 332.849 176.43 333 176.711C333.151 176.987 333.357 177.216 333.617 177.398C333.883 177.581 334.182 177.716 334.516 177.805C334.854 177.888 335.206 177.93 335.57 177.93C336.096 177.93 336.542 177.857 336.906 177.711C337.271 177.565 337.547 177.357 337.734 177.086C337.927 176.815 338.023 176.495 338.023 176.125ZM344.781 170.547V171.656H340.211V170.547H344.781ZM341.758 168.492H343.203V176.906C343.203 177.193 343.247 177.409 343.336 177.555C343.424 177.701 343.539 177.797 343.68 177.844C343.82 177.891 343.971 177.914 344.133 177.914C344.253 177.914 344.378 177.904 344.508 177.883C344.643 177.857 344.745 177.836 344.812 177.82L344.82 179C344.706 179.036 344.555 179.07 344.367 179.102C344.185 179.138 343.964 179.156 343.703 179.156C343.349 179.156 343.023 179.086 342.727 178.945C342.43 178.805 342.193 178.57 342.016 178.242C341.844 177.909 341.758 177.461 341.758 176.898V168.492ZM351.461 177.555V173.203C351.461 172.87 351.393 172.581 351.258 172.336C351.128 172.086 350.93 171.893 350.664 171.758C350.398 171.622 350.07 171.555 349.68 171.555C349.315 171.555 348.995 171.617 348.719 171.742C348.448 171.867 348.234 172.031 348.078 172.234C347.927 172.438 347.852 172.656 347.852 172.891H346.406C346.406 172.589 346.484 172.289 346.641 171.992C346.797 171.695 347.021 171.427 347.312 171.188C347.609 170.943 347.964 170.75 348.375 170.609C348.792 170.464 349.255 170.391 349.766 170.391C350.38 170.391 350.922 170.495 351.391 170.703C351.865 170.911 352.234 171.227 352.5 171.648C352.771 172.065 352.906 172.589 352.906 173.219V177.156C352.906 177.438 352.93 177.737 352.977 178.055C353.029 178.372 353.104 178.646 353.203 178.875V179H351.695C351.622 178.833 351.565 178.612 351.523 178.336C351.482 178.055 351.461 177.794 351.461 177.555ZM351.711 173.875L351.727 174.891H350.266C349.854 174.891 349.487 174.924 349.164 174.992C348.841 175.055 348.57 175.151 348.352 175.281C348.133 175.411 347.966 175.576 347.852 175.773C347.737 175.966 347.68 176.193 347.68 176.453C347.68 176.719 347.74 176.961 347.859 177.18C347.979 177.398 348.159 177.573 348.398 177.703C348.643 177.828 348.943 177.891 349.297 177.891C349.74 177.891 350.13 177.797 350.469 177.609C350.807 177.422 351.076 177.193 351.273 176.922C351.477 176.651 351.586 176.388 351.602 176.133L352.219 176.828C352.182 177.047 352.083 177.289 351.922 177.555C351.76 177.82 351.544 178.076 351.273 178.32C351.008 178.56 350.69 178.76 350.32 178.922C349.956 179.078 349.544 179.156 349.086 179.156C348.513 179.156 348.01 179.044 347.578 178.82C347.151 178.596 346.818 178.297 346.578 177.922C346.344 177.542 346.227 177.117 346.227 176.648C346.227 176.195 346.315 175.797 346.492 175.453C346.669 175.104 346.924 174.815 347.258 174.586C347.591 174.352 347.992 174.174 348.461 174.055C348.93 173.935 349.453 173.875 350.031 173.875H351.711ZM356.633 167V179H355.18V167H356.633ZM361.797 170.547L358.109 174.492L356.047 176.633L355.93 175.094L357.406 173.328L360.031 170.547H361.797ZM360.477 179L357.461 174.969L358.211 173.68L362.18 179H360.477ZM364.859 170.547V179H363.406V170.547H364.859ZM363.297 168.305C363.297 168.07 363.367 167.872 363.508 167.711C363.654 167.549 363.867 167.469 364.148 167.469C364.424 167.469 364.635 167.549 364.781 167.711C364.932 167.872 365.008 168.07 365.008 168.305C365.008 168.529 364.932 168.721 364.781 168.883C364.635 169.039 364.424 169.117 364.148 169.117C363.867 169.117 363.654 169.039 363.508 168.883C363.367 168.721 363.297 168.529 363.297 168.305ZM368.625 172.352V179H367.18V170.547H368.547L368.625 172.352ZM368.281 174.453L367.68 174.43C367.685 173.852 367.771 173.318 367.938 172.828C368.104 172.333 368.339 171.904 368.641 171.539C368.943 171.174 369.302 170.893 369.719 170.695C370.141 170.492 370.607 170.391 371.117 170.391C371.534 170.391 371.909 170.448 372.242 170.562C372.576 170.672 372.859 170.849 373.094 171.094C373.333 171.339 373.516 171.656 373.641 172.047C373.766 172.432 373.828 172.904 373.828 173.461V179H372.375V173.445C372.375 173.003 372.31 172.648 372.18 172.383C372.049 172.112 371.859 171.917 371.609 171.797C371.359 171.672 371.052 171.609 370.688 171.609C370.328 171.609 370 171.685 369.703 171.836C369.411 171.987 369.159 172.195 368.945 172.461C368.737 172.727 368.573 173.031 368.453 173.375C368.339 173.714 368.281 174.073 368.281 174.453ZM381.5 170.547H382.812V178.82C382.812 179.565 382.661 180.201 382.359 180.727C382.057 181.253 381.635 181.651 381.094 181.922C380.557 182.198 379.938 182.336 379.234 182.336C378.943 182.336 378.599 182.289 378.203 182.195C377.812 182.107 377.427 181.953 377.047 181.734C376.672 181.521 376.357 181.232 376.102 180.867L376.859 180.008C377.214 180.435 377.583 180.732 377.969 180.898C378.359 181.065 378.745 181.148 379.125 181.148C379.583 181.148 379.979 181.062 380.312 180.891C380.646 180.719 380.904 180.464 381.086 180.125C381.273 179.792 381.367 179.38 381.367 178.891V172.406L381.5 170.547ZM375.68 174.867V174.703C375.68 174.057 375.755 173.471 375.906 172.945C376.062 172.414 376.284 171.958 376.57 171.578C376.862 171.198 377.214 170.906 377.625 170.703C378.036 170.495 378.5 170.391 379.016 170.391C379.547 170.391 380.01 170.484 380.406 170.672C380.807 170.854 381.146 171.122 381.422 171.477C381.703 171.826 381.924 172.247 382.086 172.742C382.247 173.237 382.359 173.797 382.422 174.422V175.141C382.365 175.76 382.253 176.318 382.086 176.812C381.924 177.307 381.703 177.729 381.422 178.078C381.146 178.427 380.807 178.695 380.406 178.883C380.005 179.065 379.536 179.156 379 179.156C378.495 179.156 378.036 179.049 377.625 178.836C377.219 178.622 376.87 178.323 376.578 177.938C376.286 177.552 376.062 177.099 375.906 176.578C375.755 176.052 375.68 175.482 375.68 174.867ZM377.125 174.703V174.867C377.125 175.289 377.167 175.685 377.25 176.055C377.339 176.424 377.471 176.75 377.648 177.031C377.831 177.312 378.062 177.534 378.344 177.695C378.625 177.852 378.961 177.93 379.352 177.93C379.831 177.93 380.227 177.828 380.539 177.625C380.852 177.422 381.099 177.154 381.281 176.82C381.469 176.487 381.615 176.125 381.719 175.734V173.852C381.661 173.565 381.573 173.289 381.453 173.023C381.339 172.753 381.188 172.513 381 172.305C380.818 172.091 380.591 171.922 380.32 171.797C380.049 171.672 379.732 171.609 379.367 171.609C378.971 171.609 378.63 171.693 378.344 171.859C378.062 172.021 377.831 172.245 377.648 172.531C377.471 172.812 377.339 173.141 377.25 173.516C377.167 173.885 377.125 174.281 377.125 174.703ZM315.055 196.602H316.086C316.591 196.602 317.008 196.518 317.336 196.352C317.669 196.18 317.917 195.948 318.078 195.656C318.245 195.359 318.328 195.026 318.328 194.656C318.328 194.219 318.255 193.852 318.109 193.555C317.964 193.258 317.745 193.034 317.453 192.883C317.161 192.732 316.792 192.656 316.344 192.656C315.938 192.656 315.578 192.737 315.266 192.898C314.958 193.055 314.716 193.279 314.539 193.57C314.367 193.862 314.281 194.206 314.281 194.602H312.836C312.836 194.023 312.982 193.497 313.273 193.023C313.565 192.549 313.974 192.172 314.5 191.891C315.031 191.609 315.646 191.469 316.344 191.469C317.031 191.469 317.633 191.591 318.148 191.836C318.664 192.076 319.065 192.435 319.352 192.914C319.638 193.388 319.781 193.979 319.781 194.688C319.781 194.974 319.714 195.281 319.578 195.609C319.448 195.932 319.242 196.234 318.961 196.516C318.685 196.797 318.326 197.029 317.883 197.211C317.44 197.388 316.909 197.477 316.289 197.477H315.055V196.602ZM315.055 197.789V196.922H316.289C317.013 196.922 317.612 197.008 318.086 197.18C318.56 197.352 318.932 197.581 319.203 197.867C319.479 198.154 319.672 198.469 319.781 198.812C319.896 199.151 319.953 199.49 319.953 199.828C319.953 200.359 319.862 200.831 319.68 201.242C319.503 201.654 319.25 202.003 318.922 202.289C318.599 202.576 318.219 202.792 317.781 202.938C317.344 203.083 316.867 203.156 316.352 203.156C315.857 203.156 315.391 203.086 314.953 202.945C314.521 202.805 314.138 202.602 313.805 202.336C313.471 202.065 313.211 201.734 313.023 201.344C312.836 200.948 312.742 200.497 312.742 199.992H314.188C314.188 200.388 314.273 200.734 314.445 201.031C314.622 201.328 314.872 201.56 315.195 201.727C315.523 201.888 315.909 201.969 316.352 201.969C316.794 201.969 317.174 201.893 317.492 201.742C317.815 201.586 318.062 201.352 318.234 201.039C318.411 200.727 318.5 200.333 318.5 199.859C318.5 199.385 318.401 198.997 318.203 198.695C318.005 198.388 317.724 198.161 317.359 198.016C317 197.865 316.576 197.789 316.086 197.789H315.055ZM329.086 196.406V198.141C329.086 199.073 329.003 199.859 328.836 200.5C328.669 201.141 328.43 201.656 328.117 202.047C327.805 202.438 327.427 202.721 326.984 202.898C326.547 203.07 326.052 203.156 325.5 203.156C325.062 203.156 324.659 203.102 324.289 202.992C323.919 202.883 323.586 202.708 323.289 202.469C322.997 202.224 322.747 201.906 322.539 201.516C322.331 201.125 322.172 200.651 322.062 200.094C321.953 199.536 321.898 198.885 321.898 198.141V196.406C321.898 195.474 321.982 194.693 322.148 194.062C322.32 193.432 322.562 192.927 322.875 192.547C323.188 192.161 323.562 191.885 324 191.719C324.443 191.552 324.938 191.469 325.484 191.469C325.927 191.469 326.333 191.523 326.703 191.633C327.078 191.737 327.411 191.906 327.703 192.141C327.995 192.37 328.242 192.677 328.445 193.062C328.654 193.443 328.812 193.909 328.922 194.461C329.031 195.013 329.086 195.661 329.086 196.406ZM327.633 198.375V196.164C327.633 195.654 327.602 195.206 327.539 194.82C327.482 194.43 327.396 194.096 327.281 193.82C327.167 193.544 327.021 193.32 326.844 193.148C326.672 192.977 326.471 192.852 326.242 192.773C326.018 192.69 325.766 192.648 325.484 192.648C325.141 192.648 324.836 192.714 324.57 192.844C324.305 192.969 324.081 193.169 323.898 193.445C323.721 193.721 323.586 194.083 323.492 194.531C323.398 194.979 323.352 195.523 323.352 196.164V198.375C323.352 198.885 323.38 199.336 323.438 199.727C323.5 200.117 323.591 200.456 323.711 200.742C323.831 201.023 323.977 201.255 324.148 201.438C324.32 201.62 324.518 201.755 324.742 201.844C324.971 201.927 325.224 201.969 325.5 201.969C325.854 201.969 326.164 201.901 326.43 201.766C326.695 201.63 326.917 201.419 327.094 201.133C327.276 200.841 327.411 200.469 327.5 200.016C327.589 199.557 327.633 199.01 327.633 198.375ZM330.82 194.414V193.812C330.82 193.38 330.914 192.987 331.102 192.633C331.289 192.279 331.557 191.995 331.906 191.781C332.255 191.568 332.669 191.461 333.148 191.461C333.638 191.461 334.055 191.568 334.398 191.781C334.747 191.995 335.016 192.279 335.203 192.633C335.391 192.987 335.484 193.38 335.484 193.812V194.414C335.484 194.836 335.391 195.224 335.203 195.578C335.021 195.932 334.755 196.216 334.406 196.43C334.062 196.643 333.648 196.75 333.164 196.75C332.68 196.75 332.26 196.643 331.906 196.43C331.557 196.216 331.289 195.932 331.102 195.578C330.914 195.224 330.82 194.836 330.82 194.414ZM331.906 193.812V194.414C331.906 194.654 331.951 194.88 332.039 195.094C332.133 195.307 332.273 195.482 332.461 195.617C332.648 195.747 332.883 195.812 333.164 195.812C333.445 195.812 333.677 195.747 333.859 195.617C334.042 195.482 334.177 195.307 334.266 195.094C334.354 194.88 334.398 194.654 334.398 194.414V193.812C334.398 193.568 334.352 193.339 334.258 193.125C334.169 192.906 334.031 192.732 333.844 192.602C333.661 192.466 333.43 192.398 333.148 192.398C332.872 192.398 332.641 192.466 332.453 192.602C332.271 192.732 332.133 192.906 332.039 193.125C331.951 193.339 331.906 193.568 331.906 193.812ZM336.359 200.82V200.211C336.359 199.784 336.453 199.393 336.641 199.039C336.828 198.685 337.096 198.401 337.445 198.188C337.794 197.974 338.208 197.867 338.688 197.867C339.177 197.867 339.594 197.974 339.938 198.188C340.286 198.401 340.555 198.685 340.742 199.039C340.93 199.393 341.023 199.784 341.023 200.211V200.82C341.023 201.247 340.93 201.638 340.742 201.992C340.56 202.346 340.294 202.63 339.945 202.844C339.602 203.057 339.188 203.164 338.703 203.164C338.219 203.164 337.802 203.057 337.453 202.844C337.104 202.63 336.833 202.346 336.641 201.992C336.453 201.638 336.359 201.247 336.359 200.82ZM337.445 200.211V200.82C337.445 201.06 337.49 201.289 337.578 201.508C337.672 201.721 337.812 201.896 338 202.031C338.188 202.161 338.422 202.227 338.703 202.227C338.984 202.227 339.216 202.161 339.398 202.031C339.586 201.896 339.724 201.721 339.812 201.508C339.901 201.294 339.945 201.065 339.945 200.82V200.211C339.945 199.966 339.898 199.737 339.805 199.523C339.716 199.31 339.578 199.138 339.391 199.008C339.208 198.872 338.974 198.805 338.688 198.805C338.411 198.805 338.18 198.872 337.992 199.008C337.81 199.138 337.672 199.31 337.578 199.523C337.49 199.737 337.445 199.966 337.445 200.211ZM339.047 193.242L333.492 202.133L332.68 201.617L338.234 192.727L339.047 193.242Z" fill="white"/>
<path d="M292 186H253.239L246 174" stroke="#EECAFF"/>
<g filter="url(#filter1_i_61_12)">
<circle r="8" transform="matrix(1 0 0 -1 292 186)" fill="#BB89D2" fill-opacity="0.1"/>
</g>
<circle cx="292" cy="186" r="3.2" fill="#EECAFF"/>
<path d="M345.219 84.7734V86H339.531V84.7734H345.219ZM339.828 74.625V86H338.32V74.625H339.828ZM346.344 81.8672V81.6875C346.344 81.0781 346.432 80.513 346.609 79.9922C346.786 79.4661 347.042 79.0104 347.375 78.625C347.708 78.2344 348.112 77.9323 348.586 77.7188C349.06 77.5 349.591 77.3906 350.18 77.3906C350.773 77.3906 351.307 77.5 351.781 77.7188C352.26 77.9323 352.667 78.2344 353 78.625C353.339 79.0104 353.596 79.4661 353.773 79.9922C353.951 80.513 354.039 81.0781 354.039 81.6875V81.8672C354.039 82.4766 353.951 83.0417 353.773 83.5625C353.596 84.0833 353.339 84.5391 353 84.9297C352.667 85.3151 352.263 85.6172 351.789 85.8359C351.32 86.0495 350.789 86.1562 350.195 86.1562C349.602 86.1562 349.068 86.0495 348.594 85.8359C348.12 85.6172 347.714 85.3151 347.375 84.9297C347.042 84.5391 346.786 84.0833 346.609 83.5625C346.432 83.0417 346.344 82.4766 346.344 81.8672ZM347.789 81.6875V81.8672C347.789 82.2891 347.839 82.6875 347.938 83.0625C348.036 83.4323 348.185 83.7604 348.383 84.0469C348.586 84.3333 348.839 84.5599 349.141 84.7266C349.443 84.888 349.794 84.9688 350.195 84.9688C350.591 84.9688 350.938 84.888 351.234 84.7266C351.536 84.5599 351.786 84.3333 351.984 84.0469C352.182 83.7604 352.331 83.4323 352.43 83.0625C352.534 82.6875 352.586 82.2891 352.586 81.8672V81.6875C352.586 81.2708 352.534 80.8776 352.43 80.5078C352.331 80.1328 352.18 79.8021 351.977 79.5156C351.779 79.224 351.529 78.9948 351.227 78.8281C350.93 78.6615 350.581 78.5781 350.18 78.5781C349.784 78.5781 349.435 78.6615 349.133 78.8281C348.836 78.9948 348.586 79.224 348.383 79.5156C348.185 79.8021 348.036 80.1328 347.938 80.5078C347.839 80.8776 347.789 81.2708 347.789 81.6875ZM359.234 84.9688C359.578 84.9688 359.896 84.8984 360.188 84.7578C360.479 84.6172 360.719 84.4245 360.906 84.1797C361.094 83.9297 361.201 83.6458 361.227 83.3281H362.602C362.576 83.8281 362.406 84.2943 362.094 84.7266C361.786 85.1536 361.383 85.5 360.883 85.7656C360.383 86.026 359.833 86.1562 359.234 86.1562C358.599 86.1562 358.044 86.0443 357.57 85.8203C357.102 85.5964 356.711 85.2891 356.398 84.8984C356.091 84.5078 355.859 84.0599 355.703 83.5547C355.552 83.0443 355.477 82.5052 355.477 81.9375V81.6094C355.477 81.0417 355.552 80.5052 355.703 80C355.859 79.4896 356.091 79.0391 356.398 78.6484C356.711 78.2578 357.102 77.9505 357.57 77.7266C358.044 77.5026 358.599 77.3906 359.234 77.3906C359.896 77.3906 360.474 77.526 360.969 77.7969C361.464 78.0625 361.852 78.4271 362.133 78.8906C362.419 79.349 362.576 79.8698 362.602 80.4531H361.227C361.201 80.1042 361.102 79.7891 360.93 79.5078C360.763 79.2266 360.534 79.0026 360.242 78.8359C359.956 78.6641 359.62 78.5781 359.234 78.5781C358.792 78.5781 358.419 78.6667 358.117 78.8438C357.82 79.0156 357.583 79.25 357.406 79.5469C357.234 79.8385 357.109 80.1641 357.031 80.5234C356.958 80.8776 356.922 81.2396 356.922 81.6094V81.9375C356.922 82.3073 356.958 82.6719 357.031 83.0312C357.104 83.3906 357.227 83.7161 357.398 84.0078C357.576 84.2995 357.812 84.5339 358.109 84.7109C358.411 84.8828 358.786 84.9688 359.234 84.9688ZM365.68 74V86H364.227V74H365.68ZM370.844 77.5469L367.156 81.4922L365.094 83.6328L364.977 82.0938L366.453 80.3281L369.078 77.5469H370.844ZM369.523 86L366.508 81.9688L367.258 80.6797L371.227 86H369.523ZM375.688 86.1562C375.099 86.1562 374.565 86.0573 374.086 85.8594C373.612 85.6562 373.203 85.3724 372.859 85.0078C372.521 84.6432 372.26 84.2109 372.078 83.7109C371.896 83.2109 371.805 82.6641 371.805 82.0703V81.7422C371.805 81.0547 371.906 80.4427 372.109 79.9062C372.312 79.3646 372.589 78.9062 372.938 78.5312C373.286 78.1562 373.682 77.8724 374.125 77.6797C374.568 77.487 375.026 77.3906 375.5 77.3906C376.104 77.3906 376.625 77.4948 377.062 77.7031C377.505 77.9115 377.867 78.2031 378.148 78.5781C378.43 78.9479 378.638 79.3854 378.773 79.8906C378.909 80.3906 378.977 80.9375 378.977 81.5312V82.1797H372.664V81H377.531V80.8906C377.51 80.5156 377.432 80.151 377.297 79.7969C377.167 79.4427 376.958 79.151 376.672 78.9219C376.385 78.6927 375.995 78.5781 375.5 78.5781C375.172 78.5781 374.87 78.6484 374.594 78.7891C374.318 78.9245 374.081 79.1276 373.883 79.3984C373.685 79.6693 373.531 80 373.422 80.3906C373.312 80.7812 373.258 81.2318 373.258 81.7422V82.0703C373.258 82.4714 373.312 82.849 373.422 83.2031C373.536 83.5521 373.701 83.8594 373.914 84.125C374.133 84.3906 374.396 84.599 374.703 84.75C375.016 84.901 375.37 84.9766 375.766 84.9766C376.276 84.9766 376.708 84.8724 377.062 84.6641C377.417 84.4557 377.727 84.1771 377.992 83.8281L378.867 84.5234C378.685 84.7995 378.453 85.0625 378.172 85.3125C377.891 85.5625 377.544 85.7656 377.133 85.9219C376.727 86.0781 376.245 86.1562 375.688 86.1562ZM385.992 84.3594V74H387.445V86H386.117L385.992 84.3594ZM380.305 81.8672V81.7031C380.305 81.0573 380.383 80.4714 380.539 79.9453C380.701 79.4141 380.927 78.9583 381.219 78.5781C381.516 78.1979 381.867 77.9062 382.273 77.7031C382.685 77.4948 383.143 77.3906 383.648 77.3906C384.18 77.3906 384.643 77.4844 385.039 77.6719C385.44 77.8542 385.779 78.1224 386.055 78.4766C386.336 78.8255 386.557 79.2474 386.719 79.7422C386.88 80.237 386.992 80.7969 387.055 81.4219V82.1406C386.997 82.7604 386.885 83.3177 386.719 83.8125C386.557 84.3073 386.336 84.7292 386.055 85.0781C385.779 85.4271 385.44 85.6953 385.039 85.8828C384.638 86.0651 384.169 86.1562 383.633 86.1562C383.138 86.1562 382.685 86.0495 382.273 85.8359C381.867 85.6224 381.516 85.3229 381.219 84.9375C380.927 84.5521 380.701 84.099 380.539 83.5781C380.383 83.0521 380.305 82.4818 380.305 81.8672ZM381.758 81.7031V81.8672C381.758 82.2891 381.799 82.6849 381.883 83.0547C381.971 83.4245 382.107 83.75 382.289 84.0312C382.471 84.3125 382.703 84.5339 382.984 84.6953C383.266 84.8516 383.602 84.9297 383.992 84.9297C384.471 84.9297 384.865 84.8281 385.172 84.625C385.484 84.4219 385.734 84.1536 385.922 83.8203C386.109 83.487 386.255 83.125 386.359 82.7344V80.8516C386.297 80.5651 386.206 80.2891 386.086 80.0234C385.971 79.7526 385.82 79.513 385.633 79.3047C385.451 79.0911 385.224 78.9219 384.953 78.7969C384.688 78.6719 384.372 78.6094 384.008 78.6094C383.612 78.6094 383.271 78.6927 382.984 78.8594C382.703 79.0208 382.471 79.2448 382.289 79.5312C382.107 79.8125 381.971 80.1406 381.883 80.5156C381.799 80.8854 381.758 81.2812 381.758 81.7031ZM342.695 98.5625V110H341.25V100.367L338.336 101.43V100.125L342.469 98.5625H342.695ZM348.773 104.586L347.617 104.289L348.188 98.625H354.023V99.9609H349.414L349.07 103.055C349.279 102.935 349.542 102.823 349.859 102.719C350.182 102.615 350.552 102.562 350.969 102.562C351.495 102.562 351.966 102.654 352.383 102.836C352.799 103.013 353.154 103.268 353.445 103.602C353.742 103.935 353.969 104.336 354.125 104.805C354.281 105.273 354.359 105.797 354.359 106.375C354.359 106.922 354.284 107.424 354.133 107.883C353.987 108.341 353.766 108.742 353.469 109.086C353.172 109.424 352.797 109.688 352.344 109.875C351.896 110.062 351.367 110.156 350.758 110.156C350.299 110.156 349.865 110.094 349.453 109.969C349.047 109.839 348.682 109.643 348.359 109.383C348.042 109.117 347.781 108.789 347.578 108.398C347.38 108.003 347.255 107.539 347.203 107.008H348.578C348.641 107.435 348.766 107.794 348.953 108.086C349.141 108.378 349.385 108.599 349.688 108.75C349.995 108.896 350.352 108.969 350.758 108.969C351.102 108.969 351.406 108.909 351.672 108.789C351.938 108.669 352.161 108.497 352.344 108.273C352.526 108.049 352.664 107.779 352.758 107.461C352.857 107.143 352.906 106.786 352.906 106.391C352.906 106.031 352.857 105.698 352.758 105.391C352.659 105.083 352.51 104.815 352.312 104.586C352.12 104.357 351.883 104.18 351.602 104.055C351.32 103.924 350.997 103.859 350.633 103.859C350.148 103.859 349.781 103.924 349.531 104.055C349.286 104.185 349.034 104.362 348.773 104.586ZM355.82 101.414V100.812C355.82 100.38 355.914 99.987 356.102 99.6328C356.289 99.2786 356.557 98.9948 356.906 98.7812C357.255 98.5677 357.669 98.4609 358.148 98.4609C358.638 98.4609 359.055 98.5677 359.398 98.7812C359.747 98.9948 360.016 99.2786 360.203 99.6328C360.391 99.987 360.484 100.38 360.484 100.812V101.414C360.484 101.836 360.391 102.224 360.203 102.578C360.021 102.932 359.755 103.216 359.406 103.43C359.062 103.643 358.648 103.75 358.164 103.75C357.68 103.75 357.26 103.643 356.906 103.43C356.557 103.216 356.289 102.932 356.102 102.578C355.914 102.224 355.82 101.836 355.82 101.414ZM356.906 100.812V101.414C356.906 101.654 356.951 101.88 357.039 102.094C357.133 102.307 357.273 102.482 357.461 102.617C357.648 102.747 357.883 102.812 358.164 102.812C358.445 102.812 358.677 102.747 358.859 102.617C359.042 102.482 359.177 102.307 359.266 102.094C359.354 101.88 359.398 101.654 359.398 101.414V100.812C359.398 100.568 359.352 100.339 359.258 100.125C359.169 99.9062 359.031 99.7318 358.844 99.6016C358.661 99.4661 358.43 99.3984 358.148 99.3984C357.872 99.3984 357.641 99.4661 357.453 99.6016C357.271 99.7318 357.133 99.9062 357.039 100.125C356.951 100.339 356.906 100.568 356.906 100.812ZM361.359 107.82V107.211C361.359 106.784 361.453 106.393 361.641 106.039C361.828 105.685 362.096 105.401 362.445 105.188C362.794 104.974 363.208 104.867 363.688 104.867C364.177 104.867 364.594 104.974 364.938 105.188C365.286 105.401 365.555 105.685 365.742 106.039C365.93 106.393 366.023 106.784 366.023 107.211V107.82C366.023 108.247 365.93 108.638 365.742 108.992C365.56 109.346 365.294 109.63 364.945 109.844C364.602 110.057 364.188 110.164 363.703 110.164C363.219 110.164 362.802 110.057 362.453 109.844C362.104 109.63 361.833 109.346 361.641 108.992C361.453 108.638 361.359 108.247 361.359 107.82ZM362.445 107.211V107.82C362.445 108.06 362.49 108.289 362.578 108.508C362.672 108.721 362.812 108.896 363 109.031C363.188 109.161 363.422 109.227 363.703 109.227C363.984 109.227 364.216 109.161 364.398 109.031C364.586 108.896 364.724 108.721 364.812 108.508C364.901 108.294 364.945 108.065 364.945 107.82V107.211C364.945 106.966 364.898 106.737 364.805 106.523C364.716 106.31 364.578 106.138 364.391 106.008C364.208 105.872 363.974 105.805 363.688 105.805C363.411 105.805 363.18 105.872 362.992 106.008C362.81 106.138 362.672 106.31 362.578 106.523C362.49 106.737 362.445 106.966 362.445 107.211ZM364.047 100.242L358.492 109.133L357.68 108.617L363.234 99.7266L364.047 100.242Z" fill="white"/>
<path d="M317 93L269 93" stroke="#EECAFF"/>
<g filter="url(#filter2_i_61_12)">
<circle r="8" transform="matrix(1 0 0 -1 317 93)" fill="#BB89D2" fill-opacity="0.1"/>
</g>
<circle cx="317" cy="93" r="3.2" fill="#EECAFF"/>
<path d="M1.32031 45.625H5.08594C5.9401 45.625 6.66146 45.7552 7.25 46.0156C7.84375 46.276 8.29427 46.6615 8.60156 47.1719C8.91406 47.6771 9.07031 48.2995 9.07031 49.0391C9.07031 49.5599 8.96354 50.0365 8.75 50.4688C8.54167 50.8958 8.23958 51.2604 7.84375 51.5625C7.45312 51.8594 6.98438 52.0807 6.4375 52.2266L6.01562 52.3906H2.47656L2.46094 51.1641H5.13281C5.67448 51.1641 6.125 51.0703 6.48438 50.8828C6.84375 50.6901 7.11458 50.4323 7.29688 50.1094C7.47917 49.7865 7.57031 49.4297 7.57031 49.0391C7.57031 48.6016 7.48438 48.2188 7.3125 47.8906C7.14062 47.5625 6.86979 47.3099 6.5 47.1328C6.13542 46.9505 5.66406 46.8594 5.08594 46.8594H2.82812V57H1.32031V45.625ZM7.96875 57L5.20312 51.8438L6.77344 51.8359L9.57812 56.9062V57H7.96875ZM14.4688 57.1562C13.8802 57.1562 13.3464 57.0573 12.8672 56.8594C12.3932 56.6562 11.9844 56.3724 11.6406 56.0078C11.3021 55.6432 11.0417 55.2109 10.8594 54.7109C10.6771 54.2109 10.5859 53.6641 10.5859 53.0703V52.7422C10.5859 52.0547 10.6875 51.4427 10.8906 50.9062C11.0938 50.3646 11.3698 49.9062 11.7188 49.5312C12.0677 49.1562 12.4635 48.8724 12.9062 48.6797C13.349 48.487 13.8073 48.3906 14.2812 48.3906C14.8854 48.3906 15.4062 48.4948 15.8438 48.7031C16.2865 48.9115 16.6484 49.2031 16.9297 49.5781C17.2109 49.9479 17.4193 50.3854 17.5547 50.8906C17.6901 51.3906 17.7578 51.9375 17.7578 52.5312V53.1797H11.4453V52H16.3125V51.8906C16.2917 51.5156 16.2135 51.151 16.0781 50.7969C15.9479 50.4427 15.7396 50.151 15.4531 49.9219C15.1667 49.6927 14.776 49.5781 14.2812 49.5781C13.9531 49.5781 13.651 49.6484 13.375 49.7891C13.099 49.9245 12.862 50.1276 12.6641 50.3984C12.4661 50.6693 12.3125 51 12.2031 51.3906C12.0938 51.7812 12.0391 52.2318 12.0391 52.7422V53.0703C12.0391 53.4714 12.0938 53.849 12.2031 54.2031C12.3177 54.5521 12.4818 54.8594 12.6953 55.125C12.9141 55.3906 13.1771 55.599 13.4844 55.75C13.7969 55.901 14.151 55.9766 14.5469 55.9766C15.0573 55.9766 15.4896 55.8724 15.8438 55.6641C16.1979 55.4557 16.5078 55.1771 16.7734 54.8281L17.6484 55.5234C17.4661 55.7995 17.2344 56.0625 16.9531 56.3125C16.6719 56.5625 16.3255 56.7656 15.9141 56.9219C15.5078 57.0781 15.026 57.1562 14.4688 57.1562ZM22.9844 48.5469V49.6562H18.4141V48.5469H22.9844ZM19.9609 46.4922H21.4062V54.9062C21.4062 55.1927 21.4505 55.4089 21.5391 55.5547C21.6276 55.7005 21.7422 55.7969 21.8828 55.8438C22.0234 55.8906 22.1745 55.9141 22.3359 55.9141C22.4557 55.9141 22.5807 55.9036 22.7109 55.8828C22.8464 55.8568 22.9479 55.8359 23.0156 55.8203L23.0234 57C22.9089 57.0365 22.7578 57.0703 22.5703 57.1016C22.388 57.138 22.1667 57.1562 21.9062 57.1562C21.5521 57.1562 21.2266 57.0859 20.9297 56.9453C20.6328 56.8047 20.3958 56.5703 20.2188 56.2422C20.0469 55.9089 19.9609 55.4609 19.9609 54.8984V46.4922ZM29.6641 55.5547V51.2031C29.6641 50.8698 29.5964 50.5807 29.4609 50.3359C29.3307 50.0859 29.1328 49.8932 28.8672 49.7578C28.6016 49.6224 28.2734 49.5547 27.8828 49.5547C27.5182 49.5547 27.1979 49.6172 26.9219 49.7422C26.651 49.8672 26.4375 50.0312 26.2812 50.2344C26.1302 50.4375 26.0547 50.6562 26.0547 50.8906H24.6094C24.6094 50.5885 24.6875 50.2891 24.8438 49.9922C25 49.6953 25.224 49.4271 25.5156 49.1875C25.8125 48.9427 26.1667 48.75 26.5781 48.6094C26.9948 48.4635 27.4583 48.3906 27.9688 48.3906C28.5833 48.3906 29.125 48.4948 29.5938 48.7031C30.0677 48.9115 30.4375 49.2266 30.7031 49.6484C30.974 50.0651 31.1094 50.5885 31.1094 51.2188V55.1562C31.1094 55.4375 31.1328 55.737 31.1797 56.0547C31.2318 56.3724 31.3073 56.6458 31.4062 56.875V57H29.8984C29.8255 56.8333 29.7682 56.612 29.7266 56.3359C29.6849 56.0547 29.6641 55.7943 29.6641 55.5547ZM29.9141 51.875L29.9297 52.8906H28.4688C28.0573 52.8906 27.6901 52.9245 27.3672 52.9922C27.0443 53.0547 26.7734 53.151 26.5547 53.2812C26.3359 53.4115 26.1693 53.5755 26.0547 53.7734C25.9401 53.9661 25.8828 54.1927 25.8828 54.4531C25.8828 54.7188 25.9427 54.9609 26.0625 55.1797C26.1823 55.3984 26.362 55.5729 26.6016 55.7031C26.8464 55.8281 27.1458 55.8906 27.5 55.8906C27.9427 55.8906 28.3333 55.7969 28.6719 55.6094C29.0104 55.4219 29.2786 55.1927 29.4766 54.9219C29.6797 54.651 29.7891 54.388 29.8047 54.1328L30.4219 54.8281C30.3854 55.0469 30.2865 55.2891 30.125 55.5547C29.9635 55.8203 29.7474 56.0755 29.4766 56.3203C29.2109 56.5599 28.8932 56.7604 28.5234 56.9219C28.1589 57.0781 27.7474 57.1562 27.2891 57.1562C26.7161 57.1562 26.2135 57.0443 25.7812 56.8203C25.3542 56.5964 25.0208 56.2969 24.7812 55.9219C24.5469 55.5417 24.4297 55.1172 24.4297 54.6484C24.4297 54.1953 24.5182 53.7969 24.6953 53.4531C24.8724 53.1042 25.1276 52.8151 25.4609 52.5859C25.7943 52.3516 26.1953 52.1745 26.6641 52.0547C27.1328 51.9349 27.6562 51.875 28.2344 51.875H29.9141ZM34.9531 48.5469V57H33.5V48.5469H34.9531ZM33.3906 46.3047C33.3906 46.0703 33.4609 45.8724 33.6016 45.7109C33.7474 45.5495 33.9609 45.4688 34.2422 45.4688C34.5182 45.4688 34.7292 45.5495 34.875 45.7109C35.026 45.8724 35.1016 46.0703 35.1016 46.3047C35.1016 46.5286 35.026 46.7214 34.875 46.8828C34.7292 47.0391 34.5182 47.1172 34.2422 47.1172C33.9609 47.1172 33.7474 47.0391 33.6016 46.8828C33.4609 46.7214 33.3906 46.5286 33.3906 46.3047ZM38.8438 45V57H37.3906V45H38.8438ZM46.9688 45.625V57H45.4609V45.625H46.9688ZM50.9375 50.3516V57H49.4922V48.5469H50.8594L50.9375 50.3516ZM50.5938 52.4531L49.9922 52.4297C49.9974 51.8516 50.0833 51.3177 50.25 50.8281C50.4167 50.3333 50.651 49.9036 50.9531 49.5391C51.2552 49.1745 51.6146 48.8932 52.0312 48.6953C52.4531 48.4922 52.9193 48.3906 53.4297 48.3906C53.8464 48.3906 54.2214 48.4479 54.5547 48.5625C54.888 48.6719 55.1719 48.849 55.4062 49.0938C55.6458 49.3385 55.8281 49.6562 55.9531 50.0469C56.0781 50.4323 56.1406 50.9036 56.1406 51.4609V57H54.6875V51.4453C54.6875 51.0026 54.6224 50.6484 54.4922 50.3828C54.362 50.112 54.1719 49.9167 53.9219 49.7969C53.6719 49.6719 53.3646 49.6094 53 49.6094C52.6406 49.6094 52.3125 49.6849 52.0156 49.8359C51.724 49.987 51.4714 50.1953 51.2578 50.4609C51.0495 50.7266 50.8854 51.0312 50.7656 51.375C50.651 51.7135 50.5938 52.0729 50.5938 52.4531ZM60.9062 55.6953L63.2188 48.5469H64.6953L61.6562 57H60.6875L60.9062 55.6953ZM58.9766 48.5469L61.3594 55.7344L61.5234 57H60.5547L57.4922 48.5469H58.9766ZM69.4844 57.1562C68.8958 57.1562 68.362 57.0573 67.8828 56.8594C67.4089 56.6562 67 56.3724 66.6562 56.0078C66.3177 55.6432 66.0573 55.2109 65.875 54.7109C65.6927 54.2109 65.6016 53.6641 65.6016 53.0703V52.7422C65.6016 52.0547 65.7031 51.4427 65.9062 50.9062C66.1094 50.3646 66.3854 49.9062 66.7344 49.5312C67.0833 49.1562 67.4792 48.8724 67.9219 48.6797C68.3646 48.487 68.8229 48.3906 69.2969 48.3906C69.901 48.3906 70.4219 48.4948 70.8594 48.7031C71.3021 48.9115 71.6641 49.2031 71.9453 49.5781C72.2266 49.9479 72.4349 50.3854 72.5703 50.8906C72.7057 51.3906 72.7734 51.9375 72.7734 52.5312V53.1797H66.4609V52H71.3281V51.8906C71.3073 51.5156 71.2292 51.151 71.0938 50.7969C70.9635 50.4427 70.7552 50.151 70.4688 49.9219C70.1823 49.6927 69.7917 49.5781 69.2969 49.5781C68.9688 49.5781 68.6667 49.6484 68.3906 49.7891C68.1146 49.9245 67.8776 50.1276 67.6797 50.3984C67.4818 50.6693 67.3281 51 67.2188 51.3906C67.1094 51.7812 67.0547 52.2318 67.0547 52.7422V53.0703C67.0547 53.4714 67.1094 53.849 67.2188 54.2031C67.3333 54.5521 67.4974 54.8594 67.7109 55.125C67.9297 55.3906 68.1927 55.599 68.5 55.75C68.8125 55.901 69.1667 55.9766 69.5625 55.9766C70.0729 55.9766 70.5052 55.8724 70.8594 55.6641C71.2135 55.4557 71.5234 55.1771 71.7891 54.8281L72.6641 55.5234C72.4818 55.7995 72.25 56.0625 71.9688 56.3125C71.6875 56.5625 71.3411 56.7656 70.9297 56.9219C70.5234 57.0781 70.0417 57.1562 69.4844 57.1562ZM79.3828 54.7578C79.3828 54.5495 79.3359 54.3568 79.2422 54.1797C79.1536 53.9974 78.9688 53.8333 78.6875 53.6875C78.4115 53.5365 77.9948 53.4062 77.4375 53.2969C76.9688 53.1979 76.5443 53.0807 76.1641 52.9453C75.7891 52.8099 75.4688 52.6458 75.2031 52.4531C74.9427 52.2604 74.7422 52.0339 74.6016 51.7734C74.4609 51.513 74.3906 51.2083 74.3906 50.8594C74.3906 50.526 74.4635 50.2109 74.6094 49.9141C74.7604 49.6172 74.9714 49.3542 75.2422 49.125C75.5182 48.8958 75.849 48.7161 76.2344 48.5859C76.6198 48.4557 77.0495 48.3906 77.5234 48.3906C78.2005 48.3906 78.7786 48.5104 79.2578 48.75C79.737 48.9896 80.1042 49.3099 80.3594 49.7109C80.6146 50.1068 80.7422 50.5469 80.7422 51.0312H79.2969C79.2969 50.7969 79.2266 50.5703 79.0859 50.3516C78.9505 50.1276 78.75 49.9427 78.4844 49.7969C78.224 49.651 77.9036 49.5781 77.5234 49.5781C77.1224 49.5781 76.7969 49.6406 76.5469 49.7656C76.3021 49.8854 76.1224 50.0391 76.0078 50.2266C75.8984 50.4141 75.8438 50.612 75.8438 50.8203C75.8438 50.9766 75.8698 51.1172 75.9219 51.2422C75.9792 51.362 76.0781 51.474 76.2188 51.5781C76.3594 51.6771 76.5573 51.7708 76.8125 51.8594C77.0677 51.9479 77.3932 52.0365 77.7891 52.125C78.4818 52.2812 79.0521 52.4688 79.5 52.6875C79.9479 52.9062 80.2812 53.1745 80.5 53.4922C80.7188 53.8099 80.8281 54.1953 80.8281 54.6484C80.8281 55.0182 80.75 55.3568 80.5938 55.6641C80.4427 55.9714 80.2214 56.237 79.9297 56.4609C79.6432 56.6797 79.2995 56.8516 78.8984 56.9766C78.5026 57.0964 78.0573 57.1562 77.5625 57.1562C76.8177 57.1562 76.1875 57.0234 75.6719 56.7578C75.1562 56.4922 74.7656 56.1484 74.5 55.7266C74.2344 55.3047 74.1016 54.8594 74.1016 54.3906H75.5547C75.5755 54.7865 75.6901 55.1016 75.8984 55.3359C76.1068 55.5651 76.362 55.7292 76.6641 55.8281C76.9661 55.9219 77.2656 55.9688 77.5625 55.9688C77.9583 55.9688 78.2891 55.9167 78.5547 55.8125C78.8255 55.7083 79.0312 55.5651 79.1719 55.3828C79.3125 55.2005 79.3828 54.9922 79.3828 54.7578ZM86.2656 48.5469V49.6562H81.6953V48.5469H86.2656ZM83.2422 46.4922H84.6875V54.9062C84.6875 55.1927 84.7318 55.4089 84.8203 55.5547C84.9089 55.7005 85.0234 55.7969 85.1641 55.8438C85.3047 55.8906 85.4557 55.9141 85.6172 55.9141C85.737 55.9141 85.862 55.9036 85.9922 55.8828C86.1276 55.8568 86.2292 55.8359 86.2969 55.8203L86.3047 57C86.1901 57.0365 86.0391 57.0703 85.8516 57.1016C85.6693 57.138 85.4479 57.1562 85.1875 57.1562C84.8333 57.1562 84.5078 57.0859 84.2109 56.9453C83.9141 56.8047 83.6771 56.5703 83.5 56.2422C83.3281 55.9089 83.2422 55.4609 83.2422 54.8984V46.4922ZM87.4219 52.8672V52.6875C87.4219 52.0781 87.5104 51.513 87.6875 50.9922C87.8646 50.4661 88.1198 50.0104 88.4531 49.625C88.7865 49.2344 89.1901 48.9323 89.6641 48.7188C90.138 48.5 90.6693 48.3906 91.2578 48.3906C91.8516 48.3906 92.3854 48.5 92.8594 48.7188C93.3385 48.9323 93.7448 49.2344 94.0781 49.625C94.4167 50.0104 94.6745 50.4661 94.8516 50.9922C95.0286 51.513 95.1172 52.0781 95.1172 52.6875V52.8672C95.1172 53.4766 95.0286 54.0417 94.8516 54.5625C94.6745 55.0833 94.4167 55.5391 94.0781 55.9297C93.7448 56.3151 93.3411 56.6172 92.8672 56.8359C92.3984 57.0495 91.8672 57.1562 91.2734 57.1562C90.6797 57.1562 90.1458 57.0495 89.6719 56.8359C89.1979 56.6172 88.7917 56.3151 88.4531 55.9297C88.1198 55.5391 87.8646 55.0833 87.6875 54.5625C87.5104 54.0417 87.4219 53.4766 87.4219 52.8672ZM88.8672 52.6875V52.8672C88.8672 53.2891 88.9167 53.6875 89.0156 54.0625C89.1146 54.4323 89.263 54.7604 89.4609 55.0469C89.6641 55.3333 89.9167 55.5599 90.2188 55.7266C90.5208 55.888 90.8724 55.9688 91.2734 55.9688C91.6693 55.9688 92.0156 55.888 92.3125 55.7266C92.6146 55.5599 92.8646 55.3333 93.0625 55.0469C93.2604 54.7604 93.4089 54.4323 93.5078 54.0625C93.612 53.6875 93.6641 53.2891 93.6641 52.8672V52.6875C93.6641 52.2708 93.612 51.8776 93.5078 51.5078C93.4089 51.1328 93.2578 50.8021 93.0547 50.5156C92.8568 50.224 92.6068 49.9948 92.3047 49.8281C92.0078 49.6615 91.6589 49.5781 91.2578 49.5781C90.862 49.5781 90.513 49.6615 90.2109 49.8281C89.9141 49.9948 89.6641 50.224 89.4609 50.5156C89.263 50.8021 89.1146 51.1328 89.0156 51.5078C88.9167 51.8776 88.8672 52.2708 88.8672 52.6875ZM98.375 49.875V57H96.9297V48.5469H98.3359L98.375 49.875ZM101.016 48.5L101.008 49.8438C100.888 49.8177 100.773 49.8021 100.664 49.7969C100.56 49.7865 100.44 49.7812 100.305 49.7812C99.9714 49.7812 99.6771 49.8333 99.4219 49.9375C99.1667 50.0417 98.9505 50.1875 98.7734 50.375C98.5964 50.5625 98.4557 50.7865 98.3516 51.0469C98.2526 51.3021 98.1875 51.5833 98.1562 51.8906L97.75 52.125C97.75 51.6146 97.7995 51.1354 97.8984 50.6875C98.0026 50.2396 98.1615 49.8438 98.375 49.5C98.5885 49.151 98.8594 48.8802 99.1875 48.6875C99.5208 48.4896 99.9167 48.3906 100.375 48.3906C100.479 48.3906 100.599 48.4036 100.734 48.4297C100.87 48.4505 100.964 48.474 101.016 48.5ZM8.63281 77.1719V78.3594H0.414062V77.5078L5.50781 69.625H6.6875L5.42188 71.9062L2.05469 77.1719H8.63281ZM7.04688 69.625V81H5.60156V69.625H7.04688ZM11.7734 75.5859L10.6172 75.2891L11.1875 69.625H17.0234V70.9609H12.4141L12.0703 74.0547C12.2786 73.9349 12.5417 73.8229 12.8594 73.7188C13.1823 73.6146 13.5521 73.5625 13.9688 73.5625C14.4948 73.5625 14.9661 73.6536 15.3828 73.8359C15.7995 74.013 16.1536 74.2682 16.4453 74.6016C16.7422 74.9349 16.9688 75.3359 17.125 75.8047C17.2812 76.2734 17.3594 76.7969 17.3594 77.375C17.3594 77.9219 17.2839 78.4245 17.1328 78.8828C16.987 79.3411 16.7656 79.7422 16.4688 80.0859C16.1719 80.4245 15.7969 80.6875 15.3438 80.875C14.8958 81.0625 14.3672 81.1562 13.7578 81.1562C13.2995 81.1562 12.8646 81.0938 12.4531 80.9688C12.0469 80.8385 11.6823 80.6432 11.3594 80.3828C11.0417 80.1172 10.7812 79.7891 10.5781 79.3984C10.3802 79.0026 10.2552 78.5391 10.2031 78.0078H11.5781C11.6406 78.4349 11.7656 78.7943 11.9531 79.0859C12.1406 79.3776 12.3854 79.599 12.6875 79.75C12.9948 79.8958 13.3516 79.9688 13.7578 79.9688C14.1016 79.9688 14.4062 79.9089 14.6719 79.7891C14.9375 79.6693 15.1615 79.4974 15.3438 79.2734C15.526 79.0495 15.6641 78.7786 15.7578 78.4609C15.8568 78.1432 15.9062 77.7865 15.9062 77.3906C15.9062 77.0312 15.8568 76.6979 15.7578 76.3906C15.6589 76.0833 15.5104 75.8151 15.3125 75.5859C15.1198 75.3568 14.8828 75.1797 14.6016 75.0547C14.3203 74.9245 13.9974 74.8594 13.6328 74.8594C13.1484 74.8594 12.7812 74.9245 12.5312 75.0547C12.2865 75.1849 12.0339 75.362 11.7734 75.5859ZM18.8203 72.4141V71.8125C18.8203 71.3802 18.9141 70.987 19.1016 70.6328C19.2891 70.2786 19.5573 69.9948 19.9062 69.7812C20.2552 69.5677 20.6693 69.4609 21.1484 69.4609C21.638 69.4609 22.0547 69.5677 22.3984 69.7812C22.7474 69.9948 23.0156 70.2786 23.2031 70.6328C23.3906 70.987 23.4844 71.3802 23.4844 71.8125V72.4141C23.4844 72.8359 23.3906 73.224 23.2031 73.5781C23.0208 73.9323 22.7552 74.2161 22.4062 74.4297C22.0625 74.6432 21.6484 74.75 21.1641 74.75C20.6797 74.75 20.2604 74.6432 19.9062 74.4297C19.5573 74.2161 19.2891 73.9323 19.1016 73.5781C18.9141 73.224 18.8203 72.8359 18.8203 72.4141ZM19.9062 71.8125V72.4141C19.9062 72.6536 19.9505 72.8802 20.0391 73.0938C20.1328 73.3073 20.2734 73.4818 20.4609 73.6172C20.6484 73.7474 20.8828 73.8125 21.1641 73.8125C21.4453 73.8125 21.6771 73.7474 21.8594 73.6172C22.0417 73.4818 22.1771 73.3073 22.2656 73.0938C22.3542 72.8802 22.3984 72.6536 22.3984 72.4141V71.8125C22.3984 71.5677 22.3516 71.3385 22.2578 71.125C22.1693 70.9062 22.0312 70.7318 21.8438 70.6016C21.6615 70.4661 21.4297 70.3984 21.1484 70.3984C20.8724 70.3984 20.6406 70.4661 20.4531 70.6016C20.2708 70.7318 20.1328 70.9062 20.0391 71.125C19.9505 71.3385 19.9062 71.5677 19.9062 71.8125ZM24.3594 78.8203V78.2109C24.3594 77.7839 24.4531 77.3932 24.6406 77.0391C24.8281 76.6849 25.0964 76.401 25.4453 76.1875C25.7943 75.974 26.2083 75.8672 26.6875 75.8672C27.1771 75.8672 27.5938 75.974 27.9375 76.1875C28.2865 76.401 28.5547 76.6849 28.7422 77.0391C28.9297 77.3932 29.0234 77.7839 29.0234 78.2109V78.8203C29.0234 79.2474 28.9297 79.638 28.7422 79.9922C28.5599 80.3464 28.2943 80.6302 27.9453 80.8438C27.6016 81.0573 27.1875 81.1641 26.7031 81.1641C26.2188 81.1641 25.8021 81.0573 25.4531 80.8438C25.1042 80.6302 24.8333 80.3464 24.6406 79.9922C24.4531 79.638 24.3594 79.2474 24.3594 78.8203ZM25.4453 78.2109V78.8203C25.4453 79.0599 25.4896 79.2891 25.5781 79.5078C25.6719 79.7214 25.8125 79.8958 26 80.0312C26.1875 80.1615 26.4219 80.2266 26.7031 80.2266C26.9844 80.2266 27.2161 80.1615 27.3984 80.0312C27.5859 79.8958 27.724 79.7214 27.8125 79.5078C27.901 79.2943 27.9453 79.0651 27.9453 78.8203V78.2109C27.9453 77.9661 27.8984 77.737 27.8047 77.5234C27.7161 77.3099 27.5781 77.138 27.3906 77.0078C27.2083 76.8724 26.974 76.8047 26.6875 76.8047C26.4115 76.8047 26.1797 76.8724 25.9922 77.0078C25.8099 77.138 25.6719 77.3099 25.5781 77.5234C25.4896 77.737 25.4453 77.9661 25.4453 78.2109ZM27.0469 71.2422L21.4922 80.1328L20.6797 79.6172L26.2344 70.7266L27.0469 71.2422Z" fill="white"/>
<path d="M98 93L60 93" stroke="#EECAFF"/>
<g filter="url(#filter3_i_61_12)">
<circle r="8" transform="matrix(1 0 0 -1 60 93)" fill="#BB89D2" fill-opacity="0.1"/>
</g>
<circle cx="60" cy="93" r="3.2" fill="#EECAFF"/>
<defs>
<filter id="filter0_i_61_12" x="280" y="16" width="16" height="16" filterUnits="userSpaceOnUse" color-interpolation-filters="sRGB">
<feFlood flood-opacity="0" result="BackgroundImageFix"/>
<feBlend mode="normal" in="SourceGraphic" in2="BackgroundImageFix" result="shape"/>
<feColorMatrix in="SourceAlpha" type="matrix" values="0 0 0 0 0 0 0 0 0 0 0 0 0 0 0 0 0 0 127 0" result="hardAlpha"/>
<feOffset/>
<feGaussianBlur stdDeviation="2.5"/>
<feComposite in2="hardAlpha" operator="arithmetic" k2="-1" k3="1"/>
<feColorMatrix type="matrix" values="0 0 0 0 0.733333 0 0 0 0 0.537255 0 0 0 0 0.823529 0 0 0 0.7 0"/>
<feBlend mode="normal" in2="shape" result="effect1_innerShadow_61_12"/>
</filter>
<filter id="filter1_i_61_12" x="284" y="178" width="16" height="16" filterUnits="userSpaceOnUse" color-interpolation-filters="sRGB">
<feFlood flood-opacity="0" result="BackgroundImageFix"/>
<feBlend mode="normal" in="SourceGraphic" in2="BackgroundImageFix" result="shape"/>
<feColorMatrix in="SourceAlpha" type="matrix" values="0 0 0 0 0 0 0 0 0 0 0 0 0 0 0 0 0 0 127 0" result="hardAlpha"/>
<feOffset/>
<feGaussianBlur stdDeviation="2.5"/>
<feComposite in2="hardAlpha" operator="arithmetic" k2="-1" k3="1"/>
<feColorMatrix type="matrix" values="0 0 0 0 0.733333 0 0 0 0 0.537255 0 0 0 0 0.823529 0 0 0 0.7 0"/>
<feBlend mode="normal" in2="shape" result="effect1_innerShadow_61_12"/>
</filter>
<filter id="filter2_i_61_12" x="309" y="85" width="16" height="16" filterUnits="userSpaceOnUse" color-interpolation-filters="sRGB">
<feFlood flood-opacity="0" result="BackgroundImageFix"/>
<feBlend mode="normal" in="SourceGraphic" in2="BackgroundImageFix" result="shape"/>
<feColorMatrix in="SourceAlpha" type="matrix" values="0 0 0 0 0 0 0 0 0 0 0 0 0 0 0 0 0 0 127 0" result="hardAlpha"/>
<feOffset/>
<feGaussianBlur stdDeviation="2.5"/>
<feComposite in2="hardAlpha" operator="arithmetic" k2="-1" k3="1"/>
<feColorMatrix type="matrix" values="0 0 0 0 0.733333 0 0 0 0 0.537255 0 0 0 0 0.823529 0 0 0 0.7 0"/>
<feBlend mode="normal" in2="shape" result="effect1_innerShadow_61_12"/>
</filter>
<filter id="filter3_i_61_12" x="52" y="85" width="16" height="16" filterUnits="userSpaceOnUse" color-interpolation-filters="sRGB">
<feFlood flood-opacity="0" result="BackgroundImageFix"/>
<feBlend mode="normal" in="SourceGraphic" in2="BackgroundImageFix" result="shape"/>
<feColorMatrix in="SourceAlpha" type="matrix" values="0 0 0 0 0 0 0 0 0 0 0 0 0 0 0 0 0 0 127 0" result="hardAlpha"/>
<feOffset/>
<feGaussianBlur stdDeviation="2.5"/>
<feComposite in2="hardAlpha" operator="arithmetic" k2="-1" k3="1"/>
<feColorMatrix type="matrix" values="0 0 0 0 0.733333 0 0 0 0 0.537255 0 0 0 0 0.823529 0 0 0 0.7 0"/>
<feBlend mode="normal" in2="shape" result="effect1_innerShadow_61_12"/>
</filter>
</defs>
</svg>
