<svg width="1127" height="220" viewBox="0 0 1127 220" fill="none" xmlns="http://www.w3.org/2000/svg">
<g filter="url(#filter0_d_1703_233)">
<path d="M70.128 131V72.744H112.984V79.08H76.728V98.616H109.112V105.04H76.728V124.664H112.984V131H70.128ZM122.259 131V87H128.859V93.864C130.443 91.752 132.379 89.9627 134.667 88.496C136.955 87.0293 139.888 86.296 143.467 86.296C146.518 86.296 149.363 87.0293 152.003 88.496C154.702 89.904 156.872 92.0453 158.515 94.92C160.216 97.736 161.067 101.227 161.067 105.392V131H154.467V105.568C154.467 101.579 153.323 98.3813 151.035 95.976C148.747 93.512 145.784 92.28 142.147 92.28C139.683 92.28 137.454 92.8373 135.459 93.952C133.464 95.0667 131.851 96.6507 130.619 98.704C129.446 100.699 128.859 103.016 128.859 105.656V131H122.259ZM175.824 131V92.808H166.848V87H175.824V71.248H182.424V87H192.544V92.808H182.424V131H175.824ZM218.451 131.704C213.993 131.704 210.091 130.707 206.747 128.712C203.403 126.659 200.793 123.901 198.915 120.44C197.097 116.979 196.187 113.165 196.187 109C196.187 104.776 197.067 100.963 198.827 97.56C200.587 94.0987 203.11 91.3707 206.395 89.376C209.681 87.3227 213.553 86.296 218.011 86.296C222.529 86.296 226.401 87.3227 229.627 89.376C232.913 91.3707 235.435 94.0987 237.195 97.56C238.955 100.963 239.835 104.776 239.835 109V111.64H202.963C203.315 114.221 204.137 116.597 205.427 118.768C206.777 120.88 208.566 122.581 210.795 123.872C213.025 125.104 215.606 125.72 218.539 125.72C221.649 125.72 224.259 125.045 226.371 123.696C228.483 122.288 230.126 120.499 231.299 118.328H238.515C236.99 122.259 234.555 125.485 231.211 128.008C227.926 130.472 223.673 131.704 218.451 131.704ZM203.051 105.48H232.971C232.385 101.725 230.801 98.5867 228.219 96.064C225.638 93.5413 222.235 92.28 218.011 92.28C213.787 92.28 210.385 93.5413 207.803 96.064C205.281 98.5867 203.697 101.725 203.051 105.48ZM247.9 131V87H254.5V97.824C254.734 97.0613 255.174 96.064 255.82 94.832C256.524 93.5413 257.521 92.2507 258.812 90.96C260.102 89.6693 261.716 88.584 263.652 87.704C265.646 86.7653 267.993 86.296 270.692 86.296H271.132V92.896H270.34C267.054 92.896 264.209 93.8053 261.804 95.624C259.457 97.384 257.638 99.7013 256.348 102.576C255.116 105.392 254.5 108.413 254.5 111.64V131H247.9ZM324.25 131.704C319.85 131.704 315.831 130.941 312.194 129.416C308.557 127.891 305.418 125.749 302.778 122.992C300.197 120.235 298.202 117.067 296.794 113.488C295.386 109.851 294.682 105.979 294.682 101.872C294.682 97.7067 295.386 93.8347 296.794 90.256C298.202 86.6773 300.197 83.5093 302.778 80.752C305.418 77.9947 308.557 75.8533 312.194 74.328C315.831 72.8027 319.85 72.04 324.25 72.04C328.65 72.04 332.669 72.8027 336.306 74.328C339.943 75.8533 343.053 77.9947 345.634 80.752C348.274 83.5093 350.298 86.6773 351.706 90.256C353.114 93.8347 353.818 97.7067 353.818 101.872C353.818 105.979 353.114 109.851 351.706 113.488C350.298 117.067 348.274 120.235 345.634 122.992C343.053 125.749 339.943 127.891 336.306 129.416C332.669 130.941 328.65 131.704 324.25 131.704ZM324.25 125.28C329.002 125.28 333.079 124.253 336.482 122.2C339.943 120.088 342.583 117.272 344.402 113.752C346.279 110.173 347.218 106.213 347.218 101.872C347.218 97.472 346.279 93.512 344.402 89.992C342.583 86.472 339.943 83.6853 336.482 81.632C333.079 79.52 329.002 78.464 324.25 78.464C319.557 78.464 315.479 79.52 312.018 81.632C308.557 83.6853 305.887 86.472 304.01 89.992C302.191 93.512 301.282 97.472 301.282 101.872C301.282 106.213 302.191 110.173 304.01 113.752C305.887 117.272 308.557 120.088 312.018 122.2C315.479 124.253 319.557 125.28 324.25 125.28ZM362.97 131V87H369.57V97.824C369.805 97.0613 370.245 96.064 370.89 94.832C371.594 93.5413 372.591 92.2507 373.882 90.96C375.173 89.6693 376.786 88.584 378.722 87.704C380.717 86.7653 383.063 86.296 385.762 86.296H386.202V92.896H385.41C382.125 92.896 379.279 93.8053 376.874 95.624C374.527 97.384 372.709 99.7013 371.418 102.576C370.186 105.392 369.57 108.413 369.57 111.64V131H362.97ZM412.341 149.128C406.826 149.128 402.338 147.925 398.877 145.52C395.415 143.173 393.069 140.093 391.837 136.28H399.141C400.021 138.451 401.546 140.123 403.717 141.296C405.887 142.528 408.645 143.144 411.989 143.144C417.034 143.144 420.701 141.941 422.989 139.536C425.335 137.189 426.509 133.757 426.509 129.24V123.168C424.866 125.515 422.725 127.421 420.085 128.888C417.503 130.296 414.394 131 410.757 131C406.474 131 402.719 130.032 399.493 128.096C396.325 126.101 393.861 123.403 392.101 120C390.341 116.597 389.461 112.813 389.461 108.648C389.461 104.424 390.341 100.64 392.101 97.296C393.861 93.8933 396.325 91.224 399.493 89.288C402.719 87.2933 406.474 86.296 410.757 86.296C414.394 86.296 417.503 87 420.085 88.408C422.725 89.7573 424.866 91.6347 426.509 94.04V87H433.109V129.68C433.109 135.957 431.29 140.768 427.653 144.112C424.074 147.456 418.97 149.128 412.341 149.128ZM411.637 125.016C414.863 125.016 417.591 124.283 419.821 122.816C422.109 121.349 423.839 119.384 425.013 116.92C426.245 114.397 426.861 111.64 426.861 108.648C426.861 105.597 426.245 102.84 425.013 100.376C423.839 97.912 422.109 95.9467 419.821 94.48C417.591 93.0133 414.863 92.28 411.637 92.28C408.41 92.28 405.623 93.0133 403.277 94.48C400.93 95.9467 399.141 97.912 397.909 100.376C396.677 102.84 396.061 105.597 396.061 108.648C396.061 111.64 396.677 114.397 397.909 116.92C399.141 119.384 400.93 121.349 403.277 122.816C405.623 124.283 408.41 125.016 411.637 125.016ZM463.093 131.704C458.81 131.704 455.055 130.707 451.829 128.712C448.661 126.659 446.197 123.901 444.437 120.44C442.677 116.979 441.797 113.165 441.797 109C441.797 104.776 442.677 100.963 444.437 97.56C446.197 94.0987 448.661 91.3707 451.829 89.376C455.055 87.3227 458.81 86.296 463.093 86.296C466.73 86.296 469.839 87 472.421 88.408C475.061 89.816 477.202 91.7227 478.845 94.128V87H485.445V131H478.845V123.96C477.202 126.307 475.061 128.184 472.421 129.592C469.839 131 466.73 131.704 463.093 131.704ZM463.973 125.72C467.258 125.72 470.015 124.957 472.245 123.432C474.533 121.907 476.263 119.883 477.437 117.36C478.61 114.779 479.197 111.992 479.197 109C479.197 105.949 478.61 103.163 477.437 100.64C476.263 98.1173 474.533 96.0933 472.245 94.568C470.015 93.0427 467.258 92.28 463.973 92.28C460.746 92.28 457.959 93.0427 455.613 94.568C453.266 96.0933 451.477 98.1173 450.245 100.64C449.013 103.163 448.397 105.949 448.397 109C448.397 111.992 449.013 114.779 450.245 117.36C451.477 119.883 453.266 121.907 455.613 123.432C457.959 124.957 460.746 125.72 463.973 125.72ZM496.861 131V87H503.461V93.864C505.045 91.752 506.981 89.9627 509.269 88.496C511.557 87.0293 514.49 86.296 518.069 86.296C521.119 86.296 523.965 87.0293 526.605 88.496C529.303 89.904 531.474 92.0453 533.117 94.92C534.818 97.736 535.669 101.227 535.669 105.392V131H529.069V105.568C529.069 101.579 527.925 98.3813 525.637 95.976C523.349 93.512 520.386 92.28 516.749 92.28C514.285 92.28 512.055 92.8373 510.061 93.952C508.066 95.0667 506.453 96.6507 505.221 98.704C504.047 100.699 503.461 103.016 503.461 105.656V131H496.861ZM546.44 79.608V70.984H553.568V79.608H546.44ZM546.704 131V87H553.304V131H546.704ZM561.759 131V124.752L588.071 93.072H562.111V87H596.431V93.16L570.031 124.84H596.431V131H561.759ZM623.624 131.704C619.341 131.704 615.587 130.707 612.36 128.712C609.192 126.659 606.728 123.901 604.968 120.44C603.208 116.979 602.328 113.165 602.328 109C602.328 104.776 603.208 100.963 604.968 97.56C606.728 94.0987 609.192 91.3707 612.36 89.376C615.587 87.3227 619.341 86.296 623.624 86.296C627.261 86.296 630.371 87 632.952 88.408C635.592 89.816 637.733 91.7227 639.376 94.128V87H645.976V131H639.376V123.96C637.733 126.307 635.592 128.184 632.952 129.592C630.371 131 627.261 131.704 623.624 131.704ZM624.504 125.72C627.789 125.72 630.547 124.957 632.776 123.432C635.064 121.907 636.795 119.883 637.968 117.36C639.141 114.779 639.728 111.992 639.728 109C639.728 105.949 639.141 103.163 637.968 100.64C636.795 98.1173 635.064 96.0933 632.776 94.568C630.547 93.0427 627.789 92.28 624.504 92.28C621.277 92.28 618.491 93.0427 616.144 94.568C613.797 96.0933 612.008 98.1173 610.776 100.64C609.544 103.163 608.928 105.949 608.928 109C608.928 111.992 609.544 114.779 610.776 117.36C612.008 119.883 613.797 121.907 616.144 123.432C618.491 124.957 621.277 125.72 624.504 125.72ZM662.144 131V92.808H653.168V87H662.144V71.248H668.744V87H678.864V92.808H668.744V131H662.144ZM685.831 79.608V70.984H692.959V79.608H685.831ZM686.095 131V87H692.695V131H686.095ZM723.238 131.704C718.779 131.704 714.907 130.707 711.622 128.712C708.337 126.659 705.814 123.901 704.054 120.44C702.294 116.979 701.414 113.165 701.414 109C701.414 104.776 702.294 100.963 704.054 97.56C705.814 94.0987 708.337 91.3707 711.622 89.376C714.907 87.3227 718.779 86.296 723.238 86.296C727.755 86.296 731.627 87.3227 734.854 89.376C738.139 91.3707 740.662 94.0987 742.422 97.56C744.182 100.963 745.062 104.776 745.062 109C745.062 113.165 744.182 116.979 742.422 120.44C740.662 123.901 738.139 126.659 734.854 128.712C731.627 130.707 727.755 131.704 723.238 131.704ZM723.238 125.72C726.523 125.72 729.281 124.957 731.51 123.432C733.798 121.907 735.529 119.883 736.702 117.36C737.875 114.779 738.462 111.992 738.462 109C738.462 105.949 737.875 103.163 736.702 100.64C735.529 98.1173 733.798 96.0933 731.51 94.568C729.281 93.0427 726.523 92.28 723.238 92.28C720.011 92.28 717.254 93.0427 714.966 94.568C712.678 96.0933 710.947 98.1173 709.774 100.64C708.601 103.163 708.014 105.949 708.014 109C708.014 111.992 708.601 114.779 709.774 117.36C710.947 119.883 712.678 121.907 714.966 123.432C717.254 124.957 720.011 125.72 723.238 125.72ZM753.814 131V87H760.414V93.864C761.998 91.752 763.934 89.9627 766.222 88.496C768.51 87.0293 771.443 86.296 775.022 86.296C778.072 86.296 780.918 87.0293 783.558 88.496C786.256 89.904 788.427 92.0453 790.07 94.92C791.771 97.736 792.622 101.227 792.622 105.392V131H786.022V105.568C786.022 101.579 784.878 98.3813 782.59 95.976C780.302 93.512 777.339 92.28 773.702 92.28C771.238 92.28 769.008 92.8373 767.014 93.952C765.019 95.0667 763.406 96.6507 762.174 98.704C761 100.699 760.414 103.016 760.414 105.656V131H753.814ZM823.8 131V72.744H831.456L867.448 121.76V72.744H874.048V131H866.392L830.4 81.808V131H823.8ZM905.499 131.704C901.216 131.704 897.462 130.707 894.235 128.712C891.067 126.659 888.603 123.901 886.843 120.44C885.083 116.979 884.203 113.165 884.203 109C884.203 104.776 885.083 100.963 886.843 97.56C888.603 94.0987 891.067 91.3707 894.235 89.376C897.462 87.3227 901.216 86.296 905.499 86.296C909.136 86.296 912.246 87 914.827 88.408C917.467 89.816 919.608 91.7227 921.251 94.128V87H927.851V131H921.251V123.96C919.608 126.307 917.467 128.184 914.827 129.592C912.246 131 909.136 131.704 905.499 131.704ZM906.379 125.72C909.664 125.72 912.422 124.957 914.651 123.432C916.939 121.907 918.67 119.883 919.843 117.36C921.016 114.779 921.603 111.992 921.603 109C921.603 105.949 921.016 103.163 919.843 100.64C918.67 98.1173 916.939 96.0933 914.651 94.568C912.422 93.0427 909.664 92.28 906.379 92.28C903.152 92.28 900.366 93.0427 898.019 94.568C895.672 96.0933 893.883 98.1173 892.651 100.64C891.419 103.163 890.803 105.949 890.803 109C890.803 111.992 891.419 114.779 892.651 117.36C893.883 119.883 895.672 121.907 898.019 123.432C900.366 124.957 903.152 125.72 906.379 125.72ZM939.267 131V87H945.867V93.688C946.864 91.928 948.448 90.256 950.619 88.672C952.79 87.088 955.664 86.296 959.243 86.296C962.176 86.296 964.875 87.088 967.339 88.672C969.862 90.1973 971.827 92.368 973.235 95.184C973.822 94.1867 974.731 92.984 975.963 91.576C977.254 90.168 978.926 88.936 980.979 87.88C983.032 86.824 985.496 86.296 988.371 86.296C991.187 86.296 993.827 87.0293 996.291 88.496C998.755 89.9627 1000.75 92.0747 1002.27 94.832C1003.86 97.5307 1004.65 100.728 1004.65 104.424V131H998.051V104.6C998.051 100.904 996.995 97.9413 994.883 95.712C992.83 93.424 990.248 92.28 987.139 92.28C983.912 92.28 981.126 93.3653 978.779 95.536C976.432 97.7067 975.259 100.757 975.259 104.688V131H968.659V104.6C968.659 100.904 967.603 97.9413 965.491 95.712C963.438 93.424 960.856 92.28 957.747 92.28C954.52 92.28 951.734 93.3653 949.387 95.536C947.04 97.7067 945.867 100.757 945.867 104.688V131H939.267ZM1035.2 131.704C1030.74 131.704 1026.84 130.707 1023.5 128.712C1020.15 126.659 1017.54 123.901 1015.67 120.44C1013.85 116.979 1012.94 113.165 1012.94 109C1012.94 104.776 1013.82 100.963 1015.58 97.56C1017.34 94.0987 1019.86 91.3707 1023.15 89.376C1026.43 87.3227 1030.3 86.296 1034.76 86.296C1039.28 86.296 1043.15 87.3227 1046.38 89.376C1049.66 91.3707 1052.19 94.0987 1053.95 97.56C1055.71 100.963 1056.59 104.776 1056.59 109V111.64H1019.71C1020.07 114.221 1020.89 116.597 1022.18 118.768C1023.53 120.88 1025.32 122.581 1027.55 123.872C1029.77 125.104 1032.36 125.72 1035.29 125.72C1038.4 125.72 1041.01 125.045 1043.12 123.696C1045.23 122.288 1046.88 120.499 1048.05 118.328H1055.27C1053.74 122.259 1051.31 125.485 1047.96 128.008C1044.68 130.472 1040.42 131.704 1035.2 131.704ZM1019.8 105.48H1049.72C1049.13 101.725 1047.55 98.5867 1044.97 96.064C1042.39 93.5413 1038.99 92.28 1034.76 92.28C1030.54 92.28 1027.13 93.5413 1024.55 96.064C1022.03 98.5867 1020.45 101.725 1019.8 105.48Z" fill="white"/>
</g>
<defs>
<filter id="filter0_d_1703_233" x="0.127991" y="0.983887" width="1126.46" height="218.144" filterUnits="userSpaceOnUse" color-interpolation-filters="sRGB">
<feFlood flood-opacity="0" result="BackgroundImageFix"/>
<feColorMatrix in="SourceAlpha" type="matrix" values="0 0 0 0 0 0 0 0 0 0 0 0 0 0 0 0 0 0 127 0" result="hardAlpha"/>
<feOffset/>
<feGaussianBlur stdDeviation="35"/>
<feComposite in2="hardAlpha" operator="out"/>
<feColorMatrix type="matrix" values="0 0 0 0 0.658824 0 0 0 0 0.466667 0 0 0 0 0.784314 0 0 0 0.8 0"/>
<feBlend mode="normal" in2="BackgroundImageFix" result="effect1_dropShadow_1703_233"/>
<feBlend mode="normal" in="SourceGraphic" in2="effect1_dropShadow_1703_233" result="shape"/>
</filter>
</defs>
</svg>
