<svg width="408" height="408" viewBox="0 0 408 408" fill="none" xmlns="http://www.w3.org/2000/svg">
<g opacity="0.5">
<g opacity="0.8" filter="url(#filter0_f_3482_11177)">
<circle cx="204" cy="204" r="100" fill="url(#paint0_linear_3482_11177)"/>
<circle cx="204" cy="204" r="102" stroke="url(#paint1_linear_3482_11177)" stroke-width="4"/>
</g>
<g opacity="0.5" filter="url(#filter1_f_3482_11177)">
<circle cx="204" cy="204" r="100" fill="url(#paint2_linear_3482_11177)"/>
<circle cx="204" cy="204" r="102" stroke="url(#paint3_linear_3482_11177)" stroke-width="4"/>
</g>
</g>
<path d="M304 204C304 259.228 259.228 304 204 304C148.772 304 104 259.228 104 204C104 148.772 148.772 104 204 104C259.228 104 304 148.772 304 204Z" fill="url(#paint4_linear_3482_11177)" fill-opacity="0.3"/>
<path fill-rule="evenodd" clip-rule="evenodd" d="M308 204C308 261.438 261.438 308 204 308C146.562 308 100 261.438 100 204C100 146.562 146.562 100 204 100C261.438 100 308 146.562 308 204ZM204 304C259.228 304 304 259.228 304 204C304 148.772 259.228 104 204 104C148.772 104 104 148.772 104 204C104 259.228 148.772 304 204 304Z" fill="url(#paint5_linear_3482_11177)"/>
<defs>
<filter id="filter0_f_3482_11177" x="0" y="0" width="408" height="408" filterUnits="userSpaceOnUse" color-interpolation-filters="sRGB">
<feFlood flood-opacity="0" result="BackgroundImageFix"/>
<feBlend mode="normal" in="SourceGraphic" in2="BackgroundImageFix" result="shape"/>
<feGaussianBlur stdDeviation="50" result="effect1_foregroundBlur_3482_11177"/>
</filter>
<filter id="filter1_f_3482_11177" x="50" y="50" width="308" height="308" filterUnits="userSpaceOnUse" color-interpolation-filters="sRGB">
<feFlood flood-opacity="0" result="BackgroundImageFix"/>
<feBlend mode="normal" in="SourceGraphic" in2="BackgroundImageFix" result="shape"/>
<feGaussianBlur stdDeviation="25" result="effect1_foregroundBlur_3482_11177"/>
</filter>
<linearGradient id="paint0_linear_3482_11177" x1="104" y1="110.4" x2="304" y2="297" gradientUnits="userSpaceOnUse">
<stop stop-color="#9FFF1D"/>
<stop offset="1" stop-color="#B929FF"/>
</linearGradient>
<linearGradient id="paint1_linear_3482_11177" x1="104" y1="110.4" x2="304" y2="297" gradientUnits="userSpaceOnUse">
<stop stop-color="#9FFF1D"/>
<stop offset="1" stop-color="#B929FF"/>
</linearGradient>
<linearGradient id="paint2_linear_3482_11177" x1="104" y1="110.4" x2="304" y2="297" gradientUnits="userSpaceOnUse">
<stop stop-color="#9FFF1D"/>
<stop offset="1" stop-color="#B929FF"/>
</linearGradient>
<linearGradient id="paint3_linear_3482_11177" x1="104" y1="110.4" x2="304" y2="297" gradientUnits="userSpaceOnUse">
<stop stop-color="#9FFF1D"/>
<stop offset="1" stop-color="#B929FF"/>
</linearGradient>
<linearGradient id="paint4_linear_3482_11177" x1="104" y1="110.4" x2="304" y2="297" gradientUnits="userSpaceOnUse">
<stop stop-color="#9FFF1D"/>
<stop offset="1" stop-color="#B929FF"/>
</linearGradient>
<linearGradient id="paint5_linear_3482_11177" x1="128.5" y1="128.5" x2="281" y2="281" gradientUnits="userSpaceOnUse">
<stop stop-color="white"/>
<stop offset="1" stop-color="white" stop-opacity="0"/>
</linearGradient>
</defs>
</svg>
