<svg width="576" height="124" viewBox="0 0 576 124" fill="none" xmlns="http://www.w3.org/2000/svg">
<path d="M4.375 45.1392C3.62595 45.1392 2.98793 44.9354 2.46094 44.5277C1.93395 44.1167 1.53125 43.5218 1.25284 42.7429C0.974432 41.9607 0.835227 41.0161 0.835227 39.9091C0.835227 38.8087 0.974432 37.8691 1.25284 37.0902C1.53456 36.308 1.93892 35.7114 2.46591 35.3004C2.99621 34.8861 3.63258 34.679 4.375 34.679C5.11742 34.679 5.75213 34.8861 6.27912 35.3004C6.80942 35.7114 7.21378 36.308 7.49219 37.0902C7.77391 37.8691 7.91477 38.8087 7.91477 39.9091C7.91477 41.0161 7.77557 41.9607 7.49716 42.7429C7.21875 43.5218 6.81605 44.1167 6.28906 44.5277C5.76207 44.9354 5.12405 45.1392 4.375 45.1392ZM4.375 44.0455C5.11742 44.0455 5.69413 43.6875 6.10511 42.9716C6.5161 42.2557 6.72159 41.2348 6.72159 39.9091C6.72159 39.0275 6.62713 38.2768 6.43821 37.657C6.2526 37.0372 5.98414 36.5649 5.63281 36.2401C5.2848 35.9152 4.86553 35.7528 4.375 35.7528C3.6392 35.7528 3.06416 36.1158 2.64986 36.8416C2.23556 37.5642 2.02841 38.5866 2.02841 39.9091C2.02841 40.7907 2.12121 41.5398 2.30682 42.1562C2.49242 42.7727 2.75923 43.2417 3.10724 43.5632C3.45857 43.8847 3.88116 44.0455 4.375 44.0455ZM13.1847 45.1392C12.767 45.1326 12.3494 45.053 11.9318 44.9006C11.5142 44.7481 11.133 44.4912 10.7884 44.13C10.4437 43.7654 10.1669 43.2732 9.9581 42.6534C9.74929 42.0303 9.64489 41.2481 9.64489 40.3068C9.64489 39.4053 9.7294 38.6065 9.89844 37.9105C10.0675 37.2112 10.3127 36.6229 10.6342 36.1456C10.9557 35.665 11.3435 35.3004 11.7976 35.0518C12.255 34.8033 12.7704 34.679 13.3438 34.679C13.9138 34.679 14.4209 34.7933 14.8651 35.022C15.3125 35.2474 15.6771 35.5623 15.9588 35.9666C16.2405 36.371 16.4228 36.8366 16.5057 37.3636H15.2926C15.1799 36.9062 14.9612 36.5268 14.6364 36.2251C14.3116 35.9235 13.8807 35.7727 13.3438 35.7727C12.5549 35.7727 11.9335 36.1158 11.4794 36.8018C11.0286 37.4879 10.8016 38.4508 10.7983 39.6903H10.8778C11.0634 39.4086 11.2839 39.1683 11.5391 38.9695C11.7976 38.7673 12.0826 38.6115 12.3942 38.5021C12.7057 38.3928 13.0355 38.3381 13.3835 38.3381C13.9669 38.3381 14.5005 38.4839 14.9844 38.7756C15.4683 39.0639 15.8561 39.4633 16.1477 39.9737C16.4394 40.4808 16.5852 41.0625 16.5852 41.7188C16.5852 42.3485 16.4444 42.9252 16.1626 43.4489C15.8809 43.9692 15.4848 44.3835 14.9744 44.6918C14.4673 44.9967 13.8707 45.1458 13.1847 45.1392ZM13.1847 44.0455C13.6023 44.0455 13.9768 43.9411 14.3082 43.7322C14.643 43.5234 14.9065 43.2434 15.0987 42.892C15.2943 42.5407 15.392 42.1496 15.392 41.7188C15.392 41.2978 15.2976 40.915 15.1087 40.5703C14.9231 40.2223 14.6662 39.9455 14.3381 39.7401C14.0133 39.5346 13.642 39.4318 13.2244 39.4318C12.9096 39.4318 12.6162 39.4948 12.3445 39.6207C12.0727 39.7434 11.834 39.9124 11.6286 40.1278C11.4264 40.3433 11.2673 40.5902 11.1513 40.8686C11.0353 41.1437 10.9773 41.4337 10.9773 41.7386C10.9773 42.143 11.0717 42.5208 11.2607 42.8722C11.4529 43.2235 11.7147 43.5069 12.0462 43.7223C12.3809 43.9377 12.7604 44.0455 13.1847 44.0455ZM22.1596 34.3409L18.8784 46.5312H17.8045L21.0858 34.3409H22.1596ZM26.8516 45.1392C26.1025 45.1392 25.4645 44.9354 24.9375 44.5277C24.4105 44.1167 24.0078 43.5218 23.7294 42.7429C23.451 41.9607 23.3118 41.0161 23.3118 39.9091C23.3118 38.8087 23.451 37.8691 23.7294 37.0902C24.0111 36.308 24.4155 35.7114 24.9425 35.3004C25.4728 34.8861 26.1091 34.679 26.8516 34.679C27.594 34.679 28.2287 34.8861 28.7557 35.3004C29.286 35.7114 29.6903 36.308 29.9688 37.0902C30.2505 37.8691 30.3913 38.8087 30.3913 39.9091C30.3913 41.0161 30.2521 41.9607 29.9737 42.7429C29.6953 43.5218 29.2926 44.1167 28.7656 44.5277C28.2386 44.9354 27.6006 45.1392 26.8516 45.1392ZM26.8516 44.0455C27.594 44.0455 28.1707 43.6875 28.5817 42.9716C28.9927 42.2557 29.1982 41.2348 29.1982 39.9091C29.1982 39.0275 29.1037 38.2768 28.9148 37.657C28.7292 37.0372 28.4607 36.5649 28.1094 36.2401C27.7614 35.9152 27.3421 35.7528 26.8516 35.7528C26.1158 35.7528 25.5407 36.1158 25.1264 36.8416C24.7121 37.5642 24.505 38.5866 24.505 39.9091C24.505 40.7907 24.5978 41.5398 24.7834 42.1562C24.969 42.7727 25.2358 43.2417 25.5838 43.5632C25.9351 43.8847 26.3577 44.0455 26.8516 44.0455ZM35.8601 34.8182V45H34.6271V36.1108H34.5675L32.0817 37.7614V36.5085L34.6271 34.8182H35.8601ZM42.4077 34.3409L39.1264 46.5312H38.0526L41.3338 34.3409H42.4077ZM43.7786 45V44.1051L47.1394 40.4261C47.5338 39.9953 47.8586 39.6207 48.1138 39.3026C48.369 38.9811 48.5579 38.6795 48.6806 38.3977C48.8065 38.1127 48.8695 37.8144 48.8695 37.5028C48.8695 37.1449 48.7833 36.835 48.611 36.5732C48.4419 36.3113 48.2099 36.1091 47.915 35.9666C47.62 35.8241 47.2885 35.7528 46.9206 35.7528C46.5295 35.7528 46.1882 35.834 45.8965 35.9964C45.6081 36.1555 45.3844 36.3793 45.2253 36.6676C45.0695 36.956 44.9917 37.294 44.9917 37.6818H43.8184C43.8184 37.0852 43.9559 36.5616 44.231 36.1108C44.5061 35.66 44.8806 35.3087 45.3546 35.0568C45.8319 34.8049 46.3671 34.679 46.9604 34.679C47.557 34.679 48.0856 34.8049 48.5463 35.0568C49.007 35.3087 49.3683 35.6484 49.6301 36.076C49.892 36.5036 50.0229 36.9792 50.0229 37.5028C50.0229 37.8774 49.955 38.2436 49.8191 38.6016C49.6865 38.9562 49.4545 39.3523 49.123 39.7898C48.7949 40.224 48.3392 40.7543 47.7559 41.3807L45.4689 43.8267V43.9062H50.2019V45H43.7786ZM55.5762 45.1392C54.8271 45.1392 54.1891 44.9354 53.6621 44.5277C53.1351 44.1167 52.7324 43.5218 52.454 42.7429C52.1756 41.9607 52.0364 41.0161 52.0364 39.9091C52.0364 38.8087 52.1756 37.8691 52.454 37.0902C52.7357 36.308 53.1401 35.7114 53.6671 35.3004C54.1974 34.8861 54.8337 34.679 55.5762 34.679C56.3186 34.679 56.9533 34.8861 57.4803 35.3004C58.0106 35.7114 58.415 36.308 58.6934 37.0902C58.9751 37.8691 59.1159 38.8087 59.1159 39.9091C59.1159 41.0161 58.9767 41.9607 58.6983 42.7429C58.4199 43.5218 58.0172 44.1167 57.4902 44.5277C56.9632 44.9354 56.3252 45.1392 55.5762 45.1392ZM55.5762 44.0455C56.3186 44.0455 56.8953 43.6875 57.3063 42.9716C57.7173 42.2557 57.9228 41.2348 57.9228 39.9091C57.9228 39.0275 57.8283 38.2768 57.6394 37.657C57.4538 37.0372 57.1853 36.5649 56.834 36.2401C56.486 35.9152 56.0667 35.7528 55.5762 35.7528C54.8404 35.7528 54.2653 36.1158 53.851 36.8416C53.4367 37.5642 53.2296 38.5866 53.2296 39.9091C53.2296 40.7907 53.3224 41.5398 53.508 42.1562C53.6936 42.7727 53.9604 43.2417 54.3084 43.5632C54.6597 43.8847 55.0823 44.0455 55.5762 44.0455ZM61.0051 45V44.1051L64.3659 40.4261C64.7604 39.9953 65.0852 39.6207 65.3404 39.3026C65.5956 38.9811 65.7845 38.6795 65.9071 38.3977C66.0331 38.1127 66.0961 37.8144 66.0961 37.5028C66.0961 37.1449 66.0099 36.835 65.8375 36.5732C65.6685 36.3113 65.4365 36.1091 65.1415 35.9666C64.8465 35.8241 64.5151 35.7528 64.1472 35.7528C63.7561 35.7528 63.4147 35.834 63.123 35.9964C62.8347 36.1555 62.611 36.3793 62.4519 36.6676C62.2961 36.956 62.2182 37.294 62.2182 37.6818H61.0449C61.0449 37.0852 61.1825 36.5616 61.4576 36.1108C61.7327 35.66 62.1072 35.3087 62.5811 35.0568C63.0584 34.8049 63.5937 34.679 64.187 34.679C64.7836 34.679 65.3122 34.8049 65.7729 35.0568C66.2336 35.3087 66.5949 35.6484 66.8567 36.076C67.1185 36.5036 67.2495 36.9792 67.2495 37.5028C67.2495 37.8774 67.1815 38.2436 67.0456 38.6016C66.9131 38.9562 66.681 39.3523 66.3496 39.7898C66.0215 40.224 65.5658 40.7543 64.9824 41.3807L62.6955 43.8267V43.9062H67.4284V45H61.0051ZM73.0613 34.8182V45H71.8283V36.1108H71.7686L69.2828 37.7614V36.5085L71.8283 34.8182H73.0613Z" fill="white"/>
<path opacity="0.6" d="M3.75 80.1193C3.10795 80.1193 2.56108 79.9446 2.10938 79.5952C1.65767 79.2429 1.3125 78.733 1.07386 78.0653C0.835227 77.3949 0.715909 76.5852 0.715909 75.6364C0.715909 74.6932 0.835227 73.8878 1.07386 73.2202C1.31534 72.5497 1.66193 72.0384 2.11364 71.6861C2.56818 71.331 3.11364 71.1534 3.75 71.1534C4.38636 71.1534 4.9304 71.331 5.3821 71.6861C5.83665 72.0384 6.18324 72.5497 6.42188 73.2202C6.66335 73.8878 6.78409 74.6932 6.78409 75.6364C6.78409 76.5852 6.66477 77.3949 6.42614 78.0653C6.1875 78.733 5.84233 79.2429 5.39062 79.5952C4.93892 79.9446 4.39205 80.1193 3.75 80.1193ZM3.75 79.1818C4.38636 79.1818 4.88068 78.875 5.23295 78.2614C5.58523 77.6477 5.76136 76.7727 5.76136 75.6364C5.76136 74.8807 5.6804 74.2372 5.51847 73.706C5.35938 73.1747 5.12926 72.7699 4.82812 72.4915C4.52983 72.2131 4.17045 72.0739 3.75 72.0739C3.11932 72.0739 2.62642 72.3849 2.27131 73.0071C1.91619 73.6264 1.73864 74.5028 1.73864 75.6364C1.73864 76.392 1.81818 77.0341 1.97727 77.5625C2.13636 78.0909 2.36506 78.4929 2.66335 78.7685C2.96449 79.044 3.3267 79.1818 3.75 79.1818ZM11.25 80.1193C10.608 80.1193 10.0611 79.9446 9.60938 79.5952C9.15767 79.2429 8.8125 78.733 8.57386 78.0653C8.33523 77.3949 8.21591 76.5852 8.21591 75.6364C8.21591 74.6932 8.33523 73.8878 8.57386 73.2202C8.81534 72.5497 9.16193 72.0384 9.61364 71.6861C10.0682 71.331 10.6136 71.1534 11.25 71.1534C11.8864 71.1534 12.4304 71.331 12.8821 71.6861C13.3366 72.0384 13.6832 72.5497 13.9219 73.2202C14.1634 73.8878 14.2841 74.6932 14.2841 75.6364C14.2841 76.5852 14.1648 77.3949 13.9261 78.0653C13.6875 78.733 13.3423 79.2429 12.8906 79.5952C12.4389 79.9446 11.892 80.1193 11.25 80.1193ZM11.25 79.1818C11.8864 79.1818 12.3807 78.875 12.733 78.2614C13.0852 77.6477 13.2614 76.7727 13.2614 75.6364C13.2614 74.8807 13.1804 74.2372 13.0185 73.706C12.8594 73.1747 12.6293 72.7699 12.3281 72.4915C12.0298 72.2131 11.6705 72.0739 11.25 72.0739C10.6193 72.0739 10.1264 72.3849 9.77131 73.0071C9.41619 73.6264 9.23864 74.5028 9.23864 75.6364C9.23864 76.392 9.31818 77.0341 9.47727 77.5625C9.63636 78.0909 9.86506 78.4929 10.1634 78.7685C10.4645 79.044 10.8267 79.1818 11.25 79.1818ZM16.6534 78.8835C16.4432 78.8835 16.2628 78.8082 16.1122 78.6577C15.9616 78.5071 15.8864 78.3267 15.8864 78.1165C15.8864 77.9062 15.9616 77.7259 16.1122 77.5753C16.2628 77.4247 16.4432 77.3494 16.6534 77.3494C16.8636 77.3494 17.044 77.4247 17.1946 77.5753C17.3452 77.7259 17.4205 77.9062 17.4205 78.1165C17.4205 78.2557 17.3849 78.3835 17.3139 78.5C17.2457 78.6165 17.1534 78.7102 17.0369 78.7812C16.9233 78.8494 16.7955 78.8835 16.6534 78.8835ZM16.6534 74.4688C16.4432 74.4688 16.2628 74.3935 16.1122 74.2429C15.9616 74.0923 15.8864 73.9119 15.8864 73.7017C15.8864 73.4915 15.9616 73.3111 16.1122 73.1605C16.2628 73.0099 16.4432 72.9347 16.6534 72.9347C16.8636 72.9347 17.044 73.0099 17.1946 73.1605C17.3452 73.3111 17.4205 73.4915 17.4205 73.7017C17.4205 73.8409 17.3849 73.9688 17.3139 74.0852C17.2457 74.2017 17.1534 74.2955 17.0369 74.3665C16.9233 74.4347 16.7955 74.4688 16.6534 74.4688ZM22.0547 80.1193C21.4126 80.1193 20.8658 79.9446 20.4141 79.5952C19.9624 79.2429 19.6172 78.733 19.3786 78.0653C19.1399 77.3949 19.0206 76.5852 19.0206 75.6364C19.0206 74.6932 19.1399 73.8878 19.3786 73.2202C19.62 72.5497 19.9666 72.0384 20.4183 71.6861C20.8729 71.331 21.4183 71.1534 22.0547 71.1534C22.6911 71.1534 23.2351 71.331 23.6868 71.6861C24.1413 72.0384 24.4879 72.5497 24.7266 73.2202C24.968 73.8878 25.0888 74.6932 25.0888 75.6364C25.0888 76.5852 24.9695 77.3949 24.7308 78.0653C24.4922 78.733 24.147 79.2429 23.6953 79.5952C23.2436 79.9446 22.6967 80.1193 22.0547 80.1193ZM22.0547 79.1818C22.6911 79.1818 23.1854 78.875 23.5376 78.2614C23.8899 77.6477 24.0661 76.7727 24.0661 75.6364C24.0661 74.8807 23.9851 74.2372 23.8232 73.706C23.6641 73.1747 23.4339 72.7699 23.1328 72.4915C22.8345 72.2131 22.4751 72.0739 22.0547 72.0739C21.424 72.0739 20.9311 72.3849 20.576 73.0071C20.2209 73.6264 20.0433 74.5028 20.0433 75.6364C20.0433 76.392 20.1229 77.0341 20.282 77.5625C20.4411 78.0909 20.6697 78.4929 20.968 78.7685C21.2692 79.044 21.6314 79.1818 22.0547 79.1818ZM29.5547 80.1193C28.9126 80.1193 28.3658 79.9446 27.9141 79.5952C27.4624 79.2429 27.1172 78.733 26.8786 78.0653C26.6399 77.3949 26.5206 76.5852 26.5206 75.6364C26.5206 74.6932 26.6399 73.8878 26.8786 73.2202C27.12 72.5497 27.4666 72.0384 27.9183 71.6861C28.3729 71.331 28.9183 71.1534 29.5547 71.1534C30.1911 71.1534 30.7351 71.331 31.1868 71.6861C31.6413 72.0384 31.9879 72.5497 32.2266 73.2202C32.468 73.8878 32.5888 74.6932 32.5888 75.6364C32.5888 76.5852 32.4695 77.3949 32.2308 78.0653C31.9922 78.733 31.647 79.2429 31.1953 79.5952C30.7436 79.9446 30.1967 80.1193 29.5547 80.1193ZM29.5547 79.1818C30.1911 79.1818 30.6854 78.875 31.0376 78.2614C31.3899 77.6477 31.5661 76.7727 31.5661 75.6364C31.5661 74.8807 31.4851 74.2372 31.3232 73.706C31.1641 73.1747 30.9339 72.7699 30.6328 72.4915C30.3345 72.2131 29.9751 72.0739 29.5547 72.0739C28.924 72.0739 28.4311 72.3849 28.076 73.0071C27.7209 73.6264 27.5433 74.5028 27.5433 75.6364C27.5433 76.392 27.6229 77.0341 27.782 77.5625C27.9411 78.0909 28.1697 78.4929 28.468 78.7685C28.7692 79.044 29.1314 79.1818 29.5547 79.1818ZM34.9581 78.8835C34.7479 78.8835 34.5675 78.8082 34.4169 78.6577C34.2663 78.5071 34.1911 78.3267 34.1911 78.1165C34.1911 77.9062 34.2663 77.7259 34.4169 77.5753C34.5675 77.4247 34.7479 77.3494 34.9581 77.3494C35.1683 77.3494 35.3487 77.4247 35.4993 77.5753C35.6499 77.7259 35.7251 77.9062 35.7251 78.1165C35.7251 78.2557 35.6896 78.3835 35.6186 78.5C35.5504 78.6165 35.4581 78.7102 35.3416 78.7812C35.228 78.8494 35.1001 78.8835 34.9581 78.8835ZM34.9581 74.4688C34.7479 74.4688 34.5675 74.3935 34.4169 74.2429C34.2663 74.0923 34.1911 73.9119 34.1911 73.7017C34.1911 73.4915 34.2663 73.3111 34.4169 73.1605C34.5675 73.0099 34.7479 72.9347 34.9581 72.9347C35.1683 72.9347 35.3487 73.0099 35.4993 73.1605C35.6499 73.3111 35.7251 73.4915 35.7251 73.7017C35.7251 73.8409 35.6896 73.9688 35.6186 74.0852C35.5504 74.2017 35.4581 74.2955 35.3416 74.3665C35.228 74.4347 35.1001 74.4688 34.9581 74.4688ZM40.3594 80.1193C39.7173 80.1193 39.1705 79.9446 38.7188 79.5952C38.267 79.2429 37.9219 78.733 37.6832 78.0653C37.4446 77.3949 37.3253 76.5852 37.3253 75.6364C37.3253 74.6932 37.4446 73.8878 37.6832 73.2202C37.9247 72.5497 38.2713 72.0384 38.723 71.6861C39.1776 71.331 39.723 71.1534 40.3594 71.1534C40.9957 71.1534 41.5398 71.331 41.9915 71.6861C42.446 72.0384 42.7926 72.5497 43.0312 73.2202C43.2727 73.8878 43.3935 74.6932 43.3935 75.6364C43.3935 76.5852 43.2741 77.3949 43.0355 78.0653C42.7969 78.733 42.4517 79.2429 42 79.5952C41.5483 79.9446 41.0014 80.1193 40.3594 80.1193ZM40.3594 79.1818C40.9957 79.1818 41.4901 78.875 41.8423 78.2614C42.1946 77.6477 42.3707 76.7727 42.3707 75.6364C42.3707 74.8807 42.2898 74.2372 42.1278 73.706C41.9688 73.1747 41.7386 72.7699 41.4375 72.4915C41.1392 72.2131 40.7798 72.0739 40.3594 72.0739C39.7287 72.0739 39.2358 72.3849 38.8807 73.0071C38.5256 73.6264 38.348 74.5028 38.348 75.6364C38.348 76.392 38.4276 77.0341 38.5866 77.5625C38.7457 78.0909 38.9744 78.4929 39.2727 78.7685C39.5739 79.044 39.9361 79.1818 40.3594 79.1818ZM47.8594 80.1193C47.2173 80.1193 46.6705 79.9446 46.2188 79.5952C45.767 79.2429 45.4219 78.733 45.1832 78.0653C44.9446 77.3949 44.8253 76.5852 44.8253 75.6364C44.8253 74.6932 44.9446 73.8878 45.1832 73.2202C45.4247 72.5497 45.7713 72.0384 46.223 71.6861C46.6776 71.331 47.223 71.1534 47.8594 71.1534C48.4957 71.1534 49.0398 71.331 49.4915 71.6861C49.946 72.0384 50.2926 72.5497 50.5312 73.2202C50.7727 73.8878 50.8935 74.6932 50.8935 75.6364C50.8935 76.5852 50.7741 77.3949 50.5355 78.0653C50.2969 78.733 49.9517 79.2429 49.5 79.5952C49.0483 79.9446 48.5014 80.1193 47.8594 80.1193ZM47.8594 79.1818C48.4957 79.1818 48.9901 78.875 49.3423 78.2614C49.6946 77.6477 49.8707 76.7727 49.8707 75.6364C49.8707 74.8807 49.7898 74.2372 49.6278 73.706C49.4688 73.1747 49.2386 72.7699 48.9375 72.4915C48.6392 72.2131 48.2798 72.0739 47.8594 72.0739C47.2287 72.0739 46.7358 72.3849 46.3807 73.0071C46.0256 73.6264 45.848 74.5028 45.848 75.6364C45.848 76.392 45.9276 77.0341 46.0866 77.5625C46.2457 78.0909 46.4744 78.4929 46.7727 78.7685C47.0739 79.044 47.4361 79.1818 47.8594 79.1818Z" fill="white"/>
<path opacity="0.6" d="M527.75 80.1193C527.108 80.1193 526.561 79.9446 526.109 79.5952C525.658 79.2429 525.313 78.733 525.074 78.0653C524.835 77.3949 524.716 76.5852 524.716 75.6364C524.716 74.6932 524.835 73.8878 525.074 73.2202C525.315 72.5497 525.662 72.0384 526.114 71.6861C526.568 71.331 527.114 71.1534 527.75 71.1534C528.386 71.1534 528.93 71.331 529.382 71.6861C529.837 72.0384 530.183 72.5497 530.422 73.2202C530.663 73.8878 530.784 74.6932 530.784 75.6364C530.784 76.5852 530.665 77.3949 530.426 78.0653C530.188 78.733 529.842 79.2429 529.391 79.5952C528.939 79.9446 528.392 80.1193 527.75 80.1193ZM527.75 79.1818C528.386 79.1818 528.881 78.875 529.233 78.2614C529.585 77.6477 529.761 76.7727 529.761 75.6364C529.761 74.8807 529.68 74.2372 529.518 73.706C529.359 73.1747 529.129 72.7699 528.828 72.4915C528.53 72.2131 528.17 72.0739 527.75 72.0739C527.119 72.0739 526.626 72.3849 526.271 73.0071C525.916 73.6264 525.739 74.5028 525.739 75.6364C525.739 76.392 525.818 77.0341 525.977 77.5625C526.136 78.0909 526.365 78.4929 526.663 78.7685C526.964 79.044 527.327 79.1818 527.75 79.1818ZM535.25 80.1193C534.608 80.1193 534.061 79.9446 533.609 79.5952C533.158 79.2429 532.813 78.733 532.574 78.0653C532.335 77.3949 532.216 76.5852 532.216 75.6364C532.216 74.6932 532.335 73.8878 532.574 73.2202C532.815 72.5497 533.162 72.0384 533.614 71.6861C534.068 71.331 534.614 71.1534 535.25 71.1534C535.886 71.1534 536.43 71.331 536.882 71.6861C537.337 72.0384 537.683 72.5497 537.922 73.2202C538.163 73.8878 538.284 74.6932 538.284 75.6364C538.284 76.5852 538.165 77.3949 537.926 78.0653C537.688 78.733 537.342 79.2429 536.891 79.5952C536.439 79.9446 535.892 80.1193 535.25 80.1193ZM535.25 79.1818C535.886 79.1818 536.381 78.875 536.733 78.2614C537.085 77.6477 537.261 76.7727 537.261 75.6364C537.261 74.8807 537.18 74.2372 537.018 73.706C536.859 73.1747 536.629 72.7699 536.328 72.4915C536.03 72.2131 535.67 72.0739 535.25 72.0739C534.619 72.0739 534.126 72.3849 533.771 73.0071C533.416 73.6264 533.239 74.5028 533.239 75.6364C533.239 76.392 533.318 77.0341 533.477 77.5625C533.636 78.0909 533.865 78.4929 534.163 78.7685C534.464 79.044 534.827 79.1818 535.25 79.1818ZM540.653 78.8835C540.443 78.8835 540.263 78.8082 540.112 78.6577C539.962 78.5071 539.886 78.3267 539.886 78.1165C539.886 77.9062 539.962 77.7259 540.112 77.5753C540.263 77.4247 540.443 77.3494 540.653 77.3494C540.864 77.3494 541.044 77.4247 541.195 77.5753C541.345 77.7259 541.42 77.9062 541.42 78.1165C541.42 78.2557 541.385 78.3835 541.314 78.5C541.246 78.6165 541.153 78.7102 541.037 78.7812C540.923 78.8494 540.795 78.8835 540.653 78.8835ZM540.653 74.4688C540.443 74.4688 540.263 74.3935 540.112 74.2429C539.962 74.0923 539.886 73.9119 539.886 73.7017C539.886 73.4915 539.962 73.3111 540.112 73.1605C540.263 73.0099 540.443 72.9347 540.653 72.9347C540.864 72.9347 541.044 73.0099 541.195 73.1605C541.345 73.3111 541.42 73.4915 541.42 73.7017C541.42 73.8409 541.385 73.9688 541.314 74.0852C541.246 74.2017 541.153 74.2955 541.037 74.3665C540.923 74.4347 540.795 74.4688 540.653 74.4688ZM546.055 80.1193C545.413 80.1193 544.866 79.9446 544.414 79.5952C543.962 79.2429 543.617 78.733 543.379 78.0653C543.14 77.3949 543.021 76.5852 543.021 75.6364C543.021 74.6932 543.14 73.8878 543.379 73.2202C543.62 72.5497 543.967 72.0384 544.418 71.6861C544.873 71.331 545.418 71.1534 546.055 71.1534C546.691 71.1534 547.235 71.331 547.687 71.6861C548.141 72.0384 548.488 72.5497 548.727 73.2202C548.968 73.8878 549.089 74.6932 549.089 75.6364C549.089 76.5852 548.969 77.3949 548.731 78.0653C548.492 78.733 548.147 79.2429 547.695 79.5952C547.244 79.9446 546.697 80.1193 546.055 80.1193ZM546.055 79.1818C546.691 79.1818 547.185 78.875 547.538 78.2614C547.89 77.6477 548.066 76.7727 548.066 75.6364C548.066 74.8807 547.985 74.2372 547.823 73.706C547.664 73.1747 547.434 72.7699 547.133 72.4915C546.835 72.2131 546.475 72.0739 546.055 72.0739C545.424 72.0739 544.931 72.3849 544.576 73.0071C544.221 73.6264 544.043 74.5028 544.043 75.6364C544.043 76.392 544.123 77.0341 544.282 77.5625C544.441 78.0909 544.67 78.4929 544.968 78.7685C545.269 79.044 545.631 79.1818 546.055 79.1818ZM553.555 80.1193C552.913 80.1193 552.366 79.9446 551.914 79.5952C551.462 79.2429 551.117 78.733 550.879 78.0653C550.64 77.3949 550.521 76.5852 550.521 75.6364C550.521 74.6932 550.64 73.8878 550.879 73.2202C551.12 72.5497 551.467 72.0384 551.918 71.6861C552.373 71.331 552.918 71.1534 553.555 71.1534C554.191 71.1534 554.735 71.331 555.187 71.6861C555.641 72.0384 555.988 72.5497 556.227 73.2202C556.468 73.8878 556.589 74.6932 556.589 75.6364C556.589 76.5852 556.469 77.3949 556.231 78.0653C555.992 78.733 555.647 79.2429 555.195 79.5952C554.744 79.9446 554.197 80.1193 553.555 80.1193ZM553.555 79.1818C554.191 79.1818 554.685 78.875 555.038 78.2614C555.39 77.6477 555.566 76.7727 555.566 75.6364C555.566 74.8807 555.485 74.2372 555.323 73.706C555.164 73.1747 554.934 72.7699 554.633 72.4915C554.335 72.2131 553.975 72.0739 553.555 72.0739C552.924 72.0739 552.431 72.3849 552.076 73.0071C551.721 73.6264 551.543 74.5028 551.543 75.6364C551.543 76.392 551.623 77.0341 551.782 77.5625C551.941 78.0909 552.17 78.4929 552.468 78.7685C552.769 79.044 553.131 79.1818 553.555 79.1818ZM558.958 78.8835C558.748 78.8835 558.567 78.8082 558.417 78.6577C558.266 78.5071 558.191 78.3267 558.191 78.1165C558.191 77.9062 558.266 77.7259 558.417 77.5753C558.567 77.4247 558.748 77.3494 558.958 77.3494C559.168 77.3494 559.349 77.4247 559.499 77.5753C559.65 77.7259 559.725 77.9062 559.725 78.1165C559.725 78.2557 559.69 78.3835 559.619 78.5C559.55 78.6165 559.458 78.7102 559.342 78.7812C559.228 78.8494 559.1 78.8835 558.958 78.8835ZM558.958 74.4688C558.748 74.4688 558.567 74.3935 558.417 74.2429C558.266 74.0923 558.191 73.9119 558.191 73.7017C558.191 73.4915 558.266 73.3111 558.417 73.1605C558.567 73.0099 558.748 72.9347 558.958 72.9347C559.168 72.9347 559.349 73.0099 559.499 73.1605C559.65 73.3111 559.725 73.4915 559.725 73.7017C559.725 73.8409 559.69 73.9688 559.619 74.0852C559.55 74.2017 559.458 74.2955 559.342 74.3665C559.228 74.4347 559.1 74.4688 558.958 74.4688ZM564.359 80.1193C563.717 80.1193 563.17 79.9446 562.719 79.5952C562.267 79.2429 561.922 78.733 561.683 78.0653C561.445 77.3949 561.325 76.5852 561.325 75.6364C561.325 74.6932 561.445 73.8878 561.683 73.2202C561.925 72.5497 562.271 72.0384 562.723 71.6861C563.178 71.331 563.723 71.1534 564.359 71.1534C564.996 71.1534 565.54 71.331 565.991 71.6861C566.446 72.0384 566.793 72.5497 567.031 73.2202C567.273 73.8878 567.393 74.6932 567.393 75.6364C567.393 76.5852 567.274 77.3949 567.036 78.0653C566.797 78.733 566.452 79.2429 566 79.5952C565.548 79.9446 565.001 80.1193 564.359 80.1193ZM564.359 79.1818C564.996 79.1818 565.49 78.875 565.842 78.2614C566.195 77.6477 566.371 76.7727 566.371 75.6364C566.371 74.8807 566.29 74.2372 566.128 73.706C565.969 73.1747 565.739 72.7699 565.438 72.4915C565.139 72.2131 564.78 72.0739 564.359 72.0739C563.729 72.0739 563.236 72.3849 562.881 73.0071C562.526 73.6264 562.348 74.5028 562.348 75.6364C562.348 76.392 562.428 77.0341 562.587 77.5625C562.746 78.0909 562.974 78.4929 563.273 78.7685C563.574 79.044 563.936 79.1818 564.359 79.1818ZM571.859 80.1193C571.217 80.1193 570.67 79.9446 570.219 79.5952C569.767 79.2429 569.422 78.733 569.183 78.0653C568.945 77.3949 568.825 76.5852 568.825 75.6364C568.825 74.6932 568.945 73.8878 569.183 73.2202C569.425 72.5497 569.771 72.0384 570.223 71.6861C570.678 71.331 571.223 71.1534 571.859 71.1534C572.496 71.1534 573.04 71.331 573.491 71.6861C573.946 72.0384 574.293 72.5497 574.531 73.2202C574.773 73.8878 574.893 74.6932 574.893 75.6364C574.893 76.5852 574.774 77.3949 574.536 78.0653C574.297 78.733 573.952 79.2429 573.5 79.5952C573.048 79.9446 572.501 80.1193 571.859 80.1193ZM571.859 79.1818C572.496 79.1818 572.99 78.875 573.342 78.2614C573.695 77.6477 573.871 76.7727 573.871 75.6364C573.871 74.8807 573.79 74.2372 573.628 73.706C573.469 73.1747 573.239 72.7699 572.938 72.4915C572.639 72.2131 572.28 72.0739 571.859 72.0739C571.229 72.0739 570.736 72.3849 570.381 73.0071C570.026 73.6264 569.848 74.5028 569.848 75.6364C569.848 76.392 569.928 77.0341 570.087 77.5625C570.246 78.0909 570.474 78.4929 570.773 78.7685C571.074 79.044 571.436 79.1818 571.859 79.1818Z" fill="white"/>
<path d="M503.471 45.1392C502.722 45.1392 502.084 44.9354 501.557 44.5277C501.03 44.1167 500.627 43.5218 500.349 42.7429C500.07 41.9607 499.931 41.0161 499.931 39.9091C499.931 38.8087 500.07 37.8691 500.349 37.0902C500.63 36.308 501.035 35.7114 501.562 35.3004C502.092 34.8861 502.728 34.679 503.471 34.679C504.213 34.679 504.848 34.8861 505.375 35.3004C505.905 35.7114 506.309 36.308 506.588 37.0902C506.87 37.8691 507.01 38.8087 507.01 39.9091C507.01 41.0161 506.871 41.9607 506.593 42.7429C506.314 43.5218 505.912 44.1167 505.385 44.5277C504.858 44.9354 504.22 45.1392 503.471 45.1392ZM503.471 44.0455C504.213 44.0455 504.79 43.6875 505.201 42.9716C505.612 42.2557 505.817 41.2348 505.817 39.9091C505.817 39.0275 505.723 38.2768 505.534 37.657C505.348 37.0372 505.08 36.5649 504.729 36.2401C504.381 35.9152 503.961 35.7528 503.471 35.7528C502.735 35.7528 502.16 36.1158 501.746 36.8416C501.331 37.5642 501.124 38.5866 501.124 39.9091C501.124 40.7907 501.217 41.5398 501.403 42.1562C501.588 42.7727 501.855 43.2417 502.203 43.5632C502.554 43.8847 502.977 44.0455 503.471 44.0455ZM512.28 45.1392C511.863 45.1326 511.445 45.053 511.028 44.9006C510.61 44.7481 510.229 44.4912 509.884 44.13C509.539 43.7654 509.263 43.2732 509.054 42.6534C508.845 42.0303 508.741 41.2481 508.741 40.3068C508.741 39.4053 508.825 38.6065 508.994 37.9105C509.163 37.2112 509.408 36.6229 509.73 36.1456C510.051 35.665 510.439 35.3004 510.893 35.0518C511.351 34.8033 511.866 34.679 512.439 34.679C513.01 34.679 513.517 34.7933 513.961 35.022C514.408 35.2474 514.773 35.5623 515.055 35.9666C515.336 36.371 515.519 36.8366 515.601 37.3636H514.388C514.276 36.9062 514.057 36.5268 513.732 36.2251C513.407 35.9235 512.976 35.7727 512.439 35.7727C511.651 35.7727 511.029 36.1158 510.575 36.8018C510.124 37.4879 509.897 38.4508 509.894 39.6903H509.974C510.159 39.4086 510.38 39.1683 510.635 38.9695C510.893 38.7673 511.178 38.6115 511.49 38.5021C511.801 38.3928 512.131 38.3381 512.479 38.3381C513.063 38.3381 513.596 38.4839 514.08 38.7756C514.564 39.0639 514.952 39.4633 515.243 39.9737C515.535 40.4808 515.681 41.0625 515.681 41.7188C515.681 42.3485 515.54 42.9252 515.258 43.4489C514.977 43.9692 514.581 44.3835 514.07 44.6918C513.563 44.9967 512.966 45.1458 512.28 45.1392ZM512.28 44.0455C512.698 44.0455 513.073 43.9411 513.404 43.7322C513.739 43.5234 514.002 43.2434 514.194 42.892C514.39 42.5407 514.488 42.1496 514.488 41.7188C514.488 41.2978 514.393 40.915 514.204 40.5703C514.019 40.2223 513.762 39.9455 513.434 39.7401C513.109 39.5346 512.738 39.4318 512.32 39.4318C512.005 39.4318 511.712 39.4948 511.44 39.6207C511.168 39.7434 510.93 39.9124 510.724 40.1278C510.522 40.3433 510.363 40.5902 510.247 40.8686C510.131 41.1437 510.073 41.4337 510.073 41.7386C510.073 42.143 510.167 42.5208 510.356 42.8722C510.549 43.2235 510.81 43.5069 511.142 43.7223C511.477 43.9377 511.856 44.0455 512.28 44.0455ZM521.255 34.3409L517.974 46.5312H516.9L520.181 34.3409H521.255ZM522.626 45V44.1051L525.987 40.4261C526.381 39.9953 526.706 39.6207 526.961 39.3026C527.217 38.9811 527.406 38.6795 527.528 38.3977C527.654 38.1127 527.717 37.8144 527.717 37.5028C527.717 37.1449 527.631 36.835 527.459 36.5732C527.29 36.3113 527.058 36.1091 526.763 35.9666C526.468 35.8241 526.136 35.7528 525.768 35.7528C525.377 35.7528 525.036 35.834 524.744 35.9964C524.456 36.1555 524.232 36.3793 524.073 36.6676C523.917 36.956 523.839 37.294 523.839 37.6818H522.666C522.666 37.0852 522.804 36.5616 523.079 36.1108C523.354 35.66 523.728 35.3087 524.202 35.0568C524.68 34.8049 525.215 34.679 525.808 34.679C526.405 34.679 526.933 34.8049 527.394 35.0568C527.855 35.3087 528.216 35.6484 528.478 36.076C528.74 36.5036 528.871 36.9792 528.871 37.5028C528.871 37.8774 528.803 38.2436 528.667 38.6016C528.534 38.9562 528.302 39.3523 527.971 39.7898C527.643 40.224 527.187 40.7543 526.604 41.3807L524.317 43.8267V43.9062H529.05V45H522.626ZM534.424 45.1392C533.675 45.1392 533.037 44.9354 532.51 44.5277C531.983 44.1167 531.58 43.5218 531.302 42.7429C531.023 41.9607 530.884 41.0161 530.884 39.9091C530.884 38.8087 531.023 37.8691 531.302 37.0902C531.583 36.308 531.988 35.7114 532.515 35.3004C533.045 34.8861 533.681 34.679 534.424 34.679C535.166 34.679 535.801 34.8861 536.328 35.3004C536.858 35.7114 537.263 36.308 537.541 37.0902C537.823 37.8691 537.964 38.8087 537.964 39.9091C537.964 41.0161 537.824 41.9607 537.546 42.7429C537.268 43.5218 536.865 44.1167 536.338 44.5277C535.811 44.9354 535.173 45.1392 534.424 45.1392ZM534.424 44.0455C535.166 44.0455 535.743 43.6875 536.154 42.9716C536.565 42.2557 536.77 41.2348 536.77 39.9091C536.77 39.0275 536.676 38.2768 536.487 37.657C536.301 37.0372 536.033 36.5649 535.682 36.2401C535.334 35.9152 534.914 35.7528 534.424 35.7528C533.688 35.7528 533.113 36.1158 532.699 36.8416C532.284 37.5642 532.077 38.5866 532.077 39.9091C532.077 40.7907 532.17 41.5398 532.356 42.1562C532.541 42.7727 532.808 43.2417 533.156 43.5632C533.507 43.8847 533.93 44.0455 534.424 44.0455ZM543.472 34.3409L540.191 46.5312H539.117L542.398 34.3409H543.472ZM544.843 45V44.1051L548.204 40.4261C548.598 39.9953 548.923 39.6207 549.178 39.3026C549.433 38.9811 549.622 38.6795 549.745 38.3977C549.871 38.1127 549.934 37.8144 549.934 37.5028C549.934 37.1449 549.848 36.835 549.675 36.5732C549.506 36.3113 549.274 36.1091 548.979 35.9666C548.684 35.8241 548.353 35.7528 547.985 35.7528C547.594 35.7528 547.253 35.834 546.961 35.9964C546.673 36.1555 546.449 36.3793 546.29 36.6676C546.134 36.956 546.056 37.294 546.056 37.6818H544.883C544.883 37.0852 545.02 36.5616 545.295 36.1108C545.571 35.66 545.945 35.3087 546.419 35.0568C546.896 34.8049 547.432 34.679 548.025 34.679C548.621 34.679 549.15 34.8049 549.611 35.0568C550.071 35.3087 550.433 35.6484 550.695 36.076C550.956 36.5036 551.087 36.9792 551.087 37.5028C551.087 37.8774 551.019 38.2436 550.884 38.6016C550.751 38.9562 550.519 39.3523 550.188 39.7898C549.859 40.224 549.404 40.7543 548.82 41.3807L546.533 43.8267V43.9062H551.266V45H544.843ZM556.641 45.1392C555.892 45.1392 555.254 44.9354 554.727 44.5277C554.2 44.1167 553.797 43.5218 553.518 42.7429C553.24 41.9607 553.101 41.0161 553.101 39.9091C553.101 38.8087 553.24 37.8691 553.518 37.0902C553.8 36.308 554.205 35.7114 554.732 35.3004C555.262 34.8861 555.898 34.679 556.641 34.679C557.383 34.679 558.018 34.8861 558.545 35.3004C559.075 35.7114 559.479 36.308 559.758 37.0902C560.04 37.8691 560.18 38.8087 560.18 39.9091C560.18 41.0161 560.041 41.9607 559.763 42.7429C559.484 43.5218 559.082 44.1167 558.555 44.5277C558.028 44.9354 557.39 45.1392 556.641 45.1392ZM556.641 44.0455C557.383 44.0455 557.96 43.6875 558.371 42.9716C558.782 42.2557 558.987 41.2348 558.987 39.9091C558.987 39.0275 558.893 38.2768 558.704 37.657C558.518 37.0372 558.25 36.5649 557.898 36.2401C557.55 35.9152 557.131 35.7528 556.641 35.7528C555.905 35.7528 555.33 36.1158 554.915 36.8416C554.501 37.5642 554.294 38.5866 554.294 39.9091C554.294 40.7907 554.387 41.5398 554.572 42.1562C554.758 42.7727 555.025 43.2417 555.373 43.5632C555.724 43.8847 556.147 44.0455 556.641 44.0455ZM562.07 45V44.1051L565.43 40.4261C565.825 39.9953 566.15 39.6207 566.405 39.3026C566.66 38.9811 566.849 38.6795 566.972 38.3977C567.098 38.1127 567.161 37.8144 567.161 37.5028C567.161 37.1449 567.074 36.835 566.902 36.5732C566.733 36.3113 566.501 36.1091 566.206 35.9666C565.911 35.8241 565.58 35.7528 565.212 35.7528C564.821 35.7528 564.479 35.834 564.188 35.9964C563.899 36.1555 563.675 36.3793 563.516 36.6676C563.361 36.956 563.283 37.294 563.283 37.6818H562.109C562.109 37.0852 562.247 36.5616 562.522 36.1108C562.797 35.66 563.172 35.3087 563.646 35.0568C564.123 34.8049 564.658 34.679 565.251 34.679C565.848 34.679 566.377 34.8049 566.837 35.0568C567.298 35.3087 567.659 35.6484 567.921 36.076C568.183 36.5036 568.314 36.9792 568.314 37.5028C568.314 37.8774 568.246 38.2436 568.11 38.6016C567.978 38.9562 567.746 39.3523 567.414 39.7898C567.086 40.224 566.63 40.7543 566.047 41.3807L563.76 43.8267V43.9062H568.493V45H562.07ZM574.126 34.8182V45H572.893V36.1108H572.833L570.347 37.7614V36.5085L572.893 34.8182H574.126Z" fill="white"/>
<rect opacity="0.2" y="56" width="576" height="4" rx="2" fill="white"/>
<rect y="56" width="200" height="4" rx="2" fill="url(#paint0_linear_10_2)"/>
<g filter="url(#filter0_d_10_2)">
<path d="M198.656 62.3292C199.049 61.7107 199.951 61.7107 200.344 62.3292L203.288 66.9639C203.71 67.6297 203.232 68.5 202.443 68.5H196.557C195.768 68.5 195.29 67.6297 195.712 66.9639L198.656 62.3292Z" fill="#EFD2FF"/>
</g>
<g filter="url(#filter1_d_10_2)">
<rect x="134" y="20" width="131" height="28" rx="5" fill="#3E3E3E"/>
</g>
<path d="M147.695 27.5625V39H146.25V29.3672L143.336 30.4297V29.125L147.469 27.5625H147.695ZM152.125 38.2344C152.125 37.9896 152.201 37.7839 152.352 37.6172C152.508 37.4453 152.732 37.3594 153.023 37.3594C153.315 37.3594 153.536 37.4453 153.688 37.6172C153.844 37.7839 153.922 37.9896 153.922 38.2344C153.922 38.474 153.844 38.6771 153.688 38.8438C153.536 39.0104 153.315 39.0938 153.023 39.0938C152.732 39.0938 152.508 39.0104 152.352 38.8438C152.201 38.6771 152.125 38.474 152.125 38.2344ZM163.617 37.8125V39H156.172V37.9609L159.898 33.8125C160.357 33.3021 160.711 32.8698 160.961 32.5156C161.216 32.1562 161.393 31.8359 161.492 31.5547C161.596 31.2682 161.648 30.9766 161.648 30.6797C161.648 30.3047 161.57 29.9661 161.414 29.6641C161.263 29.3568 161.039 29.112 160.742 28.9297C160.445 28.7474 160.086 28.6562 159.664 28.6562C159.159 28.6562 158.737 28.7552 158.398 28.9531C158.065 29.1458 157.815 29.4167 157.648 29.7656C157.482 30.1146 157.398 30.5156 157.398 30.9688H155.953C155.953 30.3281 156.094 29.7422 156.375 29.2109C156.656 28.6797 157.073 28.2578 157.625 27.9453C158.177 27.6276 158.857 27.4688 159.664 27.4688C160.383 27.4688 160.997 27.5964 161.508 27.8516C162.018 28.1016 162.409 28.4557 162.68 28.9141C162.956 29.3672 163.094 29.8984 163.094 30.5078C163.094 30.8411 163.036 31.1797 162.922 31.5234C162.812 31.862 162.659 32.2005 162.461 32.5391C162.268 32.8776 162.042 33.2109 161.781 33.5391C161.526 33.8672 161.253 34.1901 160.961 34.5078L157.914 37.8125H163.617ZM166.773 27V39H165.32V27H166.773ZM171.938 30.5469L168.25 34.4922L166.188 36.6328L166.07 35.0938L167.547 33.3281L170.172 30.5469H171.938ZM170.617 39L167.602 34.9688L168.352 33.6797L172.32 39H170.617ZM181.812 34.5391H178.773V33.3125H181.812C182.401 33.3125 182.878 33.2188 183.242 33.0312C183.607 32.8438 183.872 32.5833 184.039 32.25C184.211 31.9167 184.297 31.5365 184.297 31.1094C184.297 30.7188 184.211 30.3516 184.039 30.0078C183.872 29.6641 183.607 29.388 183.242 29.1797C182.878 28.9661 182.401 28.8594 181.812 28.8594H179.125V39H177.617V27.625H181.812C182.672 27.625 183.398 27.7734 183.992 28.0703C184.586 28.3672 185.036 28.7786 185.344 29.3047C185.651 29.8255 185.805 30.4219 185.805 31.0938C185.805 31.8229 185.651 32.4453 185.344 32.9609C185.036 33.4766 184.586 33.8698 183.992 34.1406C183.398 34.4062 182.672 34.5391 181.812 34.5391ZM192.383 37.5547V33.2031C192.383 32.8698 192.315 32.5807 192.18 32.3359C192.049 32.0859 191.852 31.8932 191.586 31.7578C191.32 31.6224 190.992 31.5547 190.602 31.5547C190.237 31.5547 189.917 31.6172 189.641 31.7422C189.37 31.8672 189.156 32.0312 189 32.2344C188.849 32.4375 188.773 32.6562 188.773 32.8906H187.328C187.328 32.5885 187.406 32.2891 187.562 31.9922C187.719 31.6953 187.943 31.4271 188.234 31.1875C188.531 30.9427 188.885 30.75 189.297 30.6094C189.714 30.4635 190.177 30.3906 190.688 30.3906C191.302 30.3906 191.844 30.4948 192.312 30.7031C192.786 30.9115 193.156 31.2266 193.422 31.6484C193.693 32.0651 193.828 32.5885 193.828 33.2188V37.1562C193.828 37.4375 193.852 37.737 193.898 38.0547C193.951 38.3724 194.026 38.6458 194.125 38.875V39H192.617C192.544 38.8333 192.487 38.612 192.445 38.3359C192.404 38.0547 192.383 37.7943 192.383 37.5547ZM192.633 33.875L192.648 34.8906H191.188C190.776 34.8906 190.409 34.9245 190.086 34.9922C189.763 35.0547 189.492 35.151 189.273 35.2812C189.055 35.4115 188.888 35.5755 188.773 35.7734C188.659 35.9661 188.602 36.1927 188.602 36.4531C188.602 36.7188 188.661 36.9609 188.781 37.1797C188.901 37.3984 189.081 37.5729 189.32 37.7031C189.565 37.8281 189.865 37.8906 190.219 37.8906C190.661 37.8906 191.052 37.7969 191.391 37.6094C191.729 37.4219 191.997 37.1927 192.195 36.9219C192.398 36.651 192.508 36.388 192.523 36.1328L193.141 36.8281C193.104 37.0469 193.005 37.2891 192.844 37.5547C192.682 37.8203 192.466 38.0755 192.195 38.3203C191.93 38.5599 191.612 38.7604 191.242 38.9219C190.878 39.0781 190.466 39.1562 190.008 39.1562C189.435 39.1562 188.932 39.0443 188.5 38.8203C188.073 38.5964 187.74 38.2969 187.5 37.9219C187.266 37.5417 187.148 37.1172 187.148 36.6484C187.148 36.1953 187.237 35.7969 187.414 35.4531C187.591 35.1042 187.846 34.8151 188.18 34.5859C188.513 34.3516 188.914 34.1745 189.383 34.0547C189.852 33.9349 190.375 33.875 190.953 33.875H192.633ZM197.547 31.875V39H196.102V30.5469H197.508L197.547 31.875ZM200.188 30.5L200.18 31.8438C200.06 31.8177 199.945 31.8021 199.836 31.7969C199.732 31.7865 199.612 31.7812 199.477 31.7812C199.143 31.7812 198.849 31.8333 198.594 31.9375C198.339 32.0417 198.122 32.1875 197.945 32.375C197.768 32.5625 197.628 32.7865 197.523 33.0469C197.424 33.3021 197.359 33.5833 197.328 33.8906L196.922 34.125C196.922 33.6146 196.971 33.1354 197.07 32.6875C197.174 32.2396 197.333 31.8438 197.547 31.5C197.76 31.151 198.031 30.8802 198.359 30.6875C198.693 30.4896 199.089 30.3906 199.547 30.3906C199.651 30.3906 199.771 30.4036 199.906 30.4297C200.042 30.4505 200.135 30.474 200.188 30.5ZM205.453 30.5469V31.6562H200.883V30.5469H205.453ZM202.43 28.4922H203.875V36.9062C203.875 37.1927 203.919 37.4089 204.008 37.5547C204.096 37.7005 204.211 37.7969 204.352 37.8438C204.492 37.8906 204.643 37.9141 204.805 37.9141C204.924 37.9141 205.049 37.9036 205.18 37.8828C205.315 37.8568 205.417 37.8359 205.484 37.8203L205.492 39C205.378 39.0365 205.227 39.0703 205.039 39.1016C204.857 39.138 204.635 39.1562 204.375 39.1562C204.021 39.1562 203.695 39.0859 203.398 38.9453C203.102 38.8047 202.865 38.5703 202.688 38.2422C202.516 37.9089 202.43 37.4609 202.43 36.8984V28.4922ZM208.719 30.5469V39H207.266V30.5469H208.719ZM207.156 28.3047C207.156 28.0703 207.227 27.8724 207.367 27.7109C207.513 27.5495 207.727 27.4688 208.008 27.4688C208.284 27.4688 208.495 27.5495 208.641 27.7109C208.792 27.8724 208.867 28.0703 208.867 28.3047C208.867 28.5286 208.792 28.7214 208.641 28.8828C208.495 29.0391 208.284 29.1172 208.008 29.1172C207.727 29.1172 207.513 29.0391 207.367 28.8828C207.227 28.7214 207.156 28.5286 207.156 28.3047ZM214.422 37.9688C214.766 37.9688 215.083 37.8984 215.375 37.7578C215.667 37.6172 215.906 37.4245 216.094 37.1797C216.281 36.9297 216.388 36.6458 216.414 36.3281H217.789C217.763 36.8281 217.594 37.2943 217.281 37.7266C216.974 38.1536 216.57 38.5 216.07 38.7656C215.57 39.026 215.021 39.1562 214.422 39.1562C213.786 39.1562 213.232 39.0443 212.758 38.8203C212.289 38.5964 211.898 38.2891 211.586 37.8984C211.279 37.5078 211.047 37.0599 210.891 36.5547C210.74 36.0443 210.664 35.5052 210.664 34.9375V34.6094C210.664 34.0417 210.74 33.5052 210.891 33C211.047 32.4896 211.279 32.0391 211.586 31.6484C211.898 31.2578 212.289 30.9505 212.758 30.7266C213.232 30.5026 213.786 30.3906 214.422 30.3906C215.083 30.3906 215.661 30.526 216.156 30.7969C216.651 31.0625 217.039 31.4271 217.32 31.8906C217.607 32.349 217.763 32.8698 217.789 33.4531H216.414C216.388 33.1042 216.289 32.7891 216.117 32.5078C215.951 32.2266 215.721 32.0026 215.43 31.8359C215.143 31.6641 214.807 31.5781 214.422 31.5781C213.979 31.5781 213.607 31.6667 213.305 31.8438C213.008 32.0156 212.771 32.25 212.594 32.5469C212.422 32.8385 212.297 33.1641 212.219 33.5234C212.146 33.8776 212.109 34.2396 212.109 34.6094V34.9375C212.109 35.3073 212.146 35.6719 212.219 36.0312C212.292 36.3906 212.414 36.7161 212.586 37.0078C212.763 37.2995 213 37.5339 213.297 37.7109C213.599 37.8828 213.974 37.9688 214.422 37.9688ZM220.984 30.5469V39H219.531V30.5469H220.984ZM219.422 28.3047C219.422 28.0703 219.492 27.8724 219.633 27.7109C219.779 27.5495 219.992 27.4688 220.273 27.4688C220.549 27.4688 220.76 27.5495 220.906 27.7109C221.057 27.8724 221.133 28.0703 221.133 28.3047C221.133 28.5286 221.057 28.7214 220.906 28.8828C220.76 29.0391 220.549 29.1172 220.273 29.1172C219.992 29.1172 219.779 29.0391 219.633 28.8828C219.492 28.7214 219.422 28.5286 219.422 28.3047ZM224.75 32.1719V42.25H223.297V30.5469H224.625L224.75 32.1719ZM230.445 34.7031V34.8672C230.445 35.4818 230.372 36.0521 230.227 36.5781C230.081 37.099 229.867 37.5521 229.586 37.9375C229.31 38.3229 228.969 38.6224 228.562 38.8359C228.156 39.0495 227.69 39.1562 227.164 39.1562C226.628 39.1562 226.154 39.0677 225.742 38.8906C225.331 38.7135 224.982 38.4557 224.695 38.1172C224.409 37.7786 224.18 37.3724 224.008 36.8984C223.841 36.4245 223.727 35.8906 223.664 35.2969V34.4219C223.727 33.7969 223.844 33.237 224.016 32.7422C224.188 32.2474 224.414 31.8255 224.695 31.4766C224.982 31.1224 225.328 30.8542 225.734 30.6719C226.141 30.4844 226.609 30.3906 227.141 30.3906C227.672 30.3906 228.143 30.4948 228.555 30.7031C228.966 30.9062 229.312 31.1979 229.594 31.5781C229.875 31.9583 230.086 32.4141 230.227 32.9453C230.372 33.4714 230.445 34.0573 230.445 34.7031ZM228.992 34.8672V34.7031C228.992 34.2812 228.948 33.8854 228.859 33.5156C228.771 33.1406 228.633 32.8125 228.445 32.5312C228.263 32.2448 228.029 32.0208 227.742 31.8594C227.456 31.6927 227.115 31.6094 226.719 31.6094C226.354 31.6094 226.036 31.6719 225.766 31.7969C225.5 31.9219 225.273 32.0911 225.086 32.3047C224.898 32.513 224.745 32.7526 224.625 33.0234C224.51 33.2891 224.424 33.5651 224.367 33.8516V35.875C224.471 36.2396 224.617 36.5833 224.805 36.9062C224.992 37.224 225.242 37.4818 225.555 37.6797C225.867 37.8724 226.26 37.9688 226.734 37.9688C227.125 37.9688 227.461 37.888 227.742 37.7266C228.029 37.5599 228.263 37.3333 228.445 37.0469C228.633 36.7604 228.771 36.4323 228.859 36.0625C228.948 35.6875 228.992 35.2891 228.992 34.8672ZM237.273 37.5547V33.2031C237.273 32.8698 237.206 32.5807 237.07 32.3359C236.94 32.0859 236.742 31.8932 236.477 31.7578C236.211 31.6224 235.883 31.5547 235.492 31.5547C235.128 31.5547 234.807 31.6172 234.531 31.7422C234.26 31.8672 234.047 32.0312 233.891 32.2344C233.74 32.4375 233.664 32.6562 233.664 32.8906H232.219C232.219 32.5885 232.297 32.2891 232.453 31.9922C232.609 31.6953 232.833 31.4271 233.125 31.1875C233.422 30.9427 233.776 30.75 234.188 30.6094C234.604 30.4635 235.068 30.3906 235.578 30.3906C236.193 30.3906 236.734 30.4948 237.203 30.7031C237.677 30.9115 238.047 31.2266 238.312 31.6484C238.583 32.0651 238.719 32.5885 238.719 33.2188V37.1562C238.719 37.4375 238.742 37.737 238.789 38.0547C238.841 38.3724 238.917 38.6458 239.016 38.875V39H237.508C237.435 38.8333 237.378 38.612 237.336 38.3359C237.294 38.0547 237.273 37.7943 237.273 37.5547ZM237.523 33.875L237.539 34.8906H236.078C235.667 34.8906 235.299 34.9245 234.977 34.9922C234.654 35.0547 234.383 35.151 234.164 35.2812C233.945 35.4115 233.779 35.5755 233.664 35.7734C233.549 35.9661 233.492 36.1927 233.492 36.4531C233.492 36.7188 233.552 36.9609 233.672 37.1797C233.792 37.3984 233.971 37.5729 234.211 37.7031C234.456 37.8281 234.755 37.8906 235.109 37.8906C235.552 37.8906 235.943 37.7969 236.281 37.6094C236.62 37.4219 236.888 37.1927 237.086 36.9219C237.289 36.651 237.398 36.388 237.414 36.1328L238.031 36.8281C237.995 37.0469 237.896 37.2891 237.734 37.5547C237.573 37.8203 237.357 38.0755 237.086 38.3203C236.82 38.5599 236.503 38.7604 236.133 38.9219C235.768 39.0781 235.357 39.1562 234.898 39.1562C234.326 39.1562 233.823 39.0443 233.391 38.8203C232.964 38.5964 232.63 38.2969 232.391 37.9219C232.156 37.5417 232.039 37.1172 232.039 36.6484C232.039 36.1953 232.128 35.7969 232.305 35.4531C232.482 35.1042 232.737 34.8151 233.07 34.5859C233.404 34.3516 233.805 34.1745 234.273 34.0547C234.742 33.9349 235.266 33.875 235.844 33.875H237.523ZM242.438 32.3516V39H240.992V30.5469H242.359L242.438 32.3516ZM242.094 34.4531L241.492 34.4297C241.497 33.8516 241.583 33.3177 241.75 32.8281C241.917 32.3333 242.151 31.9036 242.453 31.5391C242.755 31.1745 243.115 30.8932 243.531 30.6953C243.953 30.4922 244.419 30.3906 244.93 30.3906C245.346 30.3906 245.721 30.4479 246.055 30.5625C246.388 30.6719 246.672 30.849 246.906 31.0938C247.146 31.3385 247.328 31.6562 247.453 32.0469C247.578 32.4323 247.641 32.9036 247.641 33.4609V39H246.188V33.4453C246.188 33.0026 246.122 32.6484 245.992 32.3828C245.862 32.112 245.672 31.9167 245.422 31.7969C245.172 31.6719 244.865 31.6094 244.5 31.6094C244.141 31.6094 243.812 31.6849 243.516 31.8359C243.224 31.987 242.971 32.1953 242.758 32.4609C242.549 32.7266 242.385 33.0312 242.266 33.375C242.151 33.7135 242.094 34.0729 242.094 34.4531ZM254.758 36.7578C254.758 36.5495 254.711 36.3568 254.617 36.1797C254.529 35.9974 254.344 35.8333 254.062 35.6875C253.786 35.5365 253.37 35.4062 252.812 35.2969C252.344 35.1979 251.919 35.0807 251.539 34.9453C251.164 34.8099 250.844 34.6458 250.578 34.4531C250.318 34.2604 250.117 34.0339 249.977 33.7734C249.836 33.513 249.766 33.2083 249.766 32.8594C249.766 32.526 249.839 32.2109 249.984 31.9141C250.135 31.6172 250.346 31.3542 250.617 31.125C250.893 30.8958 251.224 30.7161 251.609 30.5859C251.995 30.4557 252.424 30.3906 252.898 30.3906C253.576 30.3906 254.154 30.5104 254.633 30.75C255.112 30.9896 255.479 31.3099 255.734 31.7109C255.99 32.1068 256.117 32.5469 256.117 33.0312H254.672C254.672 32.7969 254.602 32.5703 254.461 32.3516C254.326 32.1276 254.125 31.9427 253.859 31.7969C253.599 31.651 253.279 31.5781 252.898 31.5781C252.497 31.5781 252.172 31.6406 251.922 31.7656C251.677 31.8854 251.497 32.0391 251.383 32.2266C251.273 32.4141 251.219 32.612 251.219 32.8203C251.219 32.9766 251.245 33.1172 251.297 33.2422C251.354 33.362 251.453 33.474 251.594 33.5781C251.734 33.6771 251.932 33.7708 252.188 33.8594C252.443 33.9479 252.768 34.0365 253.164 34.125C253.857 34.2812 254.427 34.4688 254.875 34.6875C255.323 34.9062 255.656 35.1745 255.875 35.4922C256.094 35.8099 256.203 36.1953 256.203 36.6484C256.203 37.0182 256.125 37.3568 255.969 37.6641C255.818 37.9714 255.596 38.237 255.305 38.4609C255.018 38.6797 254.674 38.8516 254.273 38.9766C253.878 39.0964 253.432 39.1562 252.938 39.1562C252.193 39.1562 251.562 39.0234 251.047 38.7578C250.531 38.4922 250.141 38.1484 249.875 37.7266C249.609 37.3047 249.477 36.8594 249.477 36.3906H250.93C250.951 36.7865 251.065 37.1016 251.273 37.3359C251.482 37.5651 251.737 37.7292 252.039 37.8281C252.341 37.9219 252.641 37.9688 252.938 37.9688C253.333 37.9688 253.664 37.9167 253.93 37.8125C254.201 37.7083 254.406 37.5651 254.547 37.3828C254.688 37.2005 254.758 36.9922 254.758 36.7578Z" fill="white"/>
<path d="M28.6505 102.781H33.3575C34.4252 102.781 35.3269 102.944 36.0626 103.27C36.8047 103.595 37.3679 104.077 37.752 104.715C38.1426 105.346 38.338 106.124 38.338 107.049C38.338 107.7 38.2045 108.296 37.9376 108.836C37.6771 109.37 37.2995 109.826 36.8047 110.203C36.3165 110.574 35.7305 110.851 35.0469 111.033L34.5196 111.238H30.0958L30.0762 109.705H33.4161C34.0932 109.705 34.6563 109.588 35.1055 109.354C35.5547 109.113 35.8933 108.79 36.1212 108.387C36.349 107.983 36.463 107.537 36.463 107.049C36.463 106.502 36.3555 106.023 36.1407 105.613C35.9258 105.203 35.5873 104.887 35.1251 104.666C34.6693 104.438 34.0801 104.324 33.3575 104.324H30.5352V117H28.6505V102.781ZM36.961 117L33.504 110.555L35.4669 110.545L38.9727 116.883V117H36.961ZM45.086 117.195C44.3503 117.195 43.683 117.072 43.084 116.824C42.4916 116.57 41.9805 116.215 41.5508 115.76C41.1277 115.304 40.8021 114.764 40.5743 114.139C40.3464 113.514 40.2325 112.83 40.2325 112.088V111.678C40.2325 110.818 40.3594 110.053 40.6133 109.383C40.8672 108.706 41.2123 108.133 41.6485 107.664C42.0847 107.195 42.5795 106.84 43.1329 106.6C43.6863 106.359 44.2592 106.238 44.8516 106.238C45.6068 106.238 46.2579 106.368 46.8047 106.629C47.3581 106.889 47.8106 107.254 48.1622 107.723C48.5137 108.185 48.7741 108.732 48.9434 109.363C49.1127 109.988 49.1973 110.672 49.1973 111.414V112.225H41.3067V110.75H47.3907V110.613C47.3646 110.145 47.267 109.689 47.0977 109.246C46.935 108.803 46.6745 108.439 46.3165 108.152C45.9584 107.866 45.4701 107.723 44.8516 107.723C44.4415 107.723 44.0639 107.811 43.7188 107.986C43.3738 108.156 43.0775 108.41 42.8301 108.748C42.5827 109.087 42.3907 109.5 42.254 109.988C42.1172 110.477 42.0489 111.04 42.0489 111.678V112.088C42.0489 112.589 42.1172 113.061 42.254 113.504C42.3972 113.94 42.6023 114.324 42.8692 114.656C43.1426 114.988 43.4714 115.249 43.8555 115.438C44.2462 115.626 44.6889 115.721 45.1837 115.721C45.8217 115.721 46.362 115.59 46.8047 115.33C47.2475 115.07 47.6348 114.721 47.9669 114.285L49.0606 115.154C48.8327 115.499 48.543 115.828 48.1915 116.141C47.8399 116.453 47.407 116.707 46.8926 116.902C46.3848 117.098 45.7826 117.195 45.086 117.195ZM53.9825 115.125L56.6973 106.434H57.8887L57.6544 108.162L54.8907 117H53.7286L53.9825 115.125ZM52.1563 106.434L54.4708 115.223L54.6368 117H53.4161L50.3497 106.434H52.1563ZM60.4864 115.154L62.6934 106.434H64.4903L61.4239 117H60.213L60.4864 115.154ZM58.1524 106.434L60.8087 114.979L61.1114 117H59.959L57.1172 108.143L56.8829 106.434H58.1524ZM72.5762 115.193V109.754C72.5762 109.337 72.4916 108.976 72.3223 108.67C72.1596 108.357 71.9122 108.117 71.5801 107.947C71.2481 107.778 70.838 107.693 70.3497 107.693C69.8939 107.693 69.4936 107.771 69.1485 107.928C68.81 108.084 68.543 108.289 68.3477 108.543C68.1589 108.797 68.0645 109.07 68.0645 109.363H66.2579C66.2579 108.986 66.3555 108.611 66.5508 108.24C66.7462 107.869 67.0261 107.534 67.3907 107.234C67.7618 106.928 68.2045 106.688 68.7188 106.512C69.2396 106.329 69.8191 106.238 70.4571 106.238C71.2253 106.238 71.9024 106.368 72.4883 106.629C73.0808 106.889 73.543 107.283 73.8751 107.811C74.2136 108.331 74.3829 108.986 74.3829 109.773V114.695C74.3829 115.047 74.4122 115.421 74.4708 115.818C74.5359 116.215 74.6303 116.557 74.754 116.844V117H72.8692C72.7781 116.792 72.7064 116.515 72.6544 116.17C72.6023 115.818 72.5762 115.493 72.5762 115.193ZM72.8887 110.594L72.9083 111.863H71.0821C70.5678 111.863 70.1088 111.906 69.7051 111.99C69.3015 112.068 68.963 112.189 68.6895 112.352C68.4161 112.514 68.2077 112.719 68.0645 112.967C67.9213 113.208 67.8497 113.491 67.8497 113.816C67.8497 114.148 67.9245 114.451 68.0743 114.725C68.224 114.998 68.4486 115.216 68.7481 115.379C69.0541 115.535 69.4284 115.613 69.8712 115.613C70.4245 115.613 70.9128 115.496 71.336 115.262C71.7592 115.027 72.0945 114.741 72.3419 114.402C72.5958 114.064 72.7325 113.735 72.752 113.416L73.5235 114.285C73.4779 114.559 73.3542 114.861 73.1524 115.193C72.9506 115.525 72.6804 115.844 72.3419 116.15C72.0098 116.45 71.6127 116.701 71.1505 116.902C70.6947 117.098 70.1804 117.195 69.6075 117.195C68.8913 117.195 68.2631 117.055 67.7227 116.775C67.1889 116.495 66.7722 116.121 66.4727 115.652C66.1797 115.177 66.0333 114.646 66.0333 114.061C66.0333 113.494 66.1439 112.996 66.3653 112.566C66.5866 112.13 66.9057 111.769 67.3223 111.482C67.739 111.189 68.2403 110.968 68.8262 110.818C69.4122 110.669 70.0665 110.594 70.7891 110.594H72.8887ZM79.0313 108.094V117H77.2247V106.434H78.9825L79.0313 108.094ZM82.3321 106.375L82.3223 108.055C82.1726 108.022 82.0294 108.003 81.8926 107.996C81.7624 107.983 81.6127 107.977 81.4434 107.977C81.0268 107.977 80.6589 108.042 80.3399 108.172C80.0209 108.302 79.7507 108.484 79.5294 108.719C79.308 108.953 79.1322 109.233 79.002 109.559C78.8783 109.878 78.7969 110.229 78.7579 110.613L78.2501 110.906C78.2501 110.268 78.3119 109.669 78.4356 109.109C78.5658 108.549 78.7644 108.055 79.0313 107.625C79.2982 107.189 79.6368 106.85 80.0469 106.609C80.4636 106.362 80.9584 106.238 81.5313 106.238C81.6615 106.238 81.8113 106.255 81.9805 106.287C82.1498 106.313 82.267 106.342 82.3321 106.375ZM90.4669 114.949V102H92.2833V117H90.6231L90.4669 114.949ZM83.3575 111.834V111.629C83.3575 110.822 83.4551 110.089 83.6505 109.432C83.8523 108.768 84.1355 108.198 84.5001 107.723C84.8712 107.247 85.3106 106.883 85.8184 106.629C86.3327 106.368 86.9057 106.238 87.5372 106.238C88.2012 106.238 88.7807 106.355 89.2755 106.59C89.7768 106.818 90.1999 107.153 90.545 107.596C90.8965 108.032 91.1732 108.559 91.3751 109.178C91.5769 109.796 91.7169 110.496 91.795 111.277V112.176C91.7234 112.951 91.5834 113.647 91.3751 114.266C91.1732 114.884 90.8965 115.411 90.545 115.848C90.1999 116.284 89.7768 116.619 89.2755 116.854C88.7741 117.081 88.1882 117.195 87.5176 117.195C86.8991 117.195 86.3327 117.062 85.8184 116.795C85.3106 116.528 84.8712 116.154 84.5001 115.672C84.1355 115.19 83.8523 114.624 83.6505 113.973C83.4551 113.315 83.3575 112.602 83.3575 111.834ZM85.1739 111.629V111.834C85.1739 112.361 85.226 112.856 85.3301 113.318C85.4408 113.781 85.6101 114.188 85.838 114.539C86.0658 114.891 86.3555 115.167 86.7071 115.369C87.0587 115.564 87.4786 115.662 87.9669 115.662C88.5658 115.662 89.0574 115.535 89.4415 115.281C89.8321 115.027 90.1446 114.692 90.379 114.275C90.6133 113.859 90.7956 113.406 90.9258 112.918V110.564C90.8477 110.206 90.7338 109.861 90.584 109.529C90.4408 109.191 90.252 108.891 90.0176 108.631C89.7898 108.364 89.5066 108.152 89.168 107.996C88.836 107.84 88.4421 107.762 87.9864 107.762C87.4916 107.762 87.0652 107.866 86.7071 108.074C86.3555 108.276 86.0658 108.556 85.838 108.914C85.6101 109.266 85.4408 109.676 85.3301 110.145C85.226 110.607 85.1739 111.102 85.1739 111.629ZM95.0176 116.043C95.0176 115.737 95.112 115.48 95.3008 115.271C95.4962 115.057 95.7761 114.949 96.1407 114.949C96.5053 114.949 96.782 115.057 96.9708 115.271C97.1661 115.48 97.2637 115.737 97.2637 116.043C97.2637 116.342 97.1661 116.596 96.9708 116.805C96.782 117.013 96.5053 117.117 96.1407 117.117C95.7761 117.117 95.4962 117.013 95.3008 116.805C95.112 116.596 95.0176 116.342 95.0176 116.043ZM95.0274 107.42C95.0274 107.114 95.1218 106.857 95.3106 106.648C95.5059 106.434 95.7859 106.326 96.1505 106.326C96.515 106.326 96.7917 106.434 96.9805 106.648C97.1758 106.857 97.2735 107.114 97.2735 107.42C97.2735 107.719 97.1758 107.973 96.9805 108.182C96.7917 108.39 96.515 108.494 96.1505 108.494C95.7859 108.494 95.5059 108.39 95.3106 108.182C95.1218 107.973 95.0274 107.719 95.0274 107.42Z" fill="white"/>
<g filter="url(#filter2_i_10_2)">
<circle cx="9.00006" cy="110" r="9" fill="url(#paint1_radial_10_2)" fill-opacity="0.5"/>
</g>
<circle cx="9.00006" cy="110" r="4" fill="#EECAFF"/>
<path d="M121.556 116C121.328 116 121.136 115.922 120.98 115.766C120.824 115.61 120.746 115.418 120.746 115.19V104.264C120.746 104.036 120.824 103.844 120.98 103.688C121.136 103.52 121.328 103.436 121.556 103.436H125.804C127.088 103.436 128.078 103.73 128.774 104.318C129.482 104.906 129.836 105.698 129.836 106.694C129.836 107.39 129.668 107.972 129.332 108.44C129.008 108.896 128.588 109.238 128.072 109.466C128.792 109.694 129.38 110.06 129.836 110.564C130.304 111.068 130.538 111.704 130.538 112.472C130.538 113.576 130.166 114.44 129.422 115.064C128.678 115.688 127.508 116 125.912 116H121.556ZM125.372 108.872C126.44 108.872 127.19 108.692 127.622 108.332C128.054 107.972 128.27 107.468 128.27 106.82C128.27 106.256 128.036 105.806 127.568 105.47C127.112 105.134 126.482 104.966 125.678 104.966H122.384V108.872H125.372ZM125.75 114.47C126.914 114.47 127.736 114.29 128.216 113.93C128.708 113.57 128.954 113.06 128.954 112.4C128.954 111.032 127.892 110.348 125.768 110.348H122.384V114.47H125.75ZM133.589 116.09C133.361 116.09 133.169 116.012 133.013 115.856C132.857 115.7 132.779 115.508 132.779 115.28V103.598C132.779 103.37 132.857 103.178 133.013 103.022C133.169 102.854 133.361 102.77 133.589 102.77C133.829 102.77 134.027 102.848 134.183 103.004C134.339 103.16 134.417 103.358 134.417 103.598V115.28C134.417 115.508 134.333 115.7 134.165 115.856C134.009 116.012 133.817 116.09 133.589 116.09ZM139.602 116.18C139.074 116.18 138.582 116.072 138.126 115.856C137.682 115.64 137.328 115.328 137.064 114.92C136.8 114.5 136.668 114.02 136.668 113.48C136.668 112.592 137.016 111.884 137.712 111.356C138.42 110.828 139.452 110.564 140.808 110.564H142.986V110.42C142.986 109.628 142.788 109.058 142.392 108.71C142.008 108.362 141.402 108.188 140.574 108.188C140.118 108.188 139.71 108.224 139.35 108.296C139.002 108.368 138.612 108.476 138.18 108.62C138.084 108.644 138.006 108.656 137.946 108.656C137.766 108.656 137.61 108.59 137.478 108.458C137.346 108.326 137.28 108.164 137.28 107.972C137.28 107.648 137.436 107.42 137.748 107.288C138.768 106.856 139.806 106.64 140.862 106.64C141.69 106.64 142.386 106.808 142.95 107.144C143.526 107.48 143.946 107.918 144.21 108.458C144.486 108.986 144.624 109.562 144.624 110.186V115.28C144.624 115.508 144.54 115.7 144.372 115.856C144.216 116.012 144.024 116.09 143.796 116.09C143.568 116.09 143.376 116.012 143.22 115.856C143.064 115.7 142.986 115.508 142.986 115.28V114.812C142.098 115.724 140.97 116.18 139.602 116.18ZM140.214 114.74C140.742 114.74 141.252 114.614 141.744 114.362C142.236 114.098 142.65 113.774 142.986 113.39V111.878H141.024C139.212 111.878 138.306 112.352 138.306 113.3C138.306 113.732 138.45 114.08 138.738 114.344C139.038 114.608 139.53 114.74 140.214 114.74ZM148.179 116.09C147.951 116.09 147.759 116.012 147.603 115.856C147.447 115.7 147.369 115.508 147.369 115.28V103.598C147.369 103.37 147.447 103.178 147.603 103.022C147.759 102.854 147.951 102.77 148.179 102.77C148.407 102.77 148.599 102.854 148.755 103.022C148.923 103.178 149.007 103.37 149.007 103.598V108.296C149.463 107.792 149.955 107.39 150.483 107.09C151.011 106.79 151.635 106.64 152.355 106.64C153.015 106.64 153.585 106.796 154.065 107.108C154.557 107.42 154.929 107.846 155.181 108.386C155.445 108.926 155.577 109.52 155.577 110.168V115.28C155.577 115.508 155.493 115.7 155.325 115.856C155.169 116.012 154.977 116.09 154.749 116.09C154.521 116.09 154.329 116.012 154.173 115.856C154.017 115.7 153.939 115.508 153.939 115.28V110.348C153.939 108.884 153.279 108.152 151.959 108.152C151.359 108.152 150.819 108.308 150.339 108.62C149.871 108.932 149.427 109.352 149.007 109.88V115.28C149.007 115.508 148.923 115.7 148.755 115.856C148.599 116.012 148.407 116.09 148.179 116.09ZM159.148 116.09C158.92 116.09 158.728 116.012 158.572 115.856C158.416 115.7 158.338 115.508 158.338 115.28V103.598C158.338 103.37 158.416 103.178 158.572 103.022C158.728 102.854 158.92 102.77 159.148 102.77C159.388 102.77 159.586 102.848 159.742 103.004C159.898 103.16 159.976 103.358 159.976 103.598V115.28C159.976 115.508 159.892 115.7 159.724 115.856C159.568 116.012 159.376 116.09 159.148 116.09ZM165.16 116.18C164.632 116.18 164.14 116.072 163.684 115.856C163.24 115.64 162.886 115.328 162.622 114.92C162.358 114.5 162.226 114.02 162.226 113.48C162.226 112.592 162.574 111.884 163.27 111.356C163.978 110.828 165.01 110.564 166.366 110.564H168.544V110.42C168.544 109.628 168.346 109.058 167.95 108.71C167.566 108.362 166.96 108.188 166.132 108.188C165.676 108.188 165.268 108.224 164.908 108.296C164.56 108.368 164.17 108.476 163.738 108.62C163.642 108.644 163.564 108.656 163.504 108.656C163.324 108.656 163.168 108.59 163.036 108.458C162.904 108.326 162.838 108.164 162.838 107.972C162.838 107.648 162.994 107.42 163.306 107.288C164.326 106.856 165.364 106.64 166.42 106.64C167.248 106.64 167.944 106.808 168.508 107.144C169.084 107.48 169.504 107.918 169.768 108.458C170.044 108.986 170.182 109.562 170.182 110.186V115.28C170.182 115.508 170.098 115.7 169.93 115.856C169.774 116.012 169.582 116.09 169.354 116.09C169.126 116.09 168.934 116.012 168.778 115.856C168.622 115.7 168.544 115.508 168.544 115.28V114.812C167.656 115.724 166.528 116.18 165.16 116.18ZM165.772 114.74C166.3 114.74 166.81 114.614 167.302 114.362C167.794 114.098 168.208 113.774 168.544 113.39V111.878H166.582C164.77 111.878 163.864 112.352 163.864 113.3C163.864 113.732 164.008 114.08 164.296 114.344C164.596 114.608 165.088 114.74 165.772 114.74ZM173.738 116.09C173.51 116.09 173.318 116.012 173.162 115.856C173.006 115.7 172.928 115.508 172.928 115.28V103.598C172.928 103.37 173.006 103.178 173.162 103.022C173.318 102.854 173.51 102.77 173.738 102.77C173.966 102.77 174.158 102.854 174.314 103.022C174.482 103.178 174.566 103.37 174.566 103.598V108.296C175.022 107.792 175.514 107.39 176.042 107.09C176.57 106.79 177.194 106.64 177.914 106.64C178.574 106.64 179.144 106.796 179.624 107.108C180.116 107.42 180.488 107.846 180.74 108.386C181.004 108.926 181.136 109.52 181.136 110.168V115.28C181.136 115.508 181.052 115.7 180.884 115.856C180.728 116.012 180.536 116.09 180.308 116.09C180.08 116.09 179.888 116.012 179.732 115.856C179.576 115.7 179.498 115.508 179.498 115.28V110.348C179.498 108.884 178.838 108.152 177.518 108.152C176.918 108.152 176.378 108.308 175.898 108.62C175.43 108.932 174.986 109.352 174.566 109.88V115.28C174.566 115.508 174.482 115.7 174.314 115.856C174.158 116.012 173.966 116.09 173.738 116.09ZM184.707 116.09C184.479 116.09 184.287 116.012 184.131 115.856C183.975 115.7 183.897 115.508 183.897 115.28V103.598C183.897 103.37 183.975 103.178 184.131 103.022C184.287 102.854 184.479 102.77 184.707 102.77C184.935 102.77 185.127 102.854 185.283 103.022C185.451 103.178 185.535 103.37 185.535 103.598V108.296C185.991 107.792 186.483 107.39 187.011 107.09C187.539 106.79 188.163 106.64 188.883 106.64C189.543 106.64 190.113 106.796 190.593 107.108C191.085 107.42 191.457 107.846 191.709 108.386C191.973 108.926 192.105 109.52 192.105 110.168V115.28C192.105 115.508 192.021 115.7 191.853 115.856C191.697 116.012 191.505 116.09 191.277 116.09C191.049 116.09 190.857 116.012 190.701 115.856C190.545 115.7 190.467 115.508 190.467 115.28V110.348C190.467 108.884 189.807 108.152 188.487 108.152C187.887 108.152 187.347 108.308 186.867 108.62C186.399 108.932 185.955 109.352 185.535 109.88V115.28C185.535 115.508 185.451 115.7 185.283 115.856C185.127 116.012 184.935 116.09 184.707 116.09ZM197.835 116.18C196.635 116.18 195.543 115.91 194.559 115.37C194.355 115.226 194.253 115.028 194.253 114.776C194.253 114.584 194.319 114.416 194.451 114.272C194.583 114.128 194.751 114.056 194.955 114.056C195.063 114.056 195.171 114.08 195.279 114.128C195.663 114.296 196.047 114.428 196.431 114.524C196.815 114.62 197.247 114.668 197.727 114.668C199.059 114.668 199.725 114.242 199.725 113.39C199.725 113.114 199.569 112.904 199.257 112.76C198.957 112.616 198.459 112.454 197.763 112.274C197.055 112.106 196.467 111.932 195.999 111.752C195.543 111.572 195.147 111.302 194.811 110.942C194.487 110.57 194.325 110.084 194.325 109.484C194.325 108.644 194.625 107.96 195.225 107.432C195.837 106.904 196.707 106.64 197.835 106.64C198.759 106.64 199.629 106.79 200.445 107.09C200.613 107.138 200.739 107.228 200.823 107.36C200.919 107.492 200.967 107.63 200.967 107.774C200.967 107.966 200.895 108.134 200.751 108.278C200.619 108.422 200.451 108.494 200.247 108.494C200.187 108.494 200.109 108.482 200.013 108.458C199.317 108.242 198.633 108.134 197.961 108.134C197.313 108.134 196.803 108.254 196.431 108.494C196.071 108.722 195.891 109.022 195.891 109.394C195.891 109.754 196.059 110.018 196.395 110.186C196.731 110.354 197.253 110.516 197.961 110.672C198.669 110.852 199.245 111.032 199.689 111.212C200.133 111.38 200.511 111.65 200.823 112.022C201.147 112.394 201.309 112.892 201.309 113.516C201.309 114.284 201.003 114.92 200.391 115.424C199.791 115.928 198.939 116.18 197.835 116.18ZM204.324 116.09C204.096 116.09 203.904 116.012 203.748 115.856C203.592 115.7 203.514 115.508 203.514 115.28V103.598C203.514 103.37 203.592 103.178 203.748 103.022C203.904 102.854 204.096 102.77 204.324 102.77C204.564 102.77 204.762 102.848 204.918 103.004C205.074 103.16 205.152 103.358 205.152 103.598V115.28C205.152 115.508 205.068 115.7 204.9 115.856C204.744 116.012 204.552 116.09 204.324 116.09Z" fill="#E7B6FF"/>
<rect x="107.5" y="96.5" width="111" height="27" rx="13.5" stroke="#E7B6FF"/>
<defs>
<filter id="filter0_d_10_2" x="190.555" y="56.8652" width="17.8901" height="16.6348" filterUnits="userSpaceOnUse" color-interpolation-filters="sRGB">
<feFlood flood-opacity="0" result="BackgroundImageFix"/>
<feColorMatrix in="SourceAlpha" type="matrix" values="0 0 0 0 0 0 0 0 0 0 0 0 0 0 0 0 0 0 127 0" result="hardAlpha"/>
<feOffset/>
<feGaussianBlur stdDeviation="2.5"/>
<feComposite in2="hardAlpha" operator="out"/>
<feColorMatrix type="matrix" values="0 0 0 0 0.596078 0 0 0 0 0.0313726 0 0 0 0 0.941176 0 0 0 0.3 0"/>
<feBlend mode="normal" in2="BackgroundImageFix" result="effect1_dropShadow_10_2"/>
<feBlend mode="normal" in="SourceGraphic" in2="effect1_dropShadow_10_2" result="shape"/>
</filter>
<filter id="filter1_d_10_2" x="114" y="0" width="171" height="68" filterUnits="userSpaceOnUse" color-interpolation-filters="sRGB">
<feFlood flood-opacity="0" result="BackgroundImageFix"/>
<feColorMatrix in="SourceAlpha" type="matrix" values="0 0 0 0 0 0 0 0 0 0 0 0 0 0 0 0 0 0 127 0" result="hardAlpha"/>
<feOffset/>
<feGaussianBlur stdDeviation="10"/>
<feComposite in2="hardAlpha" operator="out"/>
<feColorMatrix type="matrix" values="0 0 0 0 0.588235 0 0 0 0 0.0352941 0 0 0 0 0.917647 0 0 0 0.2 0"/>
<feBlend mode="normal" in2="BackgroundImageFix" result="effect1_dropShadow_10_2"/>
<feBlend mode="normal" in="SourceGraphic" in2="effect1_dropShadow_10_2" result="shape"/>
</filter>
<filter id="filter2_i_10_2" x="6.10352e-05" y="101" width="18" height="22" filterUnits="userSpaceOnUse" color-interpolation-filters="sRGB">
<feFlood flood-opacity="0" result="BackgroundImageFix"/>
<feBlend mode="normal" in="SourceGraphic" in2="BackgroundImageFix" result="shape"/>
<feColorMatrix in="SourceAlpha" type="matrix" values="0 0 0 0 0 0 0 0 0 0 0 0 0 0 0 0 0 0 127 0" result="hardAlpha"/>
<feOffset dy="4"/>
<feGaussianBlur stdDeviation="2"/>
<feComposite in2="hardAlpha" operator="arithmetic" k2="-1" k3="1"/>
<feColorMatrix type="matrix" values="0 0 0 0 0 0 0 0 0 0 0 0 0 0 0 0 0 0 0.25 0"/>
<feBlend mode="normal" in2="shape" result="effect1_innerShadow_10_2"/>
</filter>
<linearGradient id="paint0_linear_10_2" x1="0" y1="56" x2="8.71141" y2="98.8704" gradientUnits="userSpaceOnUse">
<stop stop-color="#FF7700"/>
<stop offset="1" stop-color="#9100FF"/>
</linearGradient>
<radialGradient id="paint1_radial_10_2" cx="0" cy="0" r="1" gradientUnits="userSpaceOnUse" gradientTransform="translate(9.00006 110) rotate(90) scale(9)">
<stop stop-color="#BB89D2" stop-opacity="0"/>
<stop offset="1" stop-color="#BB89D2"/>
</radialGradient>
</defs>
</svg>
