<svg width="28" height="28" viewBox="5 0 22 22" fill="none" xmlns="http://www.w3.org/2000/svg">
<path d="M21.2419 13.7139V6H19.4617V13.7139C19.4617 14.1074 19.3055 14.4847 19.0273 14.763C18.7492 15.0413 18.372 15.1978 17.9785 15.198H10.0387L13.2985 11.9337L12.0385 10.6737L7.26131 15.459C7.17847 15.5417 7.11276 15.6399 7.06792 15.748C7.02308 15.8561 7 15.972 7 16.089C7 16.206 7.02308 16.3219 7.06792 16.43C7.11276 16.5381 7.17847 16.6363 7.26131 16.719L12.0439 21.5016L13.3039 20.2416L10.0387 16.98H17.9785C18.4073 16.98 18.8319 16.8955 19.228 16.7313C19.6241 16.5672 19.984 16.3265 20.287 16.0232C20.5901 15.7199 20.8304 15.3598 20.9943 14.9636C21.1581 14.5673 21.2423 14.1427 21.2419 13.7139Z" fill="#C0FF6A"/>
</svg>
