<svg width="25" height="24" viewBox="0 0 25 24" fill="none" xmlns="http://www.w3.org/2000/svg">
<path opacity="0.9" d="M18.8831 23.5127C18.5064 23.5037 18.1367 23.4091 17.8019 23.2362L12.7178 20.6941L7.60305 23.2328C7.22012 23.433 6.78878 23.5218 6.35792 23.4894C5.92705 23.4569 5.51389 23.3044 5.16525 23.0492C4.81432 22.7853 4.54325 22.4294 4.38203 22.021C4.22081 21.6125 4.17574 21.1674 4.25179 20.7349L5.29785 15.3085L1.28812 11.5685C0.983815 11.2602 0.766014 10.8772 0.656598 10.4581C0.547183 10.0389 0.550007 9.59834 0.664787 9.18061L0.67272 9.15341C0.804928 8.7356 1.05255 8.36367 1.38703 8.08053C1.72151 7.79739 2.12921 7.61456 2.56312 7.55315L8.13459 6.53995L10.6325 1.46035C10.8242 1.06964 11.1203 0.739541 11.4879 0.506535C11.8555 0.27353 12.2803 0.146685 12.7155 0.140015C13.1548 0.139818 13.585 0.265588 13.955 0.502415C14.325 0.739243 14.6193 1.0772 14.8031 1.47621L17.2965 6.53768L22.8679 7.51121C23.3008 7.57361 23.7065 7.75993 24.0359 8.0477C24.3653 8.33547 24.6044 8.71239 24.7243 9.13301C24.8593 9.54689 24.8765 9.99016 24.774 10.4133C24.6716 10.8364 24.4534 11.2226 24.1441 11.5289L24.1305 11.5425L20.1298 15.3085L21.1407 20.7485C21.219 21.1776 21.1756 21.62 21.0154 22.0256C20.8551 22.4312 20.5845 22.7839 20.2341 23.0436C19.8487 23.353 19.3683 23.52 18.8741 23.5161L18.8831 23.5127ZM12.7201 18.8661L18.1215 21.5668C18.2662 21.6428 18.4253 21.6872 18.5885 21.6971C18.7702 21.6979 18.9465 21.6354 19.0871 21.5203L19.1121 21.4999C19.26 21.3935 19.3751 21.2476 19.444 21.0788C19.513 20.91 19.533 20.7253 19.5019 20.5457L18.4151 14.6909L22.7138 10.6426C22.8425 10.5139 22.9328 10.3519 22.9747 10.1748C23.0165 9.9976 23.0082 9.81231 22.9507 9.63961L22.9393 9.60221C22.893 9.43534 22.7987 9.28572 22.6682 9.1719C22.5376 9.05808 22.3766 8.98506 22.2049 8.96188H22.18L16.23 7.92035L13.5531 2.48035C13.4764 2.32312 13.3572 2.19058 13.2089 2.0978C13.0606 2.00503 12.8893 1.95577 12.7144 1.95561C12.5345 1.96103 12.3595 2.01594 12.2088 2.11431C12.058 2.21268 11.9373 2.35071 11.8599 2.51321L9.19992 7.92035L3.22045 9.00608C3.04102 9.02993 2.87233 9.10524 2.73476 9.22289C2.5972 9.34054 2.49664 9.49551 2.44525 9.66908C2.40139 9.84809 2.4031 10.0352 2.45022 10.2134C2.49734 10.3916 2.58837 10.5552 2.71499 10.6891L7.02165 14.6988L5.88832 20.5559C5.86037 20.7347 5.88181 20.9179 5.95032 21.0854C6.01883 21.253 6.1318 21.3987 6.27705 21.5067C6.43498 21.6216 6.62578 21.6824 6.82105 21.6801C6.97222 21.6814 7.12135 21.6452 7.25512 21.5747L7.27325 21.5634L12.7133 18.8638L12.7201 18.8661Z" fill="white" fill-opacity="0.5"/>
</svg>
