<svg width="28" height="28" viewBox="0 0 28 28" fill="none" xmlns="http://www.w3.org/2000/svg">
<g opacity="1">
<path fill-rule="evenodd" clip-rule="evenodd" d="M5.5679 15.3542C5.32391 15.5982 5.18693 15.9291 5.18714 16.2742L5.18857 18.7241C5.18899 19.4414 5.77043 20.0229 6.48781 20.0233L8.93768 20.0247C9.28272 20.0249 9.61369 19.8879 9.85768 19.644L19.157 10.3446C19.6647 9.83693 19.6647 9.01382 19.157 8.50614L16.7057 6.05483C16.198 5.54715 15.3749 5.54715 14.8672 6.05483L5.5679 15.3542ZM6.58851 18.6233L6.58716 16.3148L15.7865 7.11549L18.0964 9.42538L8.89704 18.6247L6.58851 18.6233ZM5.38481 21.9159C4.99822 21.9159 4.68481 22.2293 4.68481 22.6159C4.68481 23.0025 4.99822 23.3159 5.38481 23.3159H22.6156C23.0022 23.3159 23.3156 23.0025 23.3156 22.6159C23.3156 22.2293 23.0022 21.9159 22.6156 21.9159H5.38481Z" fill="white"/>
</g>
</svg>
