<svg width="8" height="14" viewBox="0 0 8 14" fill="none" xmlns="http://www.w3.org/2000/svg">
<path d="M4.53448 9.81317H2.93103C2.93678 9.25403 2.98563 8.79682 3.07759 8.44153C3.17529 8.08042 3.33333 7.75134 3.55172 7.4543C3.77011 7.15726 4.06034 6.81944 4.42241 6.44086C4.68678 6.16711 4.92816 5.91084 5.14655 5.67204C5.37069 5.42742 5.55172 5.16532 5.68966 4.88575C5.82759 4.60036 5.89655 4.25963 5.89655 3.86358C5.89655 3.46169 5.82471 3.11514 5.68103 2.82392C5.5431 2.53271 5.33621 2.30847 5.06034 2.15121C4.79023 1.99395 4.45402 1.91532 4.05172 1.91532C3.71839 1.91532 3.4023 1.97648 3.10345 2.09879C2.8046 2.2211 2.56322 2.41039 2.37931 2.66667C2.1954 2.91711 2.10057 3.24619 2.09483 3.6539H0.5C0.511494 2.99574 0.672414 2.43078 0.982759 1.95901C1.29885 1.48723 1.72414 1.12612 2.25862 0.875672C2.7931 0.625224 3.3908 0.5 4.05172 0.5C4.78161 0.5 5.4023 0.633961 5.91379 0.901882C6.43103 1.1698 6.82471 1.55421 7.09483 2.05511C7.36494 2.55018 7.5 3.13844 7.5 3.81989C7.5 4.34409 7.39368 4.82751 7.18103 5.27016C6.97414 5.70699 6.7069 6.11761 6.37931 6.50202C6.05172 6.88642 5.70402 7.25336 5.33621 7.60282C5.02011 7.89987 4.80747 8.23477 4.69828 8.60753C4.58908 8.98029 4.53448 9.38217 4.53448 9.81317ZM2.86207 12.5827C2.86207 12.3206 2.94253 12.0992 3.10345 11.9187C3.26437 11.7381 3.49713 11.6478 3.80172 11.6478C4.11207 11.6478 4.3477 11.7381 4.50862 11.9187C4.66954 12.0992 4.75 12.3206 4.75 12.5827C4.75 12.8331 4.66954 13.0486 4.50862 13.2292C4.3477 13.4097 4.11207 13.5 3.80172 13.5C3.49713 13.5 3.26437 13.4097 3.10345 13.2292C2.94253 13.0486 2.86207 12.8331 2.86207 12.5827Z" fill="white"/>
</svg>
