<svg width="40" height="40" viewBox="0 0 40 40" fill="none" xmlns="http://www.w3.org/2000/svg">
<path fill-rule="evenodd" clip-rule="evenodd" d="M10.2635 21.6798C10.0196 21.9238 9.88257 22.2547 9.88278 22.5998L9.88452 25.5797C9.88494 26.2971 10.4664 26.8785 11.1838 26.8789L14.1636 26.8807C14.5087 26.8809 14.8397 26.7439 15.0836 26.4999L25.974 15.6096C26.4817 15.1019 26.4817 14.2788 25.974 13.7711L22.9924 10.7895C22.4847 10.2818 21.6616 10.2818 21.1539 10.7895L10.2635 21.6798ZM11.2845 25.479L11.2828 22.6404L22.0731 11.8501L24.9133 14.6903L14.123 25.4806L11.2845 25.479ZM9.9998 29.3C9.61321 29.3 9.2998 29.6134 9.2998 30C9.2998 30.3866 9.61321 30.7 9.9998 30.7H29.9998C30.3864 30.7 30.6998 30.3866 30.6998 30C30.6998 29.6134 30.3864 29.3 29.9998 29.3H9.9998Z" fill="white"/>
</svg>
