<svg width="1180" height="221" viewBox="0 0 1180 221" fill="none" xmlns="http://www.w3.org/2000/svg">
<g filter="url(#filter0_d_1703_239)">
<path d="M70.128 132V73.744H94.68C98.1413 73.744 101.456 74.4187 104.624 75.768C107.851 77.0587 110.725 78.9653 113.248 81.488C115.771 84.0107 117.765 87.0613 119.232 90.64C120.699 94.2187 121.432 98.296 121.432 102.872C121.432 107.448 120.699 111.525 119.232 115.104C117.765 118.683 115.771 121.733 113.248 124.256C110.725 126.779 107.851 128.715 104.624 130.064C101.456 131.355 98.1413 132 94.68 132H70.128ZM76.728 125.752H94.416C98.5813 125.752 102.189 124.696 105.24 122.584C108.291 120.472 110.637 117.685 112.28 114.224C113.981 110.763 114.832 106.979 114.832 102.872C114.832 98.7067 113.981 94.8933 112.28 91.432C110.637 87.9707 108.291 85.2133 105.24 83.16C102.189 81.048 98.5813 79.992 94.416 79.992H76.728V125.752ZM150.131 132.704C145.672 132.704 141.771 131.707 138.427 129.712C135.083 127.659 132.472 124.901 130.595 121.44C128.776 117.979 127.867 114.165 127.867 110C127.867 105.776 128.747 101.963 130.507 98.56C132.267 95.0987 134.79 92.3707 138.075 90.376C141.36 88.3227 145.232 87.296 149.691 87.296C154.208 87.296 158.08 88.3227 161.307 90.376C164.592 92.3707 167.115 95.0987 168.875 98.56C170.635 101.963 171.515 105.776 171.515 110V112.64H134.643C134.995 115.221 135.816 117.597 137.107 119.768C138.456 121.88 140.246 123.581 142.475 124.872C144.704 126.104 147.286 126.72 150.219 126.72C153.328 126.72 155.939 126.045 158.051 124.696C160.163 123.288 161.806 121.499 162.979 119.328H170.195C168.67 123.259 166.235 126.485 162.891 129.008C159.606 131.472 155.352 132.704 150.131 132.704ZM134.731 106.48H164.651C164.064 102.725 162.48 99.5867 159.899 97.064C157.318 94.5413 153.915 93.28 149.691 93.28C145.467 93.28 142.064 94.5413 139.483 97.064C136.96 99.5867 135.376 102.725 134.731 106.48ZM195.595 132.704C191.547 132.704 188.115 132.029 185.299 130.68C182.542 129.331 180.43 127.571 178.963 125.4C177.497 123.171 176.675 120.765 176.499 118.184H183.363C183.539 119.651 184.038 121.088 184.859 122.496C185.739 123.845 187.059 124.96 188.819 125.84C190.579 126.661 192.867 127.072 195.683 127.072C196.563 127.072 197.649 126.984 198.939 126.808C200.23 126.632 201.462 126.309 202.635 125.84C203.867 125.371 204.894 124.667 205.715 123.728C206.537 122.789 206.947 121.587 206.947 120.12C206.947 118.301 206.243 116.893 204.835 115.896C203.427 114.899 201.609 114.136 199.379 113.608C197.15 113.021 194.774 112.464 192.251 111.936C189.787 111.408 187.441 110.733 185.211 109.912C182.982 109.032 181.163 107.829 179.755 106.304C178.347 104.72 177.643 102.579 177.643 99.88C177.643 95.8907 179.081 92.8107 181.955 90.64C184.889 88.4107 189.201 87.296 194.891 87.296C198.763 87.296 201.902 87.912 204.307 89.144C206.771 90.3173 208.619 91.8427 209.851 93.72C211.142 95.5973 211.905 97.6213 212.139 99.792H205.451C205.217 97.9147 204.278 96.3013 202.635 94.952C201.051 93.6027 198.411 92.928 194.715 92.928C187.734 92.928 184.243 95.04 184.243 99.264C184.243 101.024 184.947 102.373 186.355 103.312C187.763 104.251 189.582 105.013 191.811 105.6C194.041 106.128 196.387 106.656 198.851 107.184C201.374 107.653 203.75 108.328 205.979 109.208C208.209 110.088 210.027 111.349 211.435 112.992C212.843 114.576 213.547 116.747 213.547 119.504C213.547 123.787 211.905 127.072 208.619 129.36C205.393 131.589 201.051 132.704 195.595 132.704ZM240.953 132.704C236.553 132.704 232.739 131.707 229.513 129.712C226.286 127.659 223.763 124.901 221.945 121.44C220.185 117.979 219.305 114.165 219.305 110C219.305 105.776 220.185 101.963 221.945 98.56C223.763 95.0987 226.286 92.3707 229.513 90.376C232.739 88.3227 236.553 87.296 240.953 87.296C246.174 87.296 250.603 88.6453 254.241 91.344C257.937 94.0427 260.43 97.5333 261.721 101.816H254.593C253.595 99.2933 251.982 97.24 249.753 95.656C247.582 94.072 244.942 93.28 241.833 93.28C238.606 93.28 235.79 94.0427 233.385 95.568C230.979 97.0933 229.131 99.1173 227.841 101.64C226.55 104.163 225.905 106.949 225.905 110C225.905 112.992 226.55 115.779 227.841 118.36C229.131 120.883 230.979 122.907 233.385 124.432C235.79 125.957 238.606 126.72 241.833 126.72C244.942 126.72 247.582 125.928 249.753 124.344C251.982 122.76 253.595 120.707 254.593 118.184H261.721C260.43 122.467 257.937 125.957 254.241 128.656C250.603 131.355 246.174 132.704 240.953 132.704ZM269.9 132V88H276.5V98.824C276.734 98.0613 277.174 97.064 277.82 95.832C278.524 94.5413 279.521 93.2507 280.812 91.96C282.102 90.6693 283.716 89.584 285.652 88.704C287.646 87.7653 289.993 87.296 292.692 87.296H293.132V93.896H292.34C289.054 93.896 286.209 94.8053 283.804 96.624C281.457 98.384 279.638 100.701 278.348 103.576C277.116 106.392 276.5 109.413 276.5 112.64V132H269.9ZM299.972 80.608V71.984H307.1V80.608H299.972ZM300.236 132V88H306.836V132H300.236ZM340.635 132.704C336.997 132.704 333.859 132 331.219 130.592C328.637 129.184 326.525 127.307 324.883 124.96V132H318.283V70.4H324.883V95.128C326.525 92.7227 328.637 90.816 331.219 89.408C333.859 88 336.997 87.296 340.635 87.296C344.917 87.296 348.643 88.3227 351.811 90.376C355.037 92.3707 357.531 95.0987 359.291 98.56C361.051 101.963 361.931 105.776 361.931 110C361.931 114.165 361.051 117.979 359.291 121.44C357.531 124.901 355.037 127.659 351.811 129.712C348.643 131.707 344.917 132.704 340.635 132.704ZM339.755 126.72C343.04 126.72 345.827 125.957 348.115 124.432C350.461 122.907 352.251 120.883 353.483 118.36C354.715 115.779 355.331 112.992 355.331 110C355.331 106.949 354.715 104.163 353.483 101.64C352.251 99.1173 350.461 97.0933 348.115 95.568C345.827 94.0427 343.04 93.28 339.755 93.28C336.528 93.28 333.771 94.0427 331.483 95.568C329.195 97.0933 327.464 99.1173 326.291 101.64C325.117 104.163 324.531 106.949 324.531 110C324.531 112.992 325.117 115.779 326.291 118.36C327.464 120.883 329.195 122.907 331.483 124.432C333.771 125.957 336.528 126.72 339.755 126.72ZM390.154 132.704C385.696 132.704 381.794 131.707 378.45 129.712C375.106 127.659 372.496 124.901 370.618 121.44C368.8 117.979 367.89 114.165 367.89 110C367.89 105.776 368.77 101.963 370.53 98.56C372.29 95.0987 374.813 92.3707 378.098 90.376C381.384 88.3227 385.256 87.296 389.714 87.296C394.232 87.296 398.104 88.3227 401.33 90.376C404.616 92.3707 407.138 95.0987 408.898 98.56C410.658 101.963 411.538 105.776 411.538 110V112.64H374.666C375.018 115.221 375.84 117.597 377.13 119.768C378.48 121.88 380.269 123.581 382.498 124.872C384.728 126.104 387.309 126.72 390.242 126.72C393.352 126.72 395.962 126.045 398.074 124.696C400.186 123.288 401.829 121.499 403.002 119.328H410.218C408.693 123.259 406.258 126.485 402.914 129.008C399.629 131.472 395.376 132.704 390.154 132.704ZM374.754 106.48H404.674C404.088 102.725 402.504 99.5867 399.922 97.064C397.341 94.5413 393.938 93.28 389.714 93.28C385.49 93.28 382.088 94.5413 379.506 97.064C376.984 99.5867 375.4 102.725 374.754 106.48ZM442.913 149.424L450.921 131.384L432.969 88H440.273L454.441 124.08L468.873 88H476.089L450.041 149.424H442.913ZM500.316 132.704C495.857 132.704 491.985 131.707 488.7 129.712C485.415 127.659 482.892 124.901 481.132 121.44C479.372 117.979 478.492 114.165 478.492 110C478.492 105.776 479.372 101.963 481.132 98.56C482.892 95.0987 485.415 92.3707 488.7 90.376C491.985 88.3227 495.857 87.296 500.316 87.296C504.833 87.296 508.705 88.3227 511.932 90.376C515.217 92.3707 517.74 95.0987 519.5 98.56C521.26 101.963 522.14 105.776 522.14 110C522.14 114.165 521.26 117.979 519.5 121.44C517.74 124.901 515.217 127.659 511.932 129.712C508.705 131.707 504.833 132.704 500.316 132.704ZM500.316 126.72C503.601 126.72 506.359 125.957 508.588 124.432C510.876 122.907 512.607 120.883 513.78 118.36C514.953 115.779 515.54 112.992 515.54 110C515.54 106.949 514.953 104.163 513.78 101.64C512.607 99.1173 510.876 97.0933 508.588 95.568C506.359 94.0427 503.601 93.28 500.316 93.28C497.089 93.28 494.332 94.0427 492.044 95.568C489.756 97.0933 488.025 99.1173 486.852 101.64C485.679 104.163 485.092 106.949 485.092 110C485.092 112.992 485.679 115.779 486.852 118.36C488.025 120.883 489.756 122.907 492.044 124.432C494.332 125.957 497.089 126.72 500.316 126.72ZM548.052 132.704C545.06 132.704 542.215 132 539.516 130.592C536.817 129.125 534.617 126.984 532.916 124.168C531.273 121.293 530.452 117.773 530.452 113.608V88H537.052V113.432C537.052 117.421 538.196 120.648 540.484 123.112C542.831 125.517 545.793 126.72 549.372 126.72C551.836 126.72 554.065 126.163 556.06 125.048C558.055 123.875 559.639 122.291 560.812 120.296C562.044 118.301 562.66 115.984 562.66 113.344V88H569.26V132H562.66V125.136C561.076 127.248 559.14 129.037 556.852 130.504C554.564 131.971 551.631 132.704 548.052 132.704ZM580.736 132V88H587.336V98.824C587.57 98.0613 588.01 97.064 588.656 95.832C589.36 94.5413 590.357 93.2507 591.648 91.96C592.938 90.6693 594.552 89.584 596.488 88.704C598.482 87.7653 600.829 87.296 603.528 87.296H603.968V93.896H603.176C599.89 93.896 597.045 94.8053 594.64 96.624C592.293 98.384 590.474 100.701 589.184 103.576C587.952 106.392 587.336 109.413 587.336 112.64V132H580.736ZM648.902 132.704C644.443 132.704 640.571 131.707 637.286 129.712C634.001 127.659 631.478 124.901 629.718 121.44C627.958 117.979 627.078 114.165 627.078 110C627.078 105.776 627.958 101.963 629.718 98.56C631.478 95.0987 634.001 92.3707 637.286 90.376C640.571 88.3227 644.443 87.296 648.902 87.296C653.419 87.296 657.291 88.3227 660.518 90.376C663.803 92.3707 666.326 95.0987 668.086 98.56C669.846 101.963 670.726 105.776 670.726 110C670.726 114.165 669.846 117.979 668.086 121.44C666.326 124.901 663.803 127.659 660.518 129.712C657.291 131.707 653.419 132.704 648.902 132.704ZM648.902 126.72C652.187 126.72 654.945 125.957 657.174 124.432C659.462 122.907 661.193 120.883 662.366 118.36C663.539 115.779 664.126 112.992 664.126 110C664.126 106.949 663.539 104.163 662.366 101.64C661.193 99.1173 659.462 97.0933 657.174 95.568C654.945 94.0427 652.187 93.28 648.902 93.28C645.675 93.28 642.918 94.0427 640.63 95.568C638.342 97.0933 636.611 99.1173 635.438 101.64C634.265 104.163 633.678 106.949 633.678 110C633.678 112.992 634.265 115.779 635.438 118.36C636.611 120.883 638.342 122.907 640.63 124.432C642.918 125.957 645.675 126.72 648.902 126.72ZM679.478 132V88H686.078V98.824C686.312 98.0613 686.752 97.064 687.398 95.832C688.102 94.5413 689.099 93.2507 690.39 91.96C691.68 90.6693 693.294 89.584 695.23 88.704C697.224 87.7653 699.571 87.296 702.27 87.296H702.71V93.896H701.918C698.632 93.896 695.787 94.8053 693.382 96.624C691.035 98.384 689.216 100.701 687.926 103.576C686.694 106.392 686.078 109.413 686.078 112.64V132H679.478ZM728.849 150.128C723.334 150.128 718.846 148.925 715.385 146.52C711.923 144.173 709.577 141.093 708.345 137.28H715.649C716.529 139.451 718.054 141.123 720.225 142.296C722.395 143.528 725.153 144.144 728.497 144.144C733.542 144.144 737.209 142.941 739.497 140.536C741.843 138.189 743.017 134.757 743.017 130.24V124.168C741.374 126.515 739.233 128.421 736.593 129.888C734.011 131.296 730.902 132 727.265 132C722.982 132 719.227 131.032 716.001 129.096C712.833 127.101 710.369 124.403 708.609 121C706.849 117.597 705.969 113.813 705.969 109.648C705.969 105.424 706.849 101.64 708.609 98.296C710.369 94.8933 712.833 92.224 716.001 90.288C719.227 88.2933 722.982 87.296 727.265 87.296C730.902 87.296 734.011 88 736.593 89.408C739.233 90.7573 741.374 92.6347 743.017 95.04V88H749.617V130.68C749.617 136.957 747.798 141.768 744.161 145.112C740.582 148.456 735.478 150.128 728.849 150.128ZM728.145 126.016C731.371 126.016 734.099 125.283 736.329 123.816C738.617 122.349 740.347 120.384 741.521 117.92C742.753 115.397 743.369 112.64 743.369 109.648C743.369 106.597 742.753 103.84 741.521 101.376C740.347 98.912 738.617 96.9467 736.329 95.48C734.099 94.0133 731.371 93.28 728.145 93.28C724.918 93.28 722.131 94.0133 719.785 95.48C717.438 96.9467 715.649 98.912 714.417 101.376C713.185 103.84 712.569 106.597 712.569 109.648C712.569 112.64 713.185 115.397 714.417 117.92C715.649 120.384 717.438 122.349 719.785 123.816C722.131 125.283 724.918 126.016 728.145 126.016ZM779.601 132.704C775.318 132.704 771.563 131.707 768.337 129.712C765.169 127.659 762.705 124.901 760.945 121.44C759.185 117.979 758.305 114.165 758.305 110C758.305 105.776 759.185 101.963 760.945 98.56C762.705 95.0987 765.169 92.3707 768.337 90.376C771.563 88.3227 775.318 87.296 779.601 87.296C783.238 87.296 786.347 88 788.929 89.408C791.569 90.816 793.71 92.7227 795.353 95.128V88H801.953V132H795.353V124.96C793.71 127.307 791.569 129.184 788.929 130.592C786.347 132 783.238 132.704 779.601 132.704ZM780.481 126.72C783.766 126.72 786.523 125.957 788.753 124.432C791.041 122.907 792.771 120.883 793.945 118.36C795.118 115.779 795.705 112.992 795.705 110C795.705 106.949 795.118 104.163 793.945 101.64C792.771 99.1173 791.041 97.0933 788.753 95.568C786.523 94.0427 783.766 93.28 780.481 93.28C777.254 93.28 774.467 94.0427 772.121 95.568C769.774 97.0933 767.985 99.1173 766.753 101.64C765.521 104.163 764.905 106.949 764.905 110C764.905 112.992 765.521 115.779 766.753 118.36C767.985 120.883 769.774 122.907 772.121 124.432C774.467 125.957 777.254 126.72 780.481 126.72ZM813.368 132V88H819.968V94.864C821.552 92.752 823.488 90.9627 825.776 89.496C828.064 88.0293 830.998 87.296 834.576 87.296C837.627 87.296 840.472 88.0293 843.112 89.496C845.811 90.904 847.982 93.0453 849.624 95.92C851.326 98.736 852.176 102.227 852.176 106.392V132H845.576V106.568C845.576 102.579 844.432 99.3813 842.144 96.976C839.856 94.512 836.894 93.28 833.256 93.28C830.792 93.28 828.563 93.8373 826.568 94.952C824.574 96.0667 822.96 97.6507 821.728 99.704C820.555 101.699 819.968 104.016 819.968 106.656V132H813.368ZM862.948 80.608V71.984H870.076V80.608H862.948ZM863.212 132V88H869.812V132H863.212ZM878.267 132V125.752L904.579 94.072H878.619V88H912.939V94.16L886.539 125.84H912.939V132H878.267ZM940.132 132.704C935.849 132.704 932.094 131.707 928.868 129.712C925.7 127.659 923.236 124.901 921.476 121.44C919.716 117.979 918.836 114.165 918.836 110C918.836 105.776 919.716 101.963 921.476 98.56C923.236 95.0987 925.7 92.3707 928.868 90.376C932.094 88.3227 935.849 87.296 940.132 87.296C943.769 87.296 946.878 88 949.46 89.408C952.1 90.816 954.241 92.7227 955.884 95.128V88H962.484V132H955.884V124.96C954.241 127.307 952.1 129.184 949.46 130.592C946.878 132 943.769 132.704 940.132 132.704ZM941.012 126.72C944.297 126.72 947.054 125.957 949.284 124.432C951.572 122.907 953.302 120.883 954.476 118.36C955.649 115.779 956.236 112.992 956.236 110C956.236 106.949 955.649 104.163 954.476 101.64C953.302 99.1173 951.572 97.0933 949.284 95.568C947.054 94.0427 944.297 93.28 941.012 93.28C937.785 93.28 934.998 94.0427 932.652 95.568C930.305 97.0933 928.516 99.1173 927.284 101.64C926.052 104.163 925.436 106.949 925.436 110C925.436 112.992 926.052 115.779 927.284 118.36C928.516 120.883 930.305 122.907 932.652 124.432C934.998 125.957 937.785 126.72 941.012 126.72ZM978.652 132V93.808H969.676V88H978.652V72.248H985.252V88H995.372V93.808H985.252V132H978.652ZM1002.34 80.608V71.984H1009.47V80.608H1002.34ZM1002.6 132V88H1009.2V132H1002.6ZM1039.75 132.704C1035.29 132.704 1031.42 131.707 1028.13 129.712C1024.84 127.659 1022.32 124.901 1020.56 121.44C1018.8 117.979 1017.92 114.165 1017.92 110C1017.92 105.776 1018.8 101.963 1020.56 98.56C1022.32 95.0987 1024.84 92.3707 1028.13 90.376C1031.42 88.3227 1035.29 87.296 1039.75 87.296C1044.26 87.296 1048.14 88.3227 1051.36 90.376C1054.65 92.3707 1057.17 95.0987 1058.93 98.56C1060.69 101.963 1061.57 105.776 1061.57 110C1061.57 114.165 1060.69 117.979 1058.93 121.44C1057.17 124.901 1054.65 127.659 1051.36 129.712C1048.14 131.707 1044.26 132.704 1039.75 132.704ZM1039.75 126.72C1043.03 126.72 1045.79 125.957 1048.02 124.432C1050.31 122.907 1052.04 120.883 1053.21 118.36C1054.38 115.779 1054.97 112.992 1054.97 110C1054.97 106.949 1054.38 104.163 1053.21 101.64C1052.04 99.1173 1050.31 97.0933 1048.02 95.568C1045.79 94.0427 1043.03 93.28 1039.75 93.28C1036.52 93.28 1033.76 94.0427 1031.47 95.568C1029.19 97.0933 1027.46 99.1173 1026.28 101.64C1025.11 104.163 1024.52 106.949 1024.52 110C1024.52 112.992 1025.11 115.779 1026.28 118.36C1027.46 120.883 1029.19 122.907 1031.47 124.432C1033.76 125.957 1036.52 126.72 1039.75 126.72ZM1070.32 132V88H1076.92V94.864C1078.51 92.752 1080.44 90.9627 1082.73 89.496C1085.02 88.0293 1087.95 87.296 1091.53 87.296C1094.58 87.296 1097.43 88.0293 1100.07 89.496C1102.76 90.904 1104.93 93.0453 1106.58 95.92C1108.28 98.736 1109.13 102.227 1109.13 106.392V132H1102.53V106.568C1102.53 102.579 1101.39 99.3813 1099.1 96.976C1096.81 94.512 1093.85 93.28 1090.21 93.28C1087.75 93.28 1085.52 93.8373 1083.52 94.952C1081.53 96.0667 1079.91 97.6507 1078.68 99.704C1077.51 101.699 1076.92 104.016 1076.92 106.656V132H1070.32Z" fill="white"/>
</g>
<defs>
<filter id="filter0_d_1703_239" x="0.127991" y="0.399902" width="1179" height="219.728" filterUnits="userSpaceOnUse" color-interpolation-filters="sRGB">
<feFlood flood-opacity="0" result="BackgroundImageFix"/>
<feColorMatrix in="SourceAlpha" type="matrix" values="0 0 0 0 0 0 0 0 0 0 0 0 0 0 0 0 0 0 127 0" result="hardAlpha"/>
<feOffset/>
<feGaussianBlur stdDeviation="35"/>
<feComposite in2="hardAlpha" operator="out"/>
<feColorMatrix type="matrix" values="0 0 0 0 0.658824 0 0 0 0 0.466667 0 0 0 0 0.784314 0 0 0 0.8 0"/>
<feBlend mode="normal" in2="BackgroundImageFix" result="effect1_dropShadow_1703_239"/>
<feBlend mode="normal" in="SourceGraphic" in2="effect1_dropShadow_1703_239" result="shape"/>
</filter>
</defs>
</svg>
