<svg width="64" height="48" viewBox="0 0 64 48" fill="none" xmlns="http://www.w3.org/2000/svg">
<path fill-rule="evenodd" clip-rule="evenodd" d="M31 13C29.8954 13 29 13.8954 29 15V16.7575L28.2929 17.4647L29 16.7575L27.7573 15.5148C26.9762 14.7338 25.7099 14.7338 24.9289 15.5148L23.5146 16.929C22.7336 17.7101 22.7336 18.9764 23.5146 19.7575L24.7572 21H23C21.8954 21 21 21.8954 21 23V25C21 26.1046 21.8954 27 23 27L24.7567 27L23.5141 28.2426C22.7331 29.0236 22.7331 30.2899 23.5141 31.071L24.9283 32.4852L25.6354 31.7781L24.9283 32.4852C25.7094 33.2663 26.9757 33.2663 27.7568 32.4852L29 31.242V33C29 34.1046 29.8954 35 31 35H33C34.1046 35 35 34.1046 35 33V31.2428L36.2426 32.4854C37.0236 33.2664 38.2899 33.2664 39.071 32.4854L40.4852 31.0712C41.2663 30.2901 41.2663 29.0238 40.4852 28.2428L39.2425 27H41C42.1046 27 43 26.1046 43 25V23C43 21.8954 42.1046 21 41 21H39.242L38.5349 20.2929L39.242 21L40.4847 19.7573C41.2657 18.9762 41.2657 17.7099 40.4847 16.9289L39.0705 15.5146L38.3634 16.2218L39.0705 15.5146C38.2894 14.7336 37.0231 14.7336 36.242 15.5146L35 16.7567V15C35 13.8954 34.1046 13 33 13H31ZM38.3634 16.2218L39.7776 17.636C40.1681 18.0265 40.1681 18.6597 39.7776 19.0502L38.5349 20.2929C37.9049 20.9229 38.3511 22 39.242 22H41C41.5523 22 42 22.4477 42 23V25C42 25.5523 41.5523 26 41 26H39.2425C38.3515 26 37.9054 27.0771 38.5353 27.7071L39.7781 28.9499C40.1686 29.3404 40.1686 29.9736 39.7781 30.3641L38.3639 31.7783C37.9734 32.1688 37.3402 32.1688 36.9497 31.7783L35.7071 30.5357C35.0771 29.9058 34 30.3519 34 31.2428V33C34 33.5523 33.5523 34 33 34H31C30.4477 34 30 33.5523 30 33V31.242C30 30.3511 28.9229 29.9049 28.2929 30.5349L27.0496 31.7781C26.6591 32.1686 26.026 32.1686 25.6354 31.7781L24.2212 30.3639C23.8307 29.9734 23.8307 29.3402 24.2212 28.9497L25.4638 27.7071C26.0938 27.0771 25.6476 26 24.7567 26H23C22.4477 26 22 25.5523 22 25V23C22 22.4477 22.4477 22 23 22H24.7572C25.6481 22 26.0942 20.9229 25.4643 20.2929L24.2218 19.0504C23.8312 18.6598 23.8312 18.0267 24.2218 17.6362L25.636 16.2219C26.0265 15.8314 26.6597 15.8314 27.0502 16.2219L28.2929 17.4647C28.9229 18.0946 30 17.6485 30 16.7575V15C30 14.4477 30.4477 14 31 14H33C33.5523 14 34 14.4477 34 15V16.7567C34 17.6476 35.0771 18.0938 35.7071 17.4638L36.9491 16.2218C37.3397 15.8312 37.9728 15.8312 38.3634 16.2218ZM32 27C33.6569 27 35 25.6569 35 24C35 22.3431 33.6569 21 32 21C30.3431 21 29 22.3431 29 24C29 25.6569 30.3431 27 32 27ZM34 24C34 25.1046 33.1046 26 32 26C30.8954 26 30 25.1046 30 24C30 22.8954 30.8954 22 32 22C33.1046 22 34 22.8954 34 24Z" fill="white"/>
</svg>
