<svg width="34" height="34" viewBox="0 0 34 34" fill="none" xmlns="http://www.w3.org/2000/svg">
<path d="M12.9609 22.8043C12.9609 25.5568 10.7297 27.7848 7.98047 27.7848C5.23125 27.7848 3 25.5535 3 22.8043C3 20.0551 5.23125 17.8238 7.98047 17.8238C10.7297 17.8238 12.9609 20.0551 12.9609 22.8043ZM7.98047 25.3941C9.41152 25.3941 10.5703 24.2354 10.5703 22.8043C10.5703 21.3732 9.41152 20.2145 7.98047 20.2145C6.54941 20.2145 5.39062 21.3732 5.39062 22.8043C5.39062 24.2354 6.54941 25.3941 7.98047 25.3941ZM16.8523 13.5605C14.1031 13.5605 11.8719 11.3293 11.8719 8.58008C11.8719 5.83086 14.1031 3.59961 16.8523 3.59961C19.6016 3.59961 21.8328 5.83086 21.8328 8.58008C21.8328 11.3293 19.6016 13.5605 16.8523 13.5605ZM16.8523 5.99023C15.4213 5.99023 14.2625 7.14902 14.2625 8.58008C14.2625 10.0111 15.4213 11.1699 16.8523 11.1699C18.2834 11.1699 19.4422 10.0111 19.4422 8.58008C19.4422 7.14902 18.2834 5.99023 16.8523 5.99023ZM25.8172 17.8238C28.5697 17.8238 30.7977 20.0551 30.7977 22.8043C30.7977 25.5535 28.5664 27.7848 25.8172 27.7848C23.068 27.7848 20.8367 25.5535 20.8367 22.8043C20.8367 20.0551 23.068 17.8238 25.8172 17.8238ZM25.8172 25.3941C27.2482 25.3941 28.407 24.2354 28.407 22.8043C28.407 21.3732 27.2482 20.2145 25.8172 20.2145C24.3861 20.2145 23.2273 21.3732 23.2273 22.8043C23.2273 24.2354 24.3861 25.3941 25.8172 25.3941ZM26.2156 17.0535C25.8305 14.4006 24.343 12.1063 22.2346 10.642C22.4803 10.0012 22.6164 9.30391 22.6164 8.57676C22.6164 8.40078 22.6098 8.22481 22.5932 8.05215C26.0662 9.98125 28.4734 13.6037 28.6893 17.8039C27.9521 17.3789 27.1121 17.1133 26.2156 17.0535V17.0535ZM21.5273 26.6559C22.1084 27.3 22.8289 27.8113 23.6424 28.1434C21.7199 29.4914 19.3791 30.2816 16.8523 30.2816C14.3422 30.2816 12.0146 29.5014 10.0955 28.1699C10.9189 27.8445 11.6494 27.3365 12.2371 26.6924C13.6051 27.4561 15.1756 27.891 16.8523 27.891C18.5523 27.891 20.1494 27.4428 21.5273 26.6559ZM11.4701 10.6453C9.3584 12.1063 7.8709 14.4072 7.48906 17.0635C6.58926 17.1398 5.7459 17.4221 5.01211 17.8637C5.21133 13.6369 7.62188 9.99121 11.1115 8.05547C11.0982 8.22813 11.0883 8.4041 11.0883 8.58008C11.0883 9.30723 11.2244 10.0045 11.4701 10.6453V10.6453Z" fill="#757575"/>
</svg>
