<svg width="548" height="201" viewBox="0 0 548 201" fill="none" xmlns="http://www.w3.org/2000/svg">
<g filter="url(#filter0_d_3594_3)">
<path d="M70.128 130V71.744H112.984V78.08H76.728V97.616H109.112V104.04H76.728V123.664H112.984V130H70.128ZM122.259 130V86H128.859V92.864C130.443 90.752 132.379 88.9627 134.667 87.496C136.955 86.0293 139.888 85.296 143.467 85.296C146.518 85.296 149.363 86.0293 152.003 87.496C154.702 88.904 156.872 91.0453 158.515 93.92C160.216 96.736 161.067 100.227 161.067 104.392V130H154.467V104.568C154.467 100.579 153.323 97.3813 151.035 94.976C148.747 92.512 145.784 91.28 142.147 91.28C139.683 91.28 137.454 91.8373 135.459 92.952C133.464 94.0667 131.851 95.6507 130.619 97.704C129.446 99.6987 128.859 102.016 128.859 104.656V130H122.259ZM175.824 130V91.808H166.848V86H175.824V70.248H182.424V86H192.544V91.808H182.424V130H175.824ZM218.451 130.704C213.993 130.704 210.091 129.707 206.747 127.712C203.403 125.659 200.793 122.901 198.915 119.44C197.097 115.979 196.187 112.165 196.187 108C196.187 103.776 197.067 99.9627 198.827 96.56C200.587 93.0987 203.11 90.3707 206.395 88.376C209.681 86.3227 213.553 85.296 218.011 85.296C222.529 85.296 226.401 86.3227 229.627 88.376C232.913 90.3707 235.435 93.0987 237.195 96.56C238.955 99.9627 239.835 103.776 239.835 108V110.64H202.963C203.315 113.221 204.137 115.597 205.427 117.768C206.777 119.88 208.566 121.581 210.795 122.872C213.025 124.104 215.606 124.72 218.539 124.72C221.649 124.72 224.259 124.045 226.371 122.696C228.483 121.288 230.126 119.499 231.299 117.328H238.515C236.99 121.259 234.555 124.485 231.211 127.008C227.926 129.472 223.673 130.704 218.451 130.704ZM203.051 104.48H232.971C232.385 100.725 230.801 97.5867 228.219 95.064C225.638 92.5413 222.235 91.28 218.011 91.28C213.787 91.28 210.385 92.5413 207.803 95.064C205.281 97.5867 203.697 100.725 203.051 104.48ZM247.9 130V86H254.5V96.824C254.734 96.0613 255.174 95.064 255.82 93.832C256.524 92.5413 257.521 91.2507 258.812 89.96C260.102 88.6693 261.716 87.584 263.652 86.704C265.646 85.7653 267.993 85.296 270.692 85.296H271.132V91.896H270.34C267.054 91.896 264.209 92.8053 261.804 94.624C259.457 96.384 257.638 98.7013 256.348 101.576C255.116 104.392 254.5 107.413 254.5 110.64V130H247.9ZM298.378 130V71.744H304.978V97.616H338.858V71.744H345.458V130H338.858V104.04H304.978V130H298.378ZM377.865 130.704C373.407 130.704 369.505 129.707 366.161 127.712C362.817 125.659 360.207 122.901 358.329 119.44C356.511 115.979 355.601 112.165 355.601 108C355.601 103.776 356.481 99.9627 358.241 96.56C360.001 93.0987 362.524 90.3707 365.809 88.376C369.095 86.3227 372.967 85.296 377.425 85.296C381.943 85.296 385.815 86.3227 389.041 88.376C392.327 90.3707 394.849 93.0987 396.609 96.56C398.369 99.9627 399.249 103.776 399.249 108V110.64H362.377C362.729 113.221 363.551 115.597 364.841 117.768C366.191 119.88 367.98 121.581 370.209 122.872C372.439 124.104 375.02 124.72 377.953 124.72C381.063 124.72 383.673 124.045 385.785 122.696C387.897 121.288 389.54 119.499 390.713 117.328H397.929C396.404 121.259 393.969 124.485 390.625 127.008C387.34 129.472 383.087 130.704 377.865 130.704ZM362.465 104.48H392.385C391.799 100.725 390.215 97.5867 387.633 95.064C385.052 92.5413 381.649 91.28 377.425 91.28C373.201 91.28 369.799 92.5413 367.217 95.064C364.695 97.5867 363.111 100.725 362.465 104.48ZM407.314 130V86H413.914V96.824C414.148 96.0613 414.588 95.064 415.234 93.832C415.938 92.5413 416.935 91.2507 418.226 89.96C419.516 88.6693 421.13 87.584 423.066 86.704C425.06 85.7653 427.407 85.296 430.106 85.296H430.546V91.896H429.754C426.468 91.896 423.623 92.8053 421.218 94.624C418.871 96.384 417.052 98.7013 415.762 101.576C414.53 104.392 413.914 107.413 413.914 110.64V130H407.314ZM456.069 130.704C451.61 130.704 447.709 129.707 444.365 127.712C441.021 125.659 438.41 122.901 436.533 119.44C434.714 115.979 433.805 112.165 433.805 108C433.805 103.776 434.685 99.9627 436.445 96.56C438.205 93.0987 440.727 90.3707 444.013 88.376C447.298 86.3227 451.17 85.296 455.629 85.296C460.146 85.296 464.018 86.3227 467.245 88.376C470.53 90.3707 473.053 93.0987 474.812 96.56C476.573 99.9627 477.453 103.776 477.453 108V110.64H440.581C440.933 113.221 441.754 115.597 443.045 117.768C444.394 119.88 446.183 121.581 448.413 122.872C450.642 124.104 453.223 124.72 456.157 124.72C459.266 124.72 461.877 124.045 463.989 122.696C466.101 121.288 467.743 119.499 468.917 117.328H476.133C474.607 121.259 472.173 124.485 468.829 127.008C465.543 129.472 461.29 130.704 456.069 130.704ZM440.669 104.48H470.589C470.002 100.725 468.418 97.5867 465.837 95.064C463.255 92.5413 459.853 91.28 455.629 91.28C451.405 91.28 448.002 92.5413 445.421 95.064C442.898 97.5867 441.314 100.725 440.669 104.48Z" fill="white"/>
</g>
<defs>
<filter id="filter0_d_3594_3" x="0.127991" y="0.248047" width="547.325" height="200.456" filterUnits="userSpaceOnUse" color-interpolation-filters="sRGB">
<feFlood flood-opacity="0" result="BackgroundImageFix"/>
<feColorMatrix in="SourceAlpha" type="matrix" values="0 0 0 0 0 0 0 0 0 0 0 0 0 0 0 0 0 0 127 0" result="hardAlpha"/>
<feOffset/>
<feGaussianBlur stdDeviation="35"/>
<feComposite in2="hardAlpha" operator="out"/>
<feColorMatrix type="matrix" values="0 0 0 0 0.658824 0 0 0 0 0.466667 0 0 0 0 0.784314 0 0 0 0.8 0"/>
<feBlend mode="normal" in2="BackgroundImageFix" result="effect1_dropShadow_3594_3"/>
<feBlend mode="normal" in="SourceGraphic" in2="effect1_dropShadow_3594_3" result="shape"/>
</filter>
</defs>
</svg>
