<svg width="30" height="30" viewBox="0 0 30 30" fill="none" xmlns="http://www.w3.org/2000/svg">
<path opacity="0.9" d="M20.191 24.2761C19.8586 24.2681 19.5324 24.1846 19.237 24.0321L14.751 21.7891L10.238 24.0291C9.9001 24.2057 9.51951 24.2841 9.13934 24.2555C8.75916 24.2268 8.39461 24.0923 8.08699 23.8671C7.77734 23.6342 7.53816 23.3202 7.39591 22.9598C7.25366 22.5994 7.21388 22.2067 7.28099 21.8251L8.20399 17.0371L4.66599 13.7371C4.39748 13.465 4.2053 13.1271 4.10876 12.7572C4.01222 12.3874 4.01471 11.9987 4.11599 11.6301L4.12299 11.6061C4.23964 11.2374 4.45813 10.9092 4.75326 10.6594C5.04839 10.4096 5.40813 10.2483 5.79099 10.1941L10.707 9.30008L12.911 4.81808C13.0802 4.47333 13.3414 4.18207 13.6658 3.97648C13.9901 3.77088 14.365 3.65896 14.749 3.65308C15.1366 3.6529 15.5162 3.76388 15.8426 3.97284C16.1691 4.18181 16.4288 4.48 16.591 4.83208L18.791 9.29808L23.707 10.1571C24.089 10.2121 24.4469 10.3765 24.7375 10.6304C25.0282 10.8844 25.2391 11.2169 25.345 11.5881C25.4641 11.9533 25.4793 12.3444 25.3889 12.7177C25.2984 13.091 25.106 13.4319 24.833 13.7021L24.821 13.7141L21.291 17.0371L22.183 21.8371C22.2521 22.2156 22.2138 22.606 22.0724 22.9639C21.931 23.3218 21.6922 23.633 21.383 23.8621C21.043 24.1352 20.6191 24.2825 20.183 24.2791L20.191 24.2761ZM14.753 20.1761L19.519 22.5591C19.6466 22.6261 19.7871 22.6653 19.931 22.6741C20.0913 22.6748 20.2469 22.6196 20.371 22.5181L20.393 22.5001C20.5236 22.4062 20.6251 22.2774 20.6859 22.1285C20.7467 21.9796 20.7644 21.8166 20.737 21.6581L19.778 16.4921L23.571 12.9201C23.6845 12.8065 23.7643 12.6636 23.8012 12.5073C23.8381 12.3509 23.8307 12.1875 23.78 12.0351L23.77 12.0021C23.7291 11.8548 23.6459 11.7228 23.5307 11.6224C23.4155 11.522 23.2734 11.4575 23.122 11.4371H23.1L17.85 10.5181L15.488 5.71808C15.4204 5.57935 15.3152 5.46239 15.1843 5.38054C15.0535 5.29868 14.9023 5.25521 14.748 5.25508C14.5892 5.25986 14.4349 5.30831 14.3018 5.3951C14.1688 5.4819 14.0623 5.60369 13.994 5.74708L11.647 10.5181L6.37099 11.4761C6.21266 11.4971 6.06381 11.5636 5.94243 11.6674C5.82105 11.7712 5.73233 11.9079 5.68699 12.0611C5.64828 12.219 5.64979 12.3842 5.69137 12.5414C5.73294 12.6986 5.81326 12.8429 5.92499 12.9611L9.72499 16.4991L8.72499 21.6671C8.70033 21.8249 8.71925 21.9865 8.77969 22.1343C8.84014 22.2822 8.93983 22.4107 9.06799 22.5061C9.20733 22.6074 9.37568 22.6611 9.54799 22.6591C9.68137 22.6602 9.81295 22.6282 9.93099 22.5661L9.94699 22.5561L14.747 20.1741L14.753 20.1761Z" fill="white" fill-opacity="0.5"/>
</svg>
