<svg width="87" height="86" viewBox="0 0 87 86" fill="none" xmlns="http://www.w3.org/2000/svg">
<g opacity="0.9" filter="url(#filter0_d_44_4733)">
<path d="M50.229 55.1311C49.8302 55.1215 49.4387 55.0214 49.0842 54.8383L43.701 52.1467L38.2854 54.8347C37.88 55.0467 37.4233 55.1408 36.9671 55.1064C36.5109 55.072 36.0734 54.9106 35.7042 54.6403C35.3327 54.3609 35.0457 53.9841 34.875 53.5516C34.7043 53.1191 34.6565 52.6479 34.737 52.1899L35.8446 46.4443L31.599 42.4843C31.2768 42.1579 31.0462 41.7524 30.9304 41.3085C30.8145 40.8647 30.8175 40.3982 30.939 39.9559L30.9474 39.9271C31.0874 39.4848 31.3496 39.091 31.7038 38.7912C32.0579 38.4914 32.4896 38.2978 32.949 38.2327L38.8483 37.1599L41.493 31.7815C41.6961 31.3678 42.0095 31.0183 42.3988 30.7716C42.788 30.5249 43.2379 30.3906 43.6987 30.3835C44.1638 30.3833 44.6193 30.5165 45.011 30.7673C45.4028 31.018 45.7145 31.3759 45.909 31.7983L48.5491 37.1575L54.4483 38.1883C54.9066 38.2544 55.3361 38.4517 55.6849 38.7564C56.0337 39.0611 56.2868 39.4602 56.4139 39.9055C56.5568 40.3438 56.575 40.8131 56.4665 41.2611C56.358 41.7091 56.127 42.1181 55.7995 42.4423L55.7851 42.4567L51.5491 46.4443L52.6195 52.2043C52.7024 52.6586 52.6564 53.1271 52.4867 53.5565C52.3171 53.986 52.0305 54.3594 51.6595 54.6343C51.2514 54.962 50.7428 55.1388 50.2195 55.1347L50.229 55.1311Z" fill="url(#paint0_linear_44_4733)"/>
</g>
<defs>
<filter id="filter0_d_44_4733" x="0.845642" y="0.383545" width="85.6907" height="84.7512" filterUnits="userSpaceOnUse" color-interpolation-filters="sRGB">
<feFlood flood-opacity="0" result="BackgroundImageFix"/>
<feColorMatrix in="SourceAlpha" type="matrix" values="0 0 0 0 0 0 0 0 0 0 0 0 0 0 0 0 0 0 127 0" result="hardAlpha"/>
<feOffset/>
<feGaussianBlur stdDeviation="15"/>
<feComposite in2="hardAlpha" operator="out"/>
<feColorMatrix type="matrix" values="0 0 0 0 1 0 0 0 0 0.4875 0 0 0 0 0.726871 0 0 0 0.7 0"/>
<feBlend mode="normal" in2="BackgroundImageFix" result="effect1_dropShadow_44_4733"/>
<feBlend mode="normal" in="SourceGraphic" in2="effect1_dropShadow_44_4733" result="shape"/>
</filter>
<linearGradient id="paint0_linear_44_4733" x1="36.9308" y1="35.5293" x2="53.8933" y2="37.582" gradientUnits="userSpaceOnUse">
<stop stop-color="#FFCC00"/>
<stop offset="1" stop-color="#E354E8"/>
</linearGradient>
</defs>
</svg>
