<svg width="30" height="30" viewBox="0 0 30 30" fill="none" xmlns="http://www.w3.org/2000/svg">
<path d="M7.216 16.217L7.224 16.224L13.852 22.043C14.1147 22.274 14.451 22.404 14.8008 22.4097C15.1506 22.4153 15.4909 22.2964 15.761 22.074L22.594 16.445C23.1719 16.0215 23.6513 15.4779 23.9991 14.8515C24.3469 14.2252 24.555 13.5309 24.609 12.8165C24.663 12.102 24.5616 11.3844 24.3118 10.7129C24.0621 10.0413 23.6699 9.43185 23.1621 8.92632C22.6544 8.4208 22.0433 8.03123 21.3707 7.78439C20.6981 7.53754 19.98 7.43927 19.2658 7.49635C18.5516 7.55342 17.8582 7.76449 17.2334 8.11503C16.6085 8.46557 16.067 8.94726 15.646 9.527L15.046 10.348L14.446 9.52801C14.0347 8.95934 13.5074 8.48438 12.899 8.13448C12.2906 7.78458 11.6149 7.5677 10.9165 7.49815C10.2181 7.4286 9.51295 7.50797 8.84749 7.73101C8.18203 7.95405 7.57145 8.3157 7.05605 8.79208C6.54064 9.26845 6.13214 9.84872 5.85749 10.4946C5.58285 11.1405 5.44831 11.8372 5.46277 12.5389C5.47722 13.2406 5.64034 13.9313 5.94135 14.5653C6.24236 15.1993 6.67441 15.7623 7.209 16.217H7.216ZM4 12.436C4 11.1554 4.38201 9.90398 5.09717 8.84171C5.81232 7.77944 6.82811 6.95467 8.01459 6.47288C9.20108 5.99109 10.5043 5.8742 11.7576 6.13715C13.0109 6.40011 14.1572 7.03097 15.05 7.94901C15.6698 7.31278 16.4146 6.81174 17.2375 6.47744C18.0604 6.14314 18.9436 5.98281 19.8315 6.00656C20.7194 6.03031 21.5928 6.23762 22.3966 6.61543C23.2005 6.99323 23.9174 7.53337 24.5023 8.20182C25.0872 8.87028 25.5274 9.65257 25.7951 10.4995C26.0628 11.3464 26.1524 12.2395 26.058 13.1227C25.9637 14.0059 25.6875 14.86 25.247 15.6312C24.8064 16.4025 24.2109 17.0742 23.498 17.604L16.698 23.204C16.158 23.6491 15.4772 23.8874 14.7775 23.8764C14.0778 23.8654 13.4048 23.6058 12.879 23.144L6.255 17.327C5.54739 16.7237 4.97926 15.9738 4.58991 15.1294C4.20056 14.2849 3.99929 13.3659 4 12.436Z" fill="white" fill-opacity="0.5"/>
</svg>
