<svg width="30" height="30" viewBox="0 0 30 30" fill="none" xmlns="http://www.w3.org/2000/svg">
<path opacity="0.9" d="M27.512 14.015C27.312 13.729 22.543 7.00195 14.823 7.00195C7.103 7.00195 2.335 13.73 2.134 14.015C1.98358 14.2313 1.90295 14.4885 1.90295 14.752C1.90295 15.0154 1.98358 15.2726 2.134 15.489C2.334 15.775 7.103 22.503 14.823 22.503C22.543 22.503 27.313 15.775 27.512 15.489C27.6623 15.2726 27.7428 15.0154 27.7428 14.752C27.7428 14.4885 27.6623 14.2313 27.512 14.015ZM14.823 21.21C7.687 21.21 3.19501 14.751 3.19501 14.751C3.19501 14.751 7.687 8.29396 14.823 8.29396C21.959 8.29396 26.451 14.753 26.451 14.753C26.451 14.753 21.959 21.212 14.823 21.212V21.21ZM14.823 9.58597C13.8008 9.58597 12.8016 9.88909 11.9517 10.457C11.1018 11.0249 10.4394 11.8321 10.0483 12.7765C9.65719 13.7209 9.55487 14.76 9.75436 15.7626C9.95385 16.7651 10.4462 17.6859 11.169 18.4086C11.8919 19.1314 12.8128 19.6235 13.8154 19.8228C14.818 20.0221 15.8571 19.9196 16.8014 19.5283C17.7457 19.137 18.5528 18.4744 19.1205 17.6244C19.6883 16.7744 19.9912 15.7751 19.991 14.753C19.9907 13.3825 19.4461 12.0682 18.477 11.0993C17.5078 10.1303 16.1935 9.58597 14.823 9.58597ZM14.823 18.629C14.0564 18.629 13.307 18.4016 12.6696 17.9757C12.0322 17.5498 11.5354 16.9445 11.242 16.2362C10.9487 15.528 10.8719 14.7487 11.0215 13.9968C11.171 13.2449 11.5402 12.5543 12.0822 12.0122C12.6243 11.4702 13.315 11.101 14.0668 10.9514C14.8187 10.8019 15.598 10.8786 16.3063 11.172C17.0145 11.4654 17.6199 11.9622 18.0458 12.5996C18.4717 13.237 18.699 13.9864 18.699 14.753C18.6979 15.7808 18.2891 16.7662 17.5622 17.4929C16.8353 18.2196 15.8498 18.6282 14.822 18.629H14.823Z" fill="white" fill-opacity="0.5"/>
</svg>
