<svg width="106" height="28" viewBox="0 0 106 28" fill="none" xmlns="http://www.w3.org/2000/svg">
<rect x="0.5" y="0.5" width="105" height="27" rx="4.5" fill="#FF7CB9" fill-opacity="0.1"/>
<path d="M16.6992 16.1567H18.293C18.21 16.9204 17.9914 17.6038 17.6372 18.207C17.283 18.8102 16.7822 19.2889 16.1348 19.6431C15.4873 19.9917 14.6794 20.166 13.7109 20.166C13.0026 20.166 12.3579 20.0332 11.7769 19.7676C11.2013 19.502 10.7061 19.1257 10.291 18.6387C9.87598 18.1462 9.55501 17.5568 9.32812 16.8706C9.10677 16.1789 8.99609 15.4097 8.99609 14.563V13.3594C8.99609 12.5127 9.10677 11.7463 9.32812 11.0601C9.55501 10.3683 9.87874 9.7762 10.2993 9.28369C10.7254 8.79118 11.2373 8.41211 11.835 8.14648C12.4326 7.88086 13.105 7.74805 13.8521 7.74805C14.7651 7.74805 15.5371 7.9196 16.168 8.2627C16.7988 8.60579 17.2886 9.08171 17.6372 9.69043C17.9914 10.2936 18.21 10.9937 18.293 11.7905H16.6992C16.6217 11.2261 16.4779 10.7419 16.2676 10.3379C16.0573 9.92839 15.7585 9.61296 15.3711 9.3916C14.9837 9.17025 14.4774 9.05957 13.8521 9.05957C13.3153 9.05957 12.8421 9.16195 12.4326 9.3667C12.0286 9.57145 11.6883 9.86198 11.4116 10.2383C11.1405 10.6146 10.9357 11.0656 10.7974 11.5913C10.659 12.117 10.5898 12.7008 10.5898 13.3428V14.563C10.5898 15.1551 10.6507 15.7113 10.7725 16.2314C10.8997 16.7516 11.0907 17.2082 11.3452 17.6011C11.5998 17.994 11.9235 18.3039 12.3164 18.5308C12.7093 18.7521 13.1742 18.8628 13.7109 18.8628C14.3916 18.8628 14.9339 18.7549 15.3379 18.5391C15.7419 18.3232 16.0462 18.0133 16.251 17.6094C16.4613 17.2054 16.6107 16.7212 16.6992 16.1567ZM21.7793 12.4297V20H20.2437V11.0186H21.7378L21.7793 12.4297ZM24.585 10.9688L24.5767 12.3965C24.4494 12.3688 24.3276 12.3522 24.2114 12.3467C24.1007 12.3356 23.9735 12.3301 23.8296 12.3301C23.4754 12.3301 23.1628 12.3854 22.8916 12.4961C22.6204 12.6068 22.3908 12.7617 22.2026 12.9609C22.0145 13.1602 21.8651 13.3981 21.7544 13.6748C21.6493 13.946 21.5801 14.2448 21.5469 14.5713L21.1152 14.8203C21.1152 14.278 21.1678 13.7689 21.2729 13.293C21.3836 12.8171 21.5524 12.3965 21.7793 12.0312C22.0062 11.6605 22.2939 11.3727 22.6426 11.168C22.9967 10.9577 23.4173 10.8525 23.9043 10.8525C24.015 10.8525 24.1423 10.8664 24.2861 10.894C24.43 10.9162 24.5296 10.9411 24.585 10.9688ZM25.4316 15.6089V15.418C25.4316 14.7705 25.5257 14.1701 25.7139 13.6167C25.902 13.0578 26.1732 12.5736 26.5273 12.1641C26.8815 11.749 27.3104 11.4281 27.814 11.2012C28.3175 10.9688 28.882 10.8525 29.5073 10.8525C30.1382 10.8525 30.7054 10.9688 31.209 11.2012C31.7181 11.4281 32.1497 11.749 32.5039 12.1641C32.8636 12.5736 33.1375 13.0578 33.3257 13.6167C33.5138 14.1701 33.6079 14.7705 33.6079 15.418V15.6089C33.6079 16.2563 33.5138 16.8568 33.3257 17.4102C33.1375 17.9635 32.8636 18.4478 32.5039 18.8628C32.1497 19.2723 31.7209 19.5933 31.2173 19.8257C30.7192 20.0526 30.1548 20.166 29.5239 20.166C28.8931 20.166 28.3258 20.0526 27.8223 19.8257C27.3187 19.5933 26.887 19.2723 26.5273 18.8628C26.1732 18.4478 25.902 17.9635 25.7139 17.4102C25.5257 16.8568 25.4316 16.2563 25.4316 15.6089ZM26.9673 15.418V15.6089C26.9673 16.0571 27.0199 16.4805 27.125 16.8789C27.2301 17.2718 27.3879 17.6204 27.5981 17.9248C27.814 18.2292 28.0824 18.4699 28.4033 18.647C28.7243 18.8185 29.0978 18.9043 29.5239 18.9043C29.9445 18.9043 30.3125 18.8185 30.6279 18.647C30.9489 18.4699 31.2145 18.2292 31.4248 17.9248C31.6351 17.6204 31.7928 17.2718 31.8979 16.8789C32.0086 16.4805 32.064 16.0571 32.064 15.6089V15.418C32.064 14.9753 32.0086 14.5575 31.8979 14.1646C31.7928 13.7661 31.6323 13.4147 31.4165 13.1104C31.2062 12.8005 30.9406 12.557 30.6196 12.3799C30.3042 12.2028 29.9334 12.1143 29.5073 12.1143C29.0868 12.1143 28.716 12.2028 28.395 12.3799C28.0796 12.557 27.814 12.8005 27.5981 13.1104C27.3879 13.4147 27.2301 13.7661 27.125 14.1646C27.0199 14.5575 26.9673 14.9753 26.9673 15.418ZM40.7632 17.6177C40.7632 17.3963 40.7134 17.1916 40.6138 17.0034C40.5197 16.8097 40.3232 16.6354 40.0244 16.4805C39.7311 16.32 39.2884 16.1816 38.6963 16.0654C38.1982 15.9603 37.7472 15.8358 37.3433 15.6919C36.9448 15.548 36.6045 15.3737 36.3223 15.1689C36.0456 14.9642 35.8325 14.7235 35.6831 14.4468C35.5337 14.1701 35.459 13.8464 35.459 13.4756C35.459 13.1214 35.5365 12.7866 35.6914 12.4712C35.8519 12.1558 36.076 11.8763 36.3638 11.6328C36.6571 11.3893 37.0085 11.1984 37.418 11.0601C37.8275 10.9217 38.284 10.8525 38.7876 10.8525C39.507 10.8525 40.1213 10.9798 40.6304 11.2344C41.1395 11.4889 41.5296 11.8293 41.8008 12.2554C42.0719 12.6759 42.2075 13.1436 42.2075 13.6582H40.6719C40.6719 13.4092 40.5972 13.1685 40.4478 12.936C40.3039 12.6981 40.0908 12.5016 39.8086 12.3467C39.5319 12.1917 39.1916 12.1143 38.7876 12.1143C38.3615 12.1143 38.0156 12.1807 37.75 12.3135C37.4899 12.4408 37.299 12.604 37.1772 12.8032C37.061 13.0024 37.0029 13.2127 37.0029 13.4341C37.0029 13.6001 37.0306 13.7495 37.0859 13.8823C37.1468 14.0096 37.252 14.1286 37.4014 14.2393C37.5508 14.3444 37.7611 14.444 38.0322 14.5381C38.3034 14.6322 38.6493 14.7262 39.0698 14.8203C39.8058 14.9863 40.4118 15.1855 40.8877 15.418C41.3636 15.6504 41.7178 15.9354 41.9502 16.2729C42.1826 16.6105 42.2988 17.02 42.2988 17.5015C42.2988 17.8944 42.2158 18.2541 42.0498 18.5806C41.8893 18.9071 41.6541 19.1893 41.3442 19.4272C41.0399 19.6597 40.6746 19.8423 40.2485 19.9751C39.828 20.1024 39.3548 20.166 38.8291 20.166C38.0378 20.166 37.3682 20.0249 36.8203 19.7427C36.2725 19.4604 35.8574 19.0952 35.5752 18.647C35.293 18.1987 35.1519 17.7256 35.1519 17.2275H36.6958C36.7179 17.6481 36.8397 17.9829 37.061 18.2319C37.2824 18.4754 37.5535 18.6497 37.8745 18.7549C38.1955 18.8545 38.5137 18.9043 38.8291 18.9043C39.2497 18.9043 39.6011 18.849 39.8833 18.7383C40.1711 18.6276 40.3896 18.4754 40.5391 18.2817C40.6885 18.0881 40.7632 17.8667 40.7632 17.6177ZM49.5454 17.6177C49.5454 17.3963 49.4956 17.1916 49.396 17.0034C49.3019 16.8097 49.1055 16.6354 48.8066 16.4805C48.5133 16.32 48.0706 16.1816 47.4785 16.0654C46.9805 15.9603 46.5295 15.8358 46.1255 15.6919C45.7271 15.548 45.3867 15.3737 45.1045 15.1689C44.8278 14.9642 44.6147 14.7235 44.4653 14.4468C44.3159 14.1701 44.2412 13.8464 44.2412 13.4756C44.2412 13.1214 44.3187 12.7866 44.4736 12.4712C44.6341 12.1558 44.8582 11.8763 45.146 11.6328C45.4393 11.3893 45.7907 11.1984 46.2002 11.0601C46.6097 10.9217 47.0662 10.8525 47.5698 10.8525C48.2892 10.8525 48.9035 10.9798 49.4126 11.2344C49.9217 11.4889 50.3118 11.8293 50.583 12.2554C50.8542 12.6759 50.9897 13.1436 50.9897 13.6582H49.4541C49.4541 13.4092 49.3794 13.1685 49.23 12.936C49.0861 12.6981 48.873 12.5016 48.5908 12.3467C48.3141 12.1917 47.9738 12.1143 47.5698 12.1143C47.1437 12.1143 46.7979 12.1807 46.5322 12.3135C46.2721 12.4408 46.0812 12.604 45.9595 12.8032C45.8433 13.0024 45.7852 13.2127 45.7852 13.4341C45.7852 13.6001 45.8128 13.7495 45.8682 13.8823C45.929 14.0096 46.0342 14.1286 46.1836 14.2393C46.333 14.3444 46.5433 14.444 46.8145 14.5381C47.0856 14.6322 47.4315 14.7262 47.8521 14.8203C48.5881 14.9863 49.194 15.1855 49.6699 15.418C50.1458 15.6504 50.5 15.9354 50.7324 16.2729C50.9648 16.6105 51.0811 17.02 51.0811 17.5015C51.0811 17.8944 50.998 18.2541 50.832 18.5806C50.6715 18.9071 50.4364 19.1893 50.1265 19.4272C49.8221 19.6597 49.4569 19.8423 49.0308 19.9751C48.6102 20.1024 48.137 20.166 47.6113 20.166C46.82 20.166 46.1504 20.0249 45.6025 19.7427C45.0547 19.4604 44.6396 19.0952 44.3574 18.647C44.0752 18.1987 43.9341 17.7256 43.9341 17.2275H45.478C45.5002 17.6481 45.6219 17.9829 45.8433 18.2319C46.0646 18.4754 46.3358 18.6497 46.6567 18.7549C46.9777 18.8545 47.2959 18.9043 47.6113 18.9043C48.0319 18.9043 48.3833 18.849 48.6655 18.7383C48.9533 18.6276 49.1719 18.4754 49.3213 18.2817C49.4707 18.0881 49.5454 17.8667 49.5454 17.6177ZM56.2939 14.231V15.4927H52.2432V14.231H56.2939ZM61.3906 18.9043C61.7559 18.9043 62.0934 18.8296 62.4033 18.6802C62.7132 18.5308 62.9678 18.326 63.167 18.0659C63.3662 17.8003 63.4797 17.4987 63.5073 17.1611H64.9683C64.9406 17.6924 64.7607 18.1877 64.4287 18.647C64.1022 19.1007 63.6733 19.4688 63.1421 19.751C62.6108 20.0277 62.027 20.166 61.3906 20.166C60.7155 20.166 60.1261 20.047 59.6226 19.8091C59.1245 19.5711 58.7095 19.2446 58.3774 18.8296C58.0509 18.4146 57.8047 17.9386 57.6387 17.4019C57.4782 16.8595 57.3979 16.2868 57.3979 15.6836V15.335C57.3979 14.7318 57.4782 14.1618 57.6387 13.625C57.8047 13.0827 58.0509 12.604 58.3774 12.189C58.7095 11.7739 59.1245 11.4474 59.6226 11.2095C60.1261 10.9715 60.7155 10.8525 61.3906 10.8525C62.0934 10.8525 62.7077 10.9964 63.2334 11.2842C63.7591 11.5664 64.1714 11.9538 64.4702 12.4463C64.7746 12.9333 64.9406 13.4867 64.9683 14.1064H63.5073C63.4797 13.7357 63.3745 13.4009 63.1919 13.1021C63.0148 12.8032 62.7713 12.5653 62.4614 12.3882C62.1571 12.2056 61.8001 12.1143 61.3906 12.1143C60.9202 12.1143 60.5246 12.2083 60.2036 12.3965C59.8882 12.5791 59.6364 12.8281 59.4482 13.1436C59.2656 13.4535 59.1328 13.7993 59.0498 14.1812C58.9723 14.5575 58.9336 14.9421 58.9336 15.335V15.6836C58.9336 16.0765 58.9723 16.4639 59.0498 16.8457C59.1273 17.2275 59.2573 17.5734 59.4399 17.8833C59.6281 18.1932 59.8799 18.4422 60.1953 18.6304C60.5163 18.813 60.9147 18.9043 61.3906 18.9043ZM68.2305 7.25V20H66.6948V7.25H68.2305ZM67.8652 15.1689L67.2261 15.144C67.2316 14.5298 67.3229 13.9626 67.5 13.4424C67.6771 12.9167 67.9261 12.4601 68.2471 12.0728C68.568 11.6854 68.9499 11.3866 69.3926 11.1763C69.8408 10.9604 70.3361 10.8525 70.8784 10.8525C71.3211 10.8525 71.7196 10.9134 72.0737 11.0352C72.4279 11.1514 72.7295 11.3395 72.9785 11.5996C73.2331 11.8597 73.4268 12.1973 73.5596 12.6123C73.6924 13.0218 73.7588 13.5226 73.7588 14.1147V20H72.2148V14.0981C72.2148 13.6278 72.1457 13.2515 72.0073 12.9692C71.869 12.6815 71.667 12.474 71.4014 12.3467C71.1357 12.2139 70.8092 12.1475 70.4219 12.1475C70.04 12.1475 69.6914 12.2277 69.376 12.3882C69.0661 12.5487 68.7977 12.77 68.5708 13.0522C68.3494 13.3345 68.1751 13.6582 68.0479 14.0234C67.9261 14.3831 67.8652 14.765 67.8652 15.1689ZM81.354 18.4644V13.8408C81.354 13.4867 81.2821 13.1795 81.1382 12.9194C80.9998 12.6538 80.7896 12.4491 80.5073 12.3052C80.2251 12.1613 79.8765 12.0894 79.4614 12.0894C79.0741 12.0894 78.7337 12.1558 78.4404 12.2886C78.1527 12.4214 77.9258 12.5957 77.7598 12.8115C77.5993 13.0273 77.519 13.2598 77.519 13.5088H75.9834C75.9834 13.1878 76.0664 12.8696 76.2324 12.5542C76.3984 12.2388 76.6364 11.9538 76.9463 11.6992C77.2617 11.4391 77.638 11.2344 78.0752 11.085C78.5179 10.93 79.0104 10.8525 79.5527 10.8525C80.2057 10.8525 80.7812 10.9632 81.2793 11.1846C81.7829 11.4059 82.1758 11.7407 82.458 12.189C82.7458 12.6317 82.8896 13.1878 82.8896 13.8574V18.041C82.8896 18.3398 82.9146 18.658 82.9644 18.9956C83.0197 19.3332 83.0999 19.6237 83.2051 19.8672V20H81.603C81.5256 19.8229 81.4647 19.5877 81.4204 19.2944C81.3761 18.9956 81.354 18.7189 81.354 18.4644ZM81.6196 14.5547L81.6362 15.6338H80.084C79.6468 15.6338 79.2567 15.6698 78.9136 15.7417C78.5705 15.8081 78.2827 15.9105 78.0503 16.0488C77.8179 16.1872 77.6408 16.3615 77.519 16.5718C77.3973 16.7765 77.3364 17.0173 77.3364 17.2939C77.3364 17.5762 77.4001 17.8335 77.5273 18.0659C77.6546 18.2983 77.8455 18.4837 78.1001 18.6221C78.3602 18.7549 78.6784 18.8213 79.0547 18.8213C79.5251 18.8213 79.9401 18.7217 80.2998 18.5225C80.6595 18.3232 80.9445 18.0798 81.1548 17.792C81.3706 17.5042 81.4868 17.2248 81.5034 16.9536L82.1592 17.6924C82.1204 17.9248 82.0153 18.1821 81.8438 18.4644C81.6722 18.7466 81.4425 19.0177 81.1548 19.2778C80.8726 19.5324 80.535 19.7454 80.1421 19.917C79.7547 20.083 79.3175 20.166 78.8306 20.166C78.2218 20.166 77.6878 20.047 77.2285 19.8091C76.7747 19.5711 76.4206 19.2529 76.166 18.8545C75.917 18.4505 75.7925 17.9995 75.7925 17.5015C75.7925 17.02 75.8866 16.5967 76.0747 16.2314C76.2629 15.8607 76.534 15.5535 76.8882 15.3101C77.2424 15.061 77.6685 14.8729 78.1665 14.7456C78.6646 14.6183 79.2207 14.5547 79.835 14.5547H81.6196ZM86.9736 11.0186V20H85.4297V11.0186H86.9736ZM85.3135 8.63623C85.3135 8.38721 85.3882 8.17692 85.5376 8.00537C85.6925 7.83382 85.9194 7.74805 86.2183 7.74805C86.5116 7.74805 86.7357 7.83382 86.8906 8.00537C87.0511 8.17692 87.1313 8.38721 87.1313 8.63623C87.1313 8.87419 87.0511 9.07894 86.8906 9.25049C86.7357 9.4165 86.5116 9.49951 86.2183 9.49951C85.9194 9.49951 85.6925 9.4165 85.5376 9.25049C85.3882 9.07894 85.3135 8.87419 85.3135 8.63623ZM90.9746 12.936V20H89.439V11.0186H90.8916L90.9746 12.936ZM90.6094 15.1689L89.9702 15.144C89.9757 14.5298 90.0671 13.9626 90.2441 13.4424C90.4212 12.9167 90.6702 12.4601 90.9912 12.0728C91.3122 11.6854 91.694 11.3866 92.1367 11.1763C92.585 10.9604 93.0802 10.8525 93.6226 10.8525C94.0653 10.8525 94.4637 10.9134 94.8179 11.0352C95.172 11.1514 95.4736 11.3395 95.7227 11.5996C95.9772 11.8597 96.1709 12.1973 96.3037 12.6123C96.4365 13.0218 96.5029 13.5226 96.5029 14.1147V20H94.959V14.0981C94.959 13.6278 94.8898 13.2515 94.7515 12.9692C94.6131 12.6815 94.4111 12.474 94.1455 12.3467C93.8799 12.2139 93.5534 12.1475 93.166 12.1475C92.7842 12.1475 92.4355 12.2277 92.1201 12.3882C91.8102 12.5487 91.5418 12.77 91.3149 13.0522C91.0936 13.3345 90.9193 13.6582 90.792 14.0234C90.6702 14.3831 90.6094 14.765 90.6094 15.1689Z" fill="#FF7CB9"/>
<rect x="0.5" y="0.5" width="105" height="27" rx="4.5" stroke="#FF7CB9"/>
</svg>
