<svg width="98" height="28" viewBox="0 0 98 28" fill="none" xmlns="http://www.w3.org/2000/svg">
<rect x="0.5" y="0.5" width="97" height="27" rx="4.5" fill="#C698DC" fill-opacity="0.1"/>
<path d="M12.6733 20H10.1499L10.1665 18.6968H12.6733C13.5366 18.6968 14.256 18.5169 14.8315 18.1572C15.4071 17.792 15.8387 17.2829 16.1265 16.6299C16.4198 15.9714 16.5664 15.2021 16.5664 14.3223V13.5835C16.5664 12.8918 16.4834 12.2775 16.3174 11.7407C16.1514 11.1984 15.9079 10.7419 15.5869 10.3711C15.266 9.99479 14.873 9.7098 14.4082 9.51611C13.9489 9.32243 13.4204 9.22559 12.8228 9.22559H10.1001V7.91406H12.8228C13.6141 7.91406 14.3363 8.04688 14.9893 8.3125C15.6423 8.57259 16.2039 8.95166 16.6743 9.44971C17.1502 9.94222 17.5155 10.5399 17.77 11.2427C18.0246 11.9399 18.1519 12.7257 18.1519 13.6001V14.3223C18.1519 15.1966 18.0246 15.9852 17.77 16.688C17.5155 17.3853 17.1475 17.9801 16.666 18.4727C16.1901 18.9652 15.6146 19.3442 14.9395 19.6099C14.2699 19.87 13.5145 20 12.6733 20ZM11.0049 7.91406V20H9.40283V7.91406H11.0049ZM24.8506 8.98486L20.8496 20H19.2144L23.8213 7.91406H24.8755L24.8506 8.98486ZM28.2041 20L24.1948 8.98486L24.1699 7.91406H25.2241L29.8477 20H28.2041ZM27.9966 15.5259V16.8374H21.2065V15.5259H27.9966ZM40.6719 13.5752V14.3389C40.6719 15.2464 40.5584 16.0599 40.3315 16.7793C40.1047 17.4987 39.7782 18.1102 39.3521 18.6138C38.9259 19.1174 38.4141 19.502 37.8164 19.7676C37.2243 20.0332 36.5602 20.166 35.8242 20.166C35.1104 20.166 34.4546 20.0332 33.8569 19.7676C33.2648 19.502 32.7502 19.1174 32.313 18.6138C31.8813 18.1102 31.5465 17.4987 31.3086 16.7793C31.0706 16.0599 30.9517 15.2464 30.9517 14.3389V13.5752C30.9517 12.6676 31.0679 11.8569 31.3003 11.1431C31.5382 10.4237 31.873 9.81217 32.3047 9.30859C32.7363 8.79948 33.2482 8.41211 33.8403 8.14648C34.438 7.88086 35.0938 7.74805 35.8076 7.74805C36.5436 7.74805 37.2077 7.88086 37.7998 8.14648C38.3975 8.41211 38.9093 8.79948 39.3354 9.30859C39.7671 9.81217 40.0964 10.4237 40.3232 11.1431C40.5557 11.8569 40.6719 12.6676 40.6719 13.5752ZM39.0864 14.3389V13.5586C39.0864 12.8392 39.0117 12.2028 38.8623 11.6494C38.7184 11.096 38.5054 10.6312 38.2231 10.2549C37.9409 9.87858 37.5951 9.59359 37.1855 9.3999C36.7816 9.20622 36.3223 9.10938 35.8076 9.10938C35.3096 9.10938 34.8586 9.20622 34.4546 9.3999C34.0562 9.59359 33.7131 9.87858 33.4253 10.2549C33.1431 10.6312 32.9245 11.096 32.7695 11.6494C32.6146 12.2028 32.5371 12.8392 32.5371 13.5586V14.3389C32.5371 15.0638 32.6146 15.7057 32.7695 16.2646C32.9245 16.818 33.1458 17.2856 33.4336 17.6675C33.7269 18.0438 34.0728 18.3288 34.4712 18.5225C34.8752 18.7161 35.3262 18.813 35.8242 18.813C36.3444 18.813 36.8065 18.7161 37.2104 18.5225C37.6144 18.3288 37.9548 18.0438 38.2314 17.6675C38.5137 17.2856 38.7267 16.818 38.8706 16.2646C39.0145 15.7057 39.0864 15.0638 39.0864 14.3389ZM48.8896 7.91406V20H47.2876V7.91406H48.8896ZM53.9531 13.3511V14.6626H48.541V13.3511H53.9531ZM54.7749 7.91406V9.22559H48.541V7.91406H54.7749ZM63.5986 7.91406H65.1924V16.0903C65.1924 16.9979 64.9904 17.7533 64.5864 18.3564C64.1825 18.9596 63.6457 19.4134 62.9761 19.7178C62.312 20.0166 61.5898 20.166 60.8096 20.166C59.9906 20.166 59.249 20.0166 58.585 19.7178C57.9264 19.4134 57.4035 18.9596 57.0161 18.3564C56.6343 17.7533 56.4434 16.9979 56.4434 16.0903V7.91406H58.0288V16.0903C58.0288 16.7212 58.145 17.2414 58.3774 17.6509C58.6099 18.0604 58.9336 18.3647 59.3486 18.564C59.7692 18.7632 60.2562 18.8628 60.8096 18.8628C61.3685 18.8628 61.8555 18.7632 62.2705 18.564C62.6911 18.3647 63.0176 18.0604 63.25 17.6509C63.4824 17.2414 63.5986 16.7212 63.5986 16.0903V7.91406ZM77.0044 7.91406V20H75.394L69.3096 10.6782V20H67.7075V7.91406H69.3096L75.4189 17.2607V7.91406H77.0044ZM83.1138 20H80.5903L80.6069 18.6968H83.1138C83.9771 18.6968 84.6965 18.5169 85.272 18.1572C85.8475 17.792 86.2791 17.2829 86.5669 16.6299C86.8602 15.9714 87.0068 15.2021 87.0068 14.3223V13.5835C87.0068 12.8918 86.9238 12.2775 86.7578 11.7407C86.5918 11.1984 86.3483 10.7419 86.0273 10.3711C85.7064 9.99479 85.3135 9.7098 84.8486 9.51611C84.3893 9.32243 83.8608 9.22559 83.2632 9.22559H80.5405V7.91406H83.2632C84.0545 7.91406 84.7767 8.04688 85.4297 8.3125C86.0827 8.57259 86.6444 8.95166 87.1147 9.44971C87.5907 9.94222 87.9559 10.5399 88.2104 11.2427C88.465 11.9399 88.5923 12.7257 88.5923 13.6001V14.3223C88.5923 15.1966 88.465 15.9852 88.2104 16.688C87.9559 17.3853 87.5879 17.9801 87.1064 18.4727C86.6305 18.9652 86.055 19.3442 85.3799 19.6099C84.7103 19.87 83.9549 20 83.1138 20ZM81.4453 7.91406V20H79.8433V7.91406H81.4453Z" fill="#C698DC"/>
<rect x="0.5" y="0.5" width="97" height="27" rx="4.5" stroke="#C698DC"/>
</svg>
