<svg width="51" height="28" viewBox="0 0 51 28" fill="none" xmlns="http://www.w3.org/2000/svg">
<rect x="0.5" y="0.5" width="50" height="27" rx="4.5" fill="#FFCC00" fill-opacity="0.1"/>
<path d="M12.6733 20H10.1499L10.1665 18.6968H12.6733C13.5366 18.6968 14.256 18.5169 14.8315 18.1572C15.4071 17.792 15.8387 17.2829 16.1265 16.6299C16.4198 15.9714 16.5664 15.2021 16.5664 14.3223V13.5835C16.5664 12.8918 16.4834 12.2775 16.3174 11.7407C16.1514 11.1984 15.9079 10.7419 15.5869 10.3711C15.266 9.99479 14.873 9.7098 14.4082 9.51611C13.9489 9.32243 13.4204 9.22559 12.8228 9.22559H10.1001V7.91406H12.8228C13.6141 7.91406 14.3363 8.04688 14.9893 8.3125C15.6423 8.57259 16.2039 8.95166 16.6743 9.44971C17.1502 9.94222 17.5155 10.5399 17.77 11.2427C18.0246 11.9399 18.1519 12.7257 18.1519 13.6001V14.3223C18.1519 15.1966 18.0246 15.9852 17.77 16.688C17.5155 17.3853 17.1475 17.9801 16.666 18.4727C16.1901 18.9652 15.6146 19.3442 14.9395 19.6099C14.2699 19.87 13.5145 20 12.6733 20ZM11.0049 7.91406V20H9.40283V7.91406H11.0049ZM28.2373 18.6968V20H21.8374V18.6968H28.2373ZM22.1611 7.91406V20H20.5591V7.91406H22.1611ZM27.3906 13.1104V14.4136H21.8374V13.1104H27.3906ZM28.1543 7.91406V9.22559H21.8374V7.91406H28.1543ZM31.8232 7.91406V20H30.2212V7.91406H31.8232ZM36.8867 13.3511V14.6626H31.4746V13.3511H36.8867ZM37.7085 7.91406V9.22559H31.4746V7.91406H37.7085ZM41.3359 7.91406V20H39.7339V7.91406H41.3359Z" fill="#FFCC00"/>
<rect x="0.5" y="0.5" width="50" height="27" rx="4.5" stroke="#FFCC00"/>
</svg>
