<svg width="79" height="28" viewBox="0 0 79 28" fill="none" xmlns="http://www.w3.org/2000/svg">
<rect x="0.5" y="0.5" width="78" height="27" rx="4.5" fill="#A3DA58" fill-opacity="0.1"/>
<path d="M18.3345 13.9819V18.4062C18.1851 18.6276 17.9471 18.8766 17.6206 19.1533C17.2941 19.4245 16.8431 19.6624 16.2676 19.8672C15.6976 20.0664 14.9616 20.166 14.0596 20.166C13.3236 20.166 12.6457 20.0387 12.0259 19.7842C11.4116 19.5241 10.8776 19.1478 10.4238 18.6553C9.97559 18.1572 9.62695 17.554 9.37793 16.8457C9.13444 16.1318 9.0127 15.3239 9.0127 14.4219V13.4839C9.0127 12.5819 9.11784 11.7767 9.32812 11.0684C9.54395 10.36 9.85938 9.7596 10.2744 9.26709C10.6895 8.76904 11.1986 8.39274 11.8018 8.13818C12.4049 7.87809 13.0967 7.74805 13.877 7.74805C14.8011 7.74805 15.5731 7.90853 16.1929 8.22949C16.8182 8.54492 17.3052 8.9821 17.6538 9.54102C18.008 10.0999 18.2349 10.7363 18.3345 11.4502H16.7324C16.6605 11.013 16.5166 10.6146 16.3008 10.2549C16.0905 9.89518 15.7889 9.60742 15.396 9.3916C15.0031 9.17025 14.4967 9.05957 13.877 9.05957C13.318 9.05957 12.8338 9.16195 12.4243 9.3667C12.0148 9.57145 11.6772 9.86475 11.4116 10.2466C11.146 10.6284 10.9468 11.0905 10.814 11.6328C10.6867 12.1751 10.623 12.7866 10.623 13.4673V14.4219C10.623 15.1191 10.7033 15.7417 10.8638 16.2896C11.0298 16.8374 11.265 17.305 11.5693 17.6924C11.8737 18.0742 12.2362 18.3647 12.6567 18.564C13.0828 18.7632 13.5532 18.8628 14.0679 18.8628C14.6379 18.8628 15.0999 18.8158 15.4541 18.7217C15.8083 18.6221 16.085 18.5059 16.2842 18.373C16.4834 18.2347 16.6356 18.1047 16.7407 17.9829V15.2769H13.9434V13.9819H18.3345ZM26.0542 18.4644V13.8408C26.0542 13.4867 25.9823 13.1795 25.8384 12.9194C25.7 12.6538 25.4897 12.4491 25.2075 12.3052C24.9253 12.1613 24.5767 12.0894 24.1616 12.0894C23.7743 12.0894 23.4339 12.1558 23.1406 12.2886C22.8529 12.4214 22.626 12.5957 22.46 12.8115C22.2995 13.0273 22.2192 13.2598 22.2192 13.5088H20.6836C20.6836 13.1878 20.7666 12.8696 20.9326 12.5542C21.0986 12.2388 21.3366 11.9538 21.6465 11.6992C21.9619 11.4391 22.3382 11.2344 22.7754 11.085C23.2181 10.93 23.7106 10.8525 24.2529 10.8525C24.9059 10.8525 25.4814 10.9632 25.9795 11.1846C26.4831 11.4059 26.876 11.7407 27.1582 12.189C27.446 12.6317 27.5898 13.1878 27.5898 13.8574V18.041C27.5898 18.3398 27.6147 18.658 27.6646 18.9956C27.7199 19.3332 27.8001 19.6237 27.9053 19.8672V20H26.3032C26.2257 19.8229 26.1649 19.5877 26.1206 19.2944C26.0763 18.9956 26.0542 18.7189 26.0542 18.4644ZM26.3198 14.5547L26.3364 15.6338H24.7842C24.347 15.6338 23.9569 15.6698 23.6138 15.7417C23.2707 15.8081 22.9829 15.9105 22.7505 16.0488C22.5181 16.1872 22.341 16.3615 22.2192 16.5718C22.0975 16.7765 22.0366 17.0173 22.0366 17.2939C22.0366 17.5762 22.1003 17.8335 22.2275 18.0659C22.3548 18.2983 22.5457 18.4837 22.8003 18.6221C23.0604 18.7549 23.3786 18.8213 23.7549 18.8213C24.2253 18.8213 24.6403 18.7217 25 18.5225C25.3597 18.3232 25.6447 18.0798 25.855 17.792C26.0708 17.5042 26.187 17.2248 26.2036 16.9536L26.8594 17.6924C26.8206 17.9248 26.7155 18.1821 26.5439 18.4644C26.3724 18.7466 26.1427 19.0177 25.855 19.2778C25.5728 19.5324 25.2352 19.7454 24.8423 19.917C24.4549 20.083 24.0177 20.166 23.5308 20.166C22.922 20.166 22.388 20.047 21.9287 19.8091C21.4749 19.5711 21.1208 19.2529 20.8662 18.8545C20.6172 18.4505 20.4927 17.9995 20.4927 17.5015C20.4927 17.02 20.5868 16.5967 20.7749 16.2314C20.9631 15.8607 21.2342 15.5535 21.5884 15.3101C21.9425 15.061 22.3687 14.8729 22.8667 14.7456C23.3647 14.6183 23.9209 14.5547 24.5352 14.5547H26.3198ZM31.5327 12.8032V20H29.9888V11.0186H31.4497L31.5327 12.8032ZM31.2173 15.1689L30.5034 15.144C30.509 14.5298 30.5892 13.9626 30.7441 13.4424C30.8991 12.9167 31.1287 12.4601 31.4331 12.0728C31.7375 11.6854 32.1165 11.3866 32.5703 11.1763C33.0241 10.9604 33.5498 10.8525 34.1475 10.8525C34.568 10.8525 34.9554 10.9134 35.3096 11.0352C35.6637 11.1514 35.9709 11.3368 36.231 11.5913C36.491 11.8459 36.693 12.1724 36.8369 12.5708C36.9808 12.9692 37.0527 13.4507 37.0527 14.0151V20H35.5171V14.0898C35.5171 13.6195 35.4368 13.2432 35.2764 12.9609C35.1214 12.6787 34.9001 12.474 34.6123 12.3467C34.3245 12.2139 33.987 12.1475 33.5996 12.1475C33.1458 12.1475 32.7668 12.2277 32.4624 12.3882C32.158 12.5487 31.9146 12.77 31.7319 13.0522C31.5493 13.3345 31.4165 13.6582 31.3335 14.0234C31.256 14.3831 31.2173 14.765 31.2173 15.1689ZM37.0361 14.3223L36.0068 14.6377C36.0124 14.1452 36.0926 13.672 36.2476 13.2183C36.408 12.7645 36.6377 12.3605 36.9365 12.0063C37.2409 11.6522 37.6144 11.3727 38.0571 11.168C38.4998 10.9577 39.0062 10.8525 39.5762 10.8525C40.0576 10.8525 40.4837 10.9162 40.8545 11.0435C41.2308 11.1707 41.5462 11.3672 41.8008 11.6328C42.0609 11.8929 42.2573 12.2277 42.3901 12.6372C42.5229 13.0467 42.5894 13.5337 42.5894 14.0981V20H41.0454V14.0815C41.0454 13.578 40.9652 13.1878 40.8047 12.9111C40.6497 12.6289 40.4284 12.4325 40.1406 12.3218C39.8584 12.2056 39.5208 12.1475 39.1279 12.1475C38.7904 12.1475 38.4915 12.2056 38.2314 12.3218C37.9714 12.438 37.7528 12.5985 37.5757 12.8032C37.3986 13.0024 37.263 13.2321 37.1689 13.4922C37.0804 13.7523 37.0361 14.029 37.0361 14.3223ZM48.6406 20.166C48.0153 20.166 47.4481 20.0609 46.939 19.8506C46.4354 19.6348 46.001 19.3332 45.6357 18.9458C45.276 18.5584 44.9993 18.0991 44.8057 17.5679C44.612 17.0366 44.5151 16.4556 44.5151 15.8247V15.4761C44.5151 14.7456 44.623 14.0954 44.8389 13.5254C45.0547 12.9499 45.348 12.4629 45.7188 12.0645C46.0895 11.666 46.5101 11.3644 46.9805 11.1597C47.4508 10.9549 47.9378 10.8525 48.4414 10.8525C49.0833 10.8525 49.6367 10.9632 50.1016 11.1846C50.5719 11.4059 50.9565 11.7158 51.2554 12.1143C51.5542 12.5072 51.7756 12.972 51.9194 13.5088C52.0633 14.04 52.1353 14.6211 52.1353 15.252V15.9409H45.4282V14.6875H50.5996V14.5713C50.5775 14.1729 50.4945 13.7855 50.3506 13.4092C50.2122 13.0329 49.9909 12.723 49.6865 12.4795C49.3822 12.236 48.9671 12.1143 48.4414 12.1143C48.0928 12.1143 47.7718 12.189 47.4785 12.3384C47.1852 12.4823 46.9334 12.6981 46.7231 12.9858C46.5129 13.2736 46.3496 13.625 46.2334 14.04C46.1172 14.4551 46.0591 14.9338 46.0591 15.4761V15.8247C46.0591 16.2508 46.1172 16.652 46.2334 17.0283C46.3551 17.3991 46.5295 17.7256 46.7563 18.0078C46.9888 18.29 47.2682 18.5114 47.5947 18.6719C47.9268 18.8324 48.3031 18.9126 48.7236 18.9126C49.266 18.9126 49.7253 18.8019 50.1016 18.5806C50.4779 18.3592 50.8071 18.0632 51.0894 17.6924L52.019 18.4312C51.8254 18.7244 51.5791 19.0039 51.2803 19.2695C50.9814 19.5352 50.6134 19.751 50.1763 19.917C49.7446 20.083 49.2327 20.166 48.6406 20.166ZM57.124 14.231V15.4927H53.0732V14.231H57.124ZM60.4609 7.91406V20H58.8589V7.91406H60.4609ZM65.5244 13.3511V14.6626H60.1123V13.3511H65.5244ZM66.3462 7.91406V9.22559H60.1123V7.91406H66.3462ZM69.6914 11.0186V20H68.1475V11.0186H69.6914ZM68.0312 8.63623C68.0312 8.38721 68.106 8.17692 68.2554 8.00537C68.4103 7.83382 68.6372 7.74805 68.936 7.74805C69.2293 7.74805 69.4535 7.83382 69.6084 8.00537C69.7689 8.17692 69.8491 8.38721 69.8491 8.63623C69.8491 8.87419 69.7689 9.07894 69.6084 9.25049C69.4535 9.4165 69.2293 9.49951 68.936 9.49951C68.6372 9.49951 68.4103 9.4165 68.2554 9.25049C68.106 9.07894 68.0312 8.87419 68.0312 8.63623Z" fill="#C0FF6A"/>
<rect x="0.5" y="0.5" width="78" height="27" rx="4.5" stroke="#A3DA58"/>
</svg>
