<svg width="125" height="28" viewBox="0 0 125 28" fill="none" xmlns="http://www.w3.org/2000/svg">
<rect x="0.5" y="0.5" width="124" height="27" rx="4.5" fill="#FF7CB9" fill-opacity="0.1"/>
<path d="M9.90918 7.91406H11.4614L15.4209 17.7671L19.3721 7.91406H20.9326L16.0186 20H14.8066L9.90918 7.91406ZM9.40283 7.91406H10.7725L10.9966 15.2852V20H9.40283V7.91406ZM20.061 7.91406H21.4307V20H19.8369V15.2852L20.061 7.91406ZM27.7393 20.166C27.1139 20.166 26.5467 20.0609 26.0376 19.8506C25.534 19.6348 25.0996 19.3332 24.7344 18.9458C24.3747 18.5584 24.098 18.0991 23.9043 17.5679C23.7106 17.0366 23.6138 16.4556 23.6138 15.8247V15.4761C23.6138 14.7456 23.7217 14.0954 23.9375 13.5254C24.1533 12.9499 24.4466 12.4629 24.8174 12.0645C25.1882 11.666 25.6087 11.3644 26.0791 11.1597C26.5495 10.9549 27.0365 10.8525 27.54 10.8525C28.182 10.8525 28.7354 10.9632 29.2002 11.1846C29.6706 11.4059 30.0552 11.7158 30.354 12.1143C30.6528 12.5072 30.8742 12.972 31.0181 13.5088C31.1619 14.04 31.2339 14.6211 31.2339 15.252V15.9409H24.5269V14.6875H29.6982V14.5713C29.6761 14.1729 29.5931 13.7855 29.4492 13.4092C29.3109 13.0329 29.0895 12.723 28.7852 12.4795C28.4808 12.236 28.0658 12.1143 27.54 12.1143C27.1914 12.1143 26.8704 12.189 26.5771 12.3384C26.2839 12.4823 26.0321 12.6981 25.8218 12.9858C25.6115 13.2736 25.4482 13.625 25.332 14.04C25.2158 14.4551 25.1577 14.9338 25.1577 15.4761V15.8247C25.1577 16.2508 25.2158 16.652 25.332 17.0283C25.4538 17.3991 25.6281 17.7256 25.855 18.0078C26.0874 18.29 26.3669 18.5114 26.6934 18.6719C27.0254 18.8324 27.4017 18.9126 27.8223 18.9126C28.3646 18.9126 28.8239 18.8019 29.2002 18.5806C29.5765 18.3592 29.9058 18.0632 30.188 17.6924L31.1177 18.4312C30.924 18.7244 30.6777 19.0039 30.3789 19.2695C30.0801 19.5352 29.7121 19.751 29.2749 19.917C28.8433 20.083 28.3314 20.166 27.7393 20.166ZM36.7871 11.0186V12.1973H31.9312V11.0186H36.7871ZM33.5747 8.83545H35.1104V17.7754C35.1104 18.0798 35.1574 18.3094 35.2515 18.4644C35.3455 18.6193 35.4673 18.7217 35.6167 18.7715C35.7661 18.8213 35.9266 18.8462 36.0981 18.8462C36.2254 18.8462 36.3582 18.8351 36.4966 18.813C36.6405 18.7853 36.7484 18.7632 36.8203 18.7466L36.8286 20C36.7069 20.0387 36.5464 20.0747 36.3472 20.1079C36.1535 20.1466 35.9183 20.166 35.6416 20.166C35.2653 20.166 34.9194 20.0913 34.604 19.9419C34.2886 19.7925 34.0368 19.5435 33.8486 19.1948C33.666 18.8407 33.5747 18.3647 33.5747 17.7671V8.83545ZM43.8843 18.4644V13.8408C43.8843 13.4867 43.8123 13.1795 43.6685 12.9194C43.5301 12.6538 43.3198 12.4491 43.0376 12.3052C42.7554 12.1613 42.4067 12.0894 41.9917 12.0894C41.6043 12.0894 41.264 12.1558 40.9707 12.2886C40.6829 12.4214 40.4561 12.5957 40.29 12.8115C40.1296 13.0273 40.0493 13.2598 40.0493 13.5088H38.5137C38.5137 13.1878 38.5967 12.8696 38.7627 12.5542C38.9287 12.2388 39.1667 11.9538 39.4766 11.6992C39.792 11.4391 40.1683 11.2344 40.6055 11.085C41.0482 10.93 41.5407 10.8525 42.083 10.8525C42.736 10.8525 43.3115 10.9632 43.8096 11.1846C44.3132 11.4059 44.7061 11.7407 44.9883 12.189C45.276 12.6317 45.4199 13.1878 45.4199 13.8574V18.041C45.4199 18.3398 45.4448 18.658 45.4946 18.9956C45.55 19.3332 45.6302 19.6237 45.7354 19.8672V20H44.1333C44.0558 19.8229 43.995 19.5877 43.9507 19.2944C43.9064 18.9956 43.8843 18.7189 43.8843 18.4644ZM44.1499 14.5547L44.1665 15.6338H42.6143C42.1771 15.6338 41.7869 15.6698 41.4438 15.7417C41.1007 15.8081 40.813 15.9105 40.5806 16.0488C40.3481 16.1872 40.1711 16.3615 40.0493 16.5718C39.9276 16.7765 39.8667 17.0173 39.8667 17.2939C39.8667 17.5762 39.9303 17.8335 40.0576 18.0659C40.1849 18.2983 40.3758 18.4837 40.6304 18.6221C40.8905 18.7549 41.2087 18.8213 41.585 18.8213C42.0553 18.8213 42.4704 18.7217 42.8301 18.5225C43.1898 18.3232 43.4748 18.0798 43.6851 17.792C43.9009 17.5042 44.0171 17.2248 44.0337 16.9536L44.6895 17.6924C44.6507 17.9248 44.5456 18.1821 44.374 18.4644C44.2025 18.7466 43.9728 19.0177 43.6851 19.2778C43.4028 19.5324 43.0653 19.7454 42.6724 19.917C42.285 20.083 41.8478 20.166 41.3608 20.166C40.7521 20.166 40.2181 20.047 39.7588 19.8091C39.305 19.5711 38.9508 19.2529 38.6963 18.8545C38.4473 18.4505 38.3228 17.9995 38.3228 17.5015C38.3228 17.02 38.4168 16.5967 38.605 16.2314C38.7931 15.8607 39.0643 15.5535 39.4185 15.3101C39.7726 15.061 40.1987 14.8729 40.6968 14.7456C41.1948 14.6183 41.751 14.5547 42.3652 14.5547H44.1499ZM59.1992 7.91406H60.793V16.0903C60.793 16.9979 60.591 17.7533 60.187 18.3564C59.783 18.9596 59.2463 19.4134 58.5767 19.7178C57.9126 20.0166 57.1904 20.166 56.4102 20.166C55.5911 20.166 54.8496 20.0166 54.1855 19.7178C53.527 19.4134 53.0041 18.9596 52.6167 18.3564C52.2349 17.7533 52.0439 16.9979 52.0439 16.0903V7.91406H53.6294V16.0903C53.6294 16.7212 53.7456 17.2414 53.978 17.6509C54.2104 18.0604 54.5342 18.3647 54.9492 18.564C55.3698 18.7632 55.8568 18.8628 56.4102 18.8628C56.9691 18.8628 57.4561 18.7632 57.8711 18.564C58.2917 18.3647 58.6182 18.0604 58.8506 17.6509C59.083 17.2414 59.1992 16.7212 59.1992 16.0903V7.91406ZM64.6113 12.936V20H63.0757V11.0186H64.5283L64.6113 12.936ZM64.2461 15.1689L63.6069 15.144C63.6125 14.5298 63.7038 13.9626 63.8809 13.4424C64.0579 12.9167 64.307 12.4601 64.6279 12.0728C64.9489 11.6854 65.3307 11.3866 65.7734 11.1763C66.2217 10.9604 66.717 10.8525 67.2593 10.8525C67.702 10.8525 68.1004 10.9134 68.4546 11.0352C68.8088 11.1514 69.1104 11.3395 69.3594 11.5996C69.6139 11.8597 69.8076 12.1973 69.9404 12.6123C70.0732 13.0218 70.1396 13.5226 70.1396 14.1147V20H68.5957V14.0981C68.5957 13.6278 68.5265 13.2515 68.3882 12.9692C68.2498 12.6815 68.0479 12.474 67.7822 12.3467C67.5166 12.2139 67.1901 12.1475 66.8027 12.1475C66.4209 12.1475 66.0723 12.2277 65.7568 12.3882C65.4469 12.5487 65.1785 12.77 64.9517 13.0522C64.7303 13.3345 64.556 13.6582 64.4287 14.0234C64.307 14.3831 64.2461 14.765 64.2461 15.1689ZM74.1406 11.0186V20H72.5967V11.0186H74.1406ZM72.4805 8.63623C72.4805 8.38721 72.5552 8.17692 72.7046 8.00537C72.8595 7.83382 73.0864 7.74805 73.3853 7.74805C73.6785 7.74805 73.9027 7.83382 74.0576 8.00537C74.2181 8.17692 74.2983 8.38721 74.2983 8.63623C74.2983 8.87419 74.2181 9.07894 74.0576 9.25049C73.9027 9.4165 73.6785 9.49951 73.3853 9.49951C73.0864 9.49951 72.8595 9.4165 72.7046 9.25049C72.5552 9.07894 72.4805 8.87419 72.4805 8.63623ZM79.3369 18.6138L81.7939 11.0186H83.3628L80.1338 20H79.1045L79.3369 18.6138ZM77.2866 11.0186L79.8184 18.6553L79.9927 20H78.9634L75.7095 11.0186H77.2866ZM88.4512 20.166C87.8258 20.166 87.2586 20.0609 86.7495 19.8506C86.2459 19.6348 85.8115 19.3332 85.4463 18.9458C85.0866 18.5584 84.8099 18.0991 84.6162 17.5679C84.4225 17.0366 84.3257 16.4556 84.3257 15.8247V15.4761C84.3257 14.7456 84.4336 14.0954 84.6494 13.5254C84.8652 12.9499 85.1585 12.4629 85.5293 12.0645C85.9001 11.666 86.3206 11.3644 86.791 11.1597C87.2614 10.9549 87.7484 10.8525 88.252 10.8525C88.8939 10.8525 89.4473 10.9632 89.9121 11.1846C90.3825 11.4059 90.7671 11.7158 91.0659 12.1143C91.3647 12.5072 91.5861 12.972 91.73 13.5088C91.8739 14.04 91.9458 14.6211 91.9458 15.252V15.9409H85.2388V14.6875H90.4102V14.5713C90.388 14.1729 90.305 13.7855 90.1611 13.4092C90.0228 13.0329 89.8014 12.723 89.4971 12.4795C89.1927 12.236 88.7777 12.1143 88.252 12.1143C87.9033 12.1143 87.5824 12.189 87.2891 12.3384C86.9958 12.4823 86.744 12.6981 86.5337 12.9858C86.3234 13.2736 86.1602 13.625 86.0439 14.04C85.9277 14.4551 85.8696 14.9338 85.8696 15.4761V15.8247C85.8696 16.2508 85.9277 16.652 86.0439 17.0283C86.1657 17.3991 86.34 17.7256 86.5669 18.0078C86.7993 18.29 87.0788 18.5114 87.4053 18.6719C87.7373 18.8324 88.1136 18.9126 88.5342 18.9126C89.0765 18.9126 89.5358 18.8019 89.9121 18.5806C90.2884 18.3592 90.6177 18.0632 90.8999 17.6924L91.8296 18.4312C91.6359 18.7244 91.3896 19.0039 91.0908 19.2695C90.792 19.5352 90.424 19.751 89.9868 19.917C89.5552 20.083 89.0433 20.166 88.4512 20.166ZM95.2744 12.4297V20H93.7388V11.0186H95.2329L95.2744 12.4297ZM98.0801 10.9688L98.0718 12.3965C97.9445 12.3688 97.8228 12.3522 97.7065 12.3467C97.5959 12.3356 97.4686 12.3301 97.3247 12.3301C96.9705 12.3301 96.6579 12.3854 96.3867 12.4961C96.1156 12.6068 95.8859 12.7617 95.6978 12.9609C95.5096 13.1602 95.3602 13.3981 95.2495 13.6748C95.1444 13.946 95.0752 14.2448 95.042 14.5713L94.6104 14.8203C94.6104 14.278 94.6629 13.7689 94.7681 13.293C94.8787 12.8171 95.0475 12.3965 95.2744 12.0312C95.5013 11.6605 95.7891 11.3727 96.1377 11.168C96.4919 10.9577 96.9124 10.8525 97.3994 10.8525C97.5101 10.8525 97.6374 10.8664 97.7812 10.894C97.9251 10.9162 98.0247 10.9411 98.0801 10.9688ZM104.729 17.6177C104.729 17.3963 104.679 17.1916 104.58 17.0034C104.486 16.8097 104.289 16.6354 103.99 16.4805C103.697 16.32 103.254 16.1816 102.662 16.0654C102.164 15.9603 101.713 15.8358 101.309 15.6919C100.911 15.548 100.57 15.3737 100.288 15.1689C100.011 14.9642 99.7983 14.7235 99.6489 14.4468C99.4995 14.1701 99.4248 13.8464 99.4248 13.4756C99.4248 13.1214 99.5023 12.7866 99.6572 12.4712C99.8177 12.1558 100.042 11.8763 100.33 11.6328C100.623 11.3893 100.974 11.1984 101.384 11.0601C101.793 10.9217 102.25 10.8525 102.753 10.8525C103.473 10.8525 104.087 10.9798 104.596 11.2344C105.105 11.4889 105.495 11.8293 105.767 12.2554C106.038 12.6759 106.173 13.1436 106.173 13.6582H104.638C104.638 13.4092 104.563 13.1685 104.414 12.936C104.27 12.6981 104.057 12.5016 103.774 12.3467C103.498 12.1917 103.157 12.1143 102.753 12.1143C102.327 12.1143 101.981 12.1807 101.716 12.3135C101.456 12.4408 101.265 12.604 101.143 12.8032C101.027 13.0024 100.969 13.2127 100.969 13.4341C100.969 13.6001 100.996 13.7495 101.052 13.8823C101.113 14.0096 101.218 14.1286 101.367 14.2393C101.517 14.3444 101.727 14.444 101.998 14.5381C102.269 14.6322 102.615 14.7262 103.036 14.8203C103.772 14.9863 104.378 15.1855 104.854 15.418C105.329 15.6504 105.684 15.9354 105.916 16.2729C106.148 16.6105 106.265 17.02 106.265 17.5015C106.265 17.8944 106.182 18.2541 106.016 18.5806C105.855 18.9071 105.62 19.1893 105.31 19.4272C105.006 19.6597 104.64 19.8423 104.214 19.9751C103.794 20.1024 103.321 20.166 102.795 20.166C102.004 20.166 101.334 20.0249 100.786 19.7427C100.238 19.4604 99.8232 19.0952 99.541 18.647C99.2588 18.1987 99.1177 17.7256 99.1177 17.2275H100.662C100.684 17.6481 100.806 17.9829 101.027 18.2319C101.248 18.4754 101.519 18.6497 101.84 18.7549C102.161 18.8545 102.479 18.9043 102.795 18.9043C103.215 18.9043 103.567 18.849 103.849 18.7383C104.137 18.6276 104.355 18.4754 104.505 18.2817C104.654 18.0881 104.729 17.8667 104.729 17.6177ZM112.009 20.166C111.383 20.166 110.816 20.0609 110.307 19.8506C109.804 19.6348 109.369 19.3332 109.004 18.9458C108.644 18.5584 108.368 18.0991 108.174 17.5679C107.98 17.0366 107.883 16.4556 107.883 15.8247V15.4761C107.883 14.7456 107.991 14.0954 108.207 13.5254C108.423 12.9499 108.716 12.4629 109.087 12.0645C109.458 11.666 109.878 11.3644 110.349 11.1597C110.819 10.9549 111.306 10.8525 111.81 10.8525C112.451 10.8525 113.005 10.9632 113.47 11.1846C113.94 11.4059 114.325 11.7158 114.624 12.1143C114.922 12.5072 115.144 12.972 115.288 13.5088C115.431 14.04 115.503 14.6211 115.503 15.252V15.9409H108.796V14.6875H113.968V14.5713C113.946 14.1729 113.863 13.7855 113.719 13.4092C113.58 13.0329 113.359 12.723 113.055 12.4795C112.75 12.236 112.335 12.1143 111.81 12.1143C111.461 12.1143 111.14 12.189 110.847 12.3384C110.553 12.4823 110.302 12.6981 110.091 12.9858C109.881 13.2736 109.718 13.625 109.602 14.04C109.485 14.4551 109.427 14.9338 109.427 15.4761V15.8247C109.427 16.2508 109.485 16.652 109.602 17.0283C109.723 17.3991 109.898 17.7256 110.125 18.0078C110.357 18.29 110.636 18.5114 110.963 18.6719C111.295 18.8324 111.671 18.9126 112.092 18.9126C112.634 18.9126 113.093 18.8019 113.47 18.5806C113.846 18.3592 114.175 18.0632 114.458 17.6924L115.387 18.4312C115.194 18.7244 114.947 19.0039 114.648 19.2695C114.35 19.5352 113.982 19.751 113.544 19.917C113.113 20.083 112.601 20.166 112.009 20.166Z" fill="#FF7CB9"/>
<rect x="0.5" y="0.5" width="124" height="27" rx="4.5" stroke="#FF7CB9"/>
</svg>
