<svg width="116" height="28" viewBox="0 0 116 28" fill="none" xmlns="http://www.w3.org/2000/svg">
<rect x="0.5" y="0.5" width="115" height="27" rx="4.5" fill="#FFA235" fill-opacity="0.1"/>
<path d="M9.90918 7.91406H11.4614L15.4209 17.7671L19.3721 7.91406H20.9326L16.0186 20H14.8066L9.90918 7.91406ZM9.40283 7.91406H10.7725L10.9966 15.2852V20H9.40283V7.91406ZM20.061 7.91406H21.4307V20H19.8369V15.2852L20.061 7.91406ZM23.6055 15.6089V15.418C23.6055 14.7705 23.6995 14.1701 23.8877 13.6167C24.0758 13.0578 24.347 12.5736 24.7012 12.1641C25.0553 11.749 25.4842 11.4281 25.9878 11.2012C26.4914 10.9688 27.0558 10.8525 27.6812 10.8525C28.312 10.8525 28.8792 10.9688 29.3828 11.2012C29.8919 11.4281 30.3236 11.749 30.6777 12.1641C31.0374 12.5736 31.3114 13.0578 31.4995 13.6167C31.6877 14.1701 31.7817 14.7705 31.7817 15.418V15.6089C31.7817 16.2563 31.6877 16.8568 31.4995 17.4102C31.3114 17.9635 31.0374 18.4478 30.6777 18.8628C30.3236 19.2723 29.8947 19.5933 29.3911 19.8257C28.8931 20.0526 28.3286 20.166 27.6978 20.166C27.0669 20.166 26.4997 20.0526 25.9961 19.8257C25.4925 19.5933 25.0609 19.2723 24.7012 18.8628C24.347 18.4478 24.0758 17.9635 23.8877 17.4102C23.6995 16.8568 23.6055 16.2563 23.6055 15.6089ZM25.1411 15.418V15.6089C25.1411 16.0571 25.1937 16.4805 25.2988 16.8789C25.404 17.2718 25.5617 17.6204 25.772 17.9248C25.9878 18.2292 26.2562 18.4699 26.5771 18.647C26.8981 18.8185 27.2716 18.9043 27.6978 18.9043C28.1183 18.9043 28.4863 18.8185 28.8018 18.647C29.1227 18.4699 29.3883 18.2292 29.5986 17.9248C29.8089 17.6204 29.9666 17.2718 30.0718 16.8789C30.1825 16.4805 30.2378 16.0571 30.2378 15.6089V15.418C30.2378 14.9753 30.1825 14.5575 30.0718 14.1646C29.9666 13.7661 29.8062 13.4147 29.5903 13.1104C29.38 12.8005 29.1144 12.557 28.7935 12.3799C28.478 12.2028 28.1073 12.1143 27.6812 12.1143C27.2606 12.1143 26.8898 12.2028 26.5688 12.3799C26.2534 12.557 25.9878 12.8005 25.772 13.1104C25.5617 13.4147 25.404 13.7661 25.2988 14.1646C25.1937 14.5575 25.1411 14.9753 25.1411 15.418ZM36.3057 18.6138L38.7627 11.0186H40.3315L37.1025 20H36.0732L36.3057 18.6138ZM34.2554 11.0186L36.7871 18.6553L36.9614 20H35.9321L32.6782 11.0186H34.2554ZM45.4199 20.166C44.7946 20.166 44.2274 20.0609 43.7183 19.8506C43.2147 19.6348 42.7803 19.3332 42.415 18.9458C42.0553 18.5584 41.7786 18.0991 41.585 17.5679C41.3913 17.0366 41.2944 16.4556 41.2944 15.8247V15.4761C41.2944 14.7456 41.4023 14.0954 41.6182 13.5254C41.834 12.9499 42.1273 12.4629 42.498 12.0645C42.8688 11.666 43.2894 11.3644 43.7598 11.1597C44.2301 10.9549 44.7171 10.8525 45.2207 10.8525C45.8626 10.8525 46.416 10.9632 46.8809 11.1846C47.3512 11.4059 47.7358 11.7158 48.0347 12.1143C48.3335 12.5072 48.5549 12.972 48.6987 13.5088C48.8426 14.04 48.9146 14.6211 48.9146 15.252V15.9409H42.2075V14.6875H47.3789V14.5713C47.3568 14.1729 47.2738 13.7855 47.1299 13.4092C46.9915 13.0329 46.7702 12.723 46.4658 12.4795C46.1615 12.236 45.7464 12.1143 45.2207 12.1143C44.8721 12.1143 44.5511 12.189 44.2578 12.3384C43.9645 12.4823 43.7127 12.6981 43.5024 12.9858C43.2922 13.2736 43.1289 13.625 43.0127 14.04C42.8965 14.4551 42.8384 14.9338 42.8384 15.4761V15.8247C42.8384 16.2508 42.8965 16.652 43.0127 17.0283C43.1344 17.3991 43.3088 17.7256 43.5356 18.0078C43.7681 18.29 44.0475 18.5114 44.374 18.6719C44.7061 18.8324 45.0824 18.9126 45.5029 18.9126C46.0452 18.9126 46.5046 18.8019 46.8809 18.5806C47.2572 18.3592 47.5864 18.0632 47.8687 17.6924L48.7983 18.4312C48.6047 18.7244 48.3584 19.0039 48.0596 19.2695C47.7607 19.5352 47.3927 19.751 46.9556 19.917C46.5239 20.083 46.012 20.166 45.4199 20.166ZM58.6846 11.0186V12.1973H53.8286V11.0186H58.6846ZM55.4722 8.83545H57.0078V17.7754C57.0078 18.0798 57.0549 18.3094 57.1489 18.4644C57.243 18.6193 57.3647 18.7217 57.5142 18.7715C57.6636 18.8213 57.8241 18.8462 57.9956 18.8462C58.1229 18.8462 58.2557 18.8351 58.394 18.813C58.5379 18.7853 58.6458 18.7632 58.7178 18.7466L58.7261 20C58.6043 20.0387 58.4438 20.0747 58.2446 20.1079C58.0509 20.1466 57.8158 20.166 57.5391 20.166C57.1628 20.166 56.8169 20.0913 56.5015 19.9419C56.186 19.7925 55.9342 19.5435 55.7461 19.1948C55.5635 18.8407 55.4722 18.3647 55.4722 17.7671V8.83545ZM59.9131 15.6089V15.418C59.9131 14.7705 60.0072 14.1701 60.1953 13.6167C60.3835 13.0578 60.6546 12.5736 61.0088 12.1641C61.363 11.749 61.7918 11.4281 62.2954 11.2012C62.799 10.9688 63.3634 10.8525 63.9888 10.8525C64.6196 10.8525 65.1868 10.9688 65.6904 11.2012C66.1995 11.4281 66.6312 11.749 66.9854 12.1641C67.3451 12.5736 67.619 13.0578 67.8071 13.6167C67.9953 14.1701 68.0894 14.7705 68.0894 15.418V15.6089C68.0894 16.2563 67.9953 16.8568 67.8071 17.4102C67.619 17.9635 67.3451 18.4478 66.9854 18.8628C66.6312 19.2723 66.2023 19.5933 65.6987 19.8257C65.2007 20.0526 64.6362 20.166 64.0054 20.166C63.3745 20.166 62.8073 20.0526 62.3037 19.8257C61.8001 19.5933 61.3685 19.2723 61.0088 18.8628C60.6546 18.4478 60.3835 17.9635 60.1953 17.4102C60.0072 16.8568 59.9131 16.2563 59.9131 15.6089ZM61.4487 15.418V15.6089C61.4487 16.0571 61.5013 16.4805 61.6064 16.8789C61.7116 17.2718 61.8693 17.6204 62.0796 17.9248C62.2954 18.2292 62.5638 18.4699 62.8848 18.647C63.2057 18.8185 63.5793 18.9043 64.0054 18.9043C64.4259 18.9043 64.7939 18.8185 65.1094 18.647C65.4303 18.4699 65.696 18.2292 65.9062 17.9248C66.1165 17.6204 66.2743 17.2718 66.3794 16.8789C66.4901 16.4805 66.5454 16.0571 66.5454 15.6089V15.418C66.5454 14.9753 66.4901 14.5575 66.3794 14.1646C66.2743 13.7661 66.1138 13.4147 65.8979 13.1104C65.6877 12.8005 65.422 12.557 65.1011 12.3799C64.7856 12.2028 64.4149 12.1143 63.9888 12.1143C63.5682 12.1143 63.1974 12.2028 62.8765 12.3799C62.561 12.557 62.2954 12.8005 62.0796 13.1104C61.8693 13.4147 61.7116 13.7661 61.6064 14.1646C61.5013 14.5575 61.4487 14.9753 61.4487 15.418ZM82.1426 18.6968V20H75.7427V18.6968H82.1426ZM76.0664 7.91406V20H74.4644V7.91406H76.0664ZM81.2959 13.1104V14.4136H75.7427V13.1104H81.2959ZM82.0596 7.91406V9.22559H75.7427V7.91406H82.0596ZM89.1899 18.4644V13.8408C89.1899 13.4867 89.118 13.1795 88.9741 12.9194C88.8358 12.6538 88.6255 12.4491 88.3433 12.3052C88.061 12.1613 87.7124 12.0894 87.2974 12.0894C86.91 12.0894 86.5697 12.1558 86.2764 12.2886C85.9886 12.4214 85.7617 12.5957 85.5957 12.8115C85.4352 13.0273 85.355 13.2598 85.355 13.5088H83.8193C83.8193 13.1878 83.9023 12.8696 84.0684 12.5542C84.2344 12.2388 84.4723 11.9538 84.7822 11.6992C85.0977 11.4391 85.474 11.2344 85.9111 11.085C86.3538 10.93 86.8464 10.8525 87.3887 10.8525C88.0417 10.8525 88.6172 10.9632 89.1152 11.1846C89.6188 11.4059 90.0117 11.7407 90.2939 12.189C90.5817 12.6317 90.7256 13.1878 90.7256 13.8574V18.041C90.7256 18.3398 90.7505 18.658 90.8003 18.9956C90.8556 19.3332 90.9359 19.6237 91.041 19.8672V20H89.439C89.3615 19.8229 89.3006 19.5877 89.2563 19.2944C89.2121 18.9956 89.1899 18.7189 89.1899 18.4644ZM89.4556 14.5547L89.4722 15.6338H87.9199C87.4827 15.6338 87.0926 15.6698 86.7495 15.7417C86.4064 15.8081 86.1187 15.9105 85.8862 16.0488C85.6538 16.1872 85.4767 16.3615 85.355 16.5718C85.2332 16.7765 85.1724 17.0173 85.1724 17.2939C85.1724 17.5762 85.236 17.8335 85.3633 18.0659C85.4906 18.2983 85.6815 18.4837 85.936 18.6221C86.1961 18.7549 86.5143 18.8213 86.8906 18.8213C87.361 18.8213 87.776 18.7217 88.1357 18.5225C88.4954 18.3232 88.7804 18.0798 88.9907 17.792C89.2065 17.5042 89.3228 17.2248 89.3394 16.9536L89.9951 17.6924C89.9564 17.9248 89.8512 18.1821 89.6797 18.4644C89.5081 18.7466 89.2785 19.0177 88.9907 19.2778C88.7085 19.5324 88.3709 19.7454 87.978 19.917C87.5907 20.083 87.1535 20.166 86.6665 20.166C86.0578 20.166 85.5238 20.047 85.0645 19.8091C84.6107 19.5711 84.2565 19.2529 84.002 18.8545C83.7529 18.4505 83.6284 17.9995 83.6284 17.5015C83.6284 17.02 83.7225 16.5967 83.9106 16.2314C84.0988 15.8607 84.37 15.5535 84.7241 15.3101C85.0783 15.061 85.5044 14.8729 86.0024 14.7456C86.5005 14.6183 87.0566 14.5547 87.6709 14.5547H89.4556ZM94.6768 12.4297V20H93.1411V11.0186H94.6353L94.6768 12.4297ZM97.4824 10.9688L97.4741 12.3965C97.3468 12.3688 97.2251 12.3522 97.1089 12.3467C96.9982 12.3356 96.8709 12.3301 96.7271 12.3301C96.3729 12.3301 96.0602 12.3854 95.7891 12.4961C95.5179 12.6068 95.2882 12.7617 95.1001 12.9609C94.9119 13.1602 94.7625 13.3981 94.6519 13.6748C94.5467 13.946 94.4775 14.2448 94.4443 14.5713L94.0127 14.8203C94.0127 14.278 94.0653 13.7689 94.1704 13.293C94.2811 12.8171 94.4499 12.3965 94.6768 12.0312C94.9036 11.6605 95.1914 11.3727 95.54 11.168C95.8942 10.9577 96.3148 10.8525 96.8018 10.8525C96.9124 10.8525 97.0397 10.8664 97.1836 10.894C97.3275 10.9162 97.4271 10.9411 97.4824 10.9688ZM100.438 12.936V20H98.9019V11.0186H100.354L100.438 12.936ZM100.072 15.1689L99.4331 15.144C99.4386 14.5298 99.5299 13.9626 99.707 13.4424C99.8841 12.9167 100.133 12.4601 100.454 12.0728C100.775 11.6854 101.157 11.3866 101.6 11.1763C102.048 10.9604 102.543 10.8525 103.085 10.8525C103.528 10.8525 103.927 10.9134 104.281 11.0352C104.635 11.1514 104.937 11.3395 105.186 11.5996C105.44 11.8597 105.634 12.1973 105.767 12.6123C105.899 13.0218 105.966 13.5226 105.966 14.1147V20H104.422V14.0981C104.422 13.6278 104.353 13.2515 104.214 12.9692C104.076 12.6815 103.874 12.474 103.608 12.3467C103.343 12.2139 103.016 12.1475 102.629 12.1475C102.247 12.1475 101.898 12.2277 101.583 12.3882C101.273 12.5487 101.005 12.77 100.778 13.0522C100.556 13.3345 100.382 13.6582 100.255 14.0234C100.133 14.3831 100.072 14.765 100.072 15.1689Z" fill="#FFA235"/>
<rect x="0.5" y="0.5" width="115" height="27" rx="4.5" stroke="#FFA235"/>
</svg>
