<svg width="80" height="28" viewBox="0 0 80 28" fill="none" xmlns="http://www.w3.org/2000/svg">
<rect x="0.5" y="0.5" width="79" height="27" rx="4.5" fill="#C698DC" fill-opacity="0.1"/>
<path d="M13.8604 15.2603H10.6313V13.957H13.8604C14.4857 13.957 14.992 13.8574 15.3794 13.6582C15.7668 13.459 16.049 13.1823 16.2261 12.8281C16.4087 12.474 16.5 12.07 16.5 11.6162C16.5 11.2012 16.4087 10.811 16.2261 10.4458C16.049 10.0806 15.7668 9.78727 15.3794 9.56592C14.992 9.33903 14.4857 9.22559 13.8604 9.22559H11.0049V20H9.40283V7.91406H13.8604C14.7734 7.91406 15.5454 8.07178 16.1763 8.38721C16.8071 8.70264 17.2858 9.13981 17.6123 9.69873C17.9388 10.2521 18.1021 10.8857 18.1021 11.5996C18.1021 12.3743 17.9388 13.0356 17.6123 13.5835C17.2858 14.1313 16.8071 14.5492 16.1763 14.8369C15.5454 15.1191 14.7734 15.2603 13.8604 15.2603ZM21.4307 12.4297V20H19.895V11.0186H21.3892L21.4307 12.4297ZM24.2363 10.9688L24.228 12.3965C24.1007 12.3688 23.979 12.3522 23.8628 12.3467C23.7521 12.3356 23.6248 12.3301 23.481 12.3301C23.1268 12.3301 22.8141 12.3854 22.543 12.4961C22.2718 12.6068 22.0422 12.7617 21.854 12.9609C21.6659 13.1602 21.5164 13.3981 21.4058 13.6748C21.3006 13.946 21.2314 14.2448 21.1982 14.5713L20.7666 14.8203C20.7666 14.278 20.8192 13.7689 20.9243 13.293C21.035 12.8171 21.2038 12.3965 21.4307 12.0312C21.6576 11.6605 21.9453 11.3727 22.2939 11.168C22.6481 10.9577 23.0687 10.8525 23.5557 10.8525C23.6663 10.8525 23.7936 10.8664 23.9375 10.894C24.0814 10.9162 24.181 10.9411 24.2363 10.9688ZM25.083 15.6089V15.418C25.083 14.7705 25.1771 14.1701 25.3652 13.6167C25.5534 13.0578 25.8245 12.5736 26.1787 12.1641C26.5329 11.749 26.9618 11.4281 27.4653 11.2012C27.9689 10.9688 28.5334 10.8525 29.1587 10.8525C29.7896 10.8525 30.3568 10.9688 30.8604 11.2012C31.3695 11.4281 31.8011 11.749 32.1553 12.1641C32.515 12.5736 32.7889 13.0578 32.9771 13.6167C33.1652 14.1701 33.2593 14.7705 33.2593 15.418V15.6089C33.2593 16.2563 33.1652 16.8568 32.9771 17.4102C32.7889 17.9635 32.515 18.4478 32.1553 18.8628C31.8011 19.2723 31.3722 19.5933 30.8687 19.8257C30.3706 20.0526 29.8062 20.166 29.1753 20.166C28.5444 20.166 27.9772 20.0526 27.4736 19.8257C26.9701 19.5933 26.5384 19.2723 26.1787 18.8628C25.8245 18.4478 25.5534 17.9635 25.3652 17.4102C25.1771 16.8568 25.083 16.2563 25.083 15.6089ZM26.6187 15.418V15.6089C26.6187 16.0571 26.6712 16.4805 26.7764 16.8789C26.8815 17.2718 27.0392 17.6204 27.2495 17.9248C27.4653 18.2292 27.7337 18.4699 28.0547 18.647C28.3757 18.8185 28.7492 18.9043 29.1753 18.9043C29.5959 18.9043 29.9639 18.8185 30.2793 18.647C30.6003 18.4699 30.8659 18.2292 31.0762 17.9248C31.2865 17.6204 31.4442 17.2718 31.5493 16.8789C31.66 16.4805 31.7153 16.0571 31.7153 15.6089V15.418C31.7153 14.9753 31.66 14.5575 31.5493 14.1646C31.4442 13.7661 31.2837 13.4147 31.0679 13.1104C30.8576 12.8005 30.592 12.557 30.271 12.3799C29.9556 12.2028 29.5848 12.1143 29.1587 12.1143C28.7381 12.1143 28.3674 12.2028 28.0464 12.3799C27.731 12.557 27.4653 12.8005 27.2495 13.1104C27.0392 13.4147 26.8815 13.7661 26.7764 14.1646C26.6712 14.5575 26.6187 14.9753 26.6187 15.418ZM38.9453 11.0186V12.1973H34.0894V11.0186H38.9453ZM35.7329 8.83545H37.2686V17.7754C37.2686 18.0798 37.3156 18.3094 37.4097 18.4644C37.5037 18.6193 37.6255 18.7217 37.7749 18.7715C37.9243 18.8213 38.0848 18.8462 38.2563 18.8462C38.3836 18.8462 38.5164 18.8351 38.6548 18.813C38.7987 18.7853 38.9066 18.7632 38.9785 18.7466L38.9868 20C38.8651 20.0387 38.7046 20.0747 38.5054 20.1079C38.3117 20.1466 38.0765 20.166 37.7998 20.166C37.4235 20.166 37.0776 20.0913 36.7622 19.9419C36.4468 19.7925 36.195 19.5435 36.0068 19.1948C35.8242 18.8407 35.7329 18.3647 35.7329 17.7671V8.83545ZM40.1738 15.6089V15.418C40.1738 14.7705 40.2679 14.1701 40.4561 13.6167C40.6442 13.0578 40.9154 12.5736 41.2695 12.1641C41.6237 11.749 42.0526 11.4281 42.5562 11.2012C43.0597 10.9688 43.6242 10.8525 44.2495 10.8525C44.8804 10.8525 45.4476 10.9688 45.9512 11.2012C46.4603 11.4281 46.8919 11.749 47.2461 12.1641C47.6058 12.5736 47.8797 13.0578 48.0679 13.6167C48.256 14.1701 48.3501 14.7705 48.3501 15.418V15.6089C48.3501 16.2563 48.256 16.8568 48.0679 17.4102C47.8797 17.9635 47.6058 18.4478 47.2461 18.8628C46.8919 19.2723 46.4631 19.5933 45.9595 19.8257C45.4614 20.0526 44.897 20.166 44.2661 20.166C43.6353 20.166 43.068 20.0526 42.5645 19.8257C42.0609 19.5933 41.6292 19.2723 41.2695 18.8628C40.9154 18.4478 40.6442 17.9635 40.4561 17.4102C40.2679 16.8568 40.1738 16.2563 40.1738 15.6089ZM41.7095 15.418V15.6089C41.7095 16.0571 41.762 16.4805 41.8672 16.8789C41.9723 17.2718 42.13 17.6204 42.3403 17.9248C42.5562 18.2292 42.8245 18.4699 43.1455 18.647C43.4665 18.8185 43.84 18.9043 44.2661 18.9043C44.6867 18.9043 45.0547 18.8185 45.3701 18.647C45.6911 18.4699 45.9567 18.2292 46.167 17.9248C46.3773 17.6204 46.535 17.2718 46.6401 16.8789C46.7508 16.4805 46.8062 16.0571 46.8062 15.6089V15.418C46.8062 14.9753 46.7508 14.5575 46.6401 14.1646C46.535 13.7661 46.3745 13.4147 46.1587 13.1104C45.9484 12.8005 45.6828 12.557 45.3618 12.3799C45.0464 12.2028 44.6756 12.1143 44.2495 12.1143C43.8289 12.1143 43.4582 12.2028 43.1372 12.3799C42.8218 12.557 42.5562 12.8005 42.3403 13.1104C42.13 13.4147 41.9723 13.7661 41.8672 14.1646C41.762 14.5575 41.7095 14.9753 41.7095 15.418ZM53.8701 18.9043C54.2354 18.9043 54.5729 18.8296 54.8828 18.6802C55.1927 18.5308 55.4473 18.326 55.6465 18.0659C55.8457 17.8003 55.9591 17.4987 55.9868 17.1611H57.4478C57.4201 17.6924 57.2402 18.1877 56.9082 18.647C56.5817 19.1007 56.1528 19.4688 55.6216 19.751C55.0903 20.0277 54.5065 20.166 53.8701 20.166C53.195 20.166 52.6056 20.047 52.1021 19.8091C51.604 19.5711 51.189 19.2446 50.8569 18.8296C50.5304 18.4146 50.2842 17.9386 50.1182 17.4019C49.9577 16.8595 49.8774 16.2868 49.8774 15.6836V15.335C49.8774 14.7318 49.9577 14.1618 50.1182 13.625C50.2842 13.0827 50.5304 12.604 50.8569 12.189C51.189 11.7739 51.604 11.4474 52.1021 11.2095C52.6056 10.9715 53.195 10.8525 53.8701 10.8525C54.5729 10.8525 55.1872 10.9964 55.7129 11.2842C56.2386 11.5664 56.6509 11.9538 56.9497 12.4463C57.2541 12.9333 57.4201 13.4867 57.4478 14.1064H55.9868C55.9591 13.7357 55.854 13.4009 55.6714 13.1021C55.4943 12.8032 55.2508 12.5653 54.9409 12.3882C54.6366 12.2056 54.2796 12.1143 53.8701 12.1143C53.3997 12.1143 53.0041 12.2083 52.6831 12.3965C52.3677 12.5791 52.1159 12.8281 51.9277 13.1436C51.7451 13.4535 51.6123 13.7993 51.5293 14.1812C51.4518 14.5575 51.4131 14.9421 51.4131 15.335V15.6836C51.4131 16.0765 51.4518 16.4639 51.5293 16.8457C51.6068 17.2275 51.7368 17.5734 51.9194 17.8833C52.1076 18.1932 52.3594 18.4422 52.6748 18.6304C52.9958 18.813 53.3942 18.9043 53.8701 18.9043ZM58.7676 15.6089V15.418C58.7676 14.7705 58.8617 14.1701 59.0498 13.6167C59.238 13.0578 59.5091 12.5736 59.8633 12.1641C60.2174 11.749 60.6463 11.4281 61.1499 11.2012C61.6535 10.9688 62.2179 10.8525 62.8433 10.8525C63.4741 10.8525 64.0413 10.9688 64.5449 11.2012C65.054 11.4281 65.4857 11.749 65.8398 12.1641C66.1995 12.5736 66.4735 13.0578 66.6616 13.6167C66.8498 14.1701 66.9438 14.7705 66.9438 15.418V15.6089C66.9438 16.2563 66.8498 16.8568 66.6616 17.4102C66.4735 17.9635 66.1995 18.4478 65.8398 18.8628C65.4857 19.2723 65.0568 19.5933 64.5532 19.8257C64.0552 20.0526 63.4907 20.166 62.8599 20.166C62.229 20.166 61.6618 20.0526 61.1582 19.8257C60.6546 19.5933 60.223 19.2723 59.8633 18.8628C59.5091 18.4478 59.238 17.9635 59.0498 17.4102C58.8617 16.8568 58.7676 16.2563 58.7676 15.6089ZM60.3032 15.418V15.6089C60.3032 16.0571 60.3558 16.4805 60.4609 16.8789C60.5661 17.2718 60.7238 17.6204 60.9341 17.9248C61.1499 18.2292 61.4183 18.4699 61.7393 18.647C62.0602 18.8185 62.4338 18.9043 62.8599 18.9043C63.2804 18.9043 63.6484 18.8185 63.9639 18.647C64.2848 18.4699 64.5505 18.2292 64.7607 17.9248C64.971 17.6204 65.1287 17.2718 65.2339 16.8789C65.3446 16.4805 65.3999 16.0571 65.3999 15.6089V15.418C65.3999 14.9753 65.3446 14.5575 65.2339 14.1646C65.1287 13.7661 64.9683 13.4147 64.7524 13.1104C64.5422 12.8005 64.2765 12.557 63.9556 12.3799C63.6401 12.2028 63.2694 12.1143 62.8433 12.1143C62.4227 12.1143 62.0519 12.2028 61.731 12.3799C61.4155 12.557 61.1499 12.8005 60.9341 13.1104C60.7238 13.4147 60.5661 13.7661 60.4609 14.1646C60.3558 14.5575 60.3032 14.9753 60.3032 15.418ZM70.5381 7.25V20H68.9941V7.25H70.5381Z" fill="#C698DC"/>
<rect x="0.5" y="0.5" width="79" height="27" rx="4.5" stroke="#C698DC"/>
</svg>
