<svg width="49" height="28" viewBox="0 0 49 28" fill="none" xmlns="http://www.w3.org/2000/svg">
<rect x="0.5" y="0.5" width="48" height="27" rx="4.5" fill="#3562FF" fill-opacity="0.1"/>
<path d="M9.40283 7.91406H13.4038C14.3114 7.91406 15.0778 8.05241 15.7031 8.3291C16.334 8.60579 16.8127 9.0153 17.1392 9.55762C17.4712 10.0944 17.6372 10.7557 17.6372 11.5415C17.6372 12.0949 17.5238 12.6012 17.2969 13.0605C17.0755 13.5143 16.7546 13.9017 16.334 14.2227C15.9189 14.5381 15.4209 14.7733 14.8398 14.9282L14.3916 15.1025H10.6313L10.6147 13.7993H13.4536C14.0291 13.7993 14.5078 13.6997 14.8896 13.5005C15.2715 13.2957 15.5592 13.0218 15.7529 12.6787C15.9466 12.3356 16.0435 11.9565 16.0435 11.5415C16.0435 11.0767 15.9521 10.6699 15.7695 10.3213C15.5869 9.97266 15.2992 9.70426 14.9062 9.51611C14.5189 9.32243 14.0181 9.22559 13.4038 9.22559H11.0049V20H9.40283V7.91406ZM16.4668 20L13.5283 14.5215L15.1968 14.5132L18.1768 19.9004V20H16.4668ZM24.3359 15.2603H21.1069V13.957H24.3359C24.9613 13.957 25.4676 13.8574 25.855 13.6582C26.2424 13.459 26.5246 13.1823 26.7017 12.8281C26.8843 12.474 26.9756 12.07 26.9756 11.6162C26.9756 11.2012 26.8843 10.811 26.7017 10.4458C26.5246 10.0806 26.2424 9.78727 25.855 9.56592C25.4676 9.33903 24.9613 9.22559 24.3359 9.22559H21.4805V20H19.8784V7.91406H24.3359C25.249 7.91406 26.021 8.07178 26.6519 8.38721C27.2827 8.70264 27.7614 9.13981 28.0879 9.69873C28.4144 10.2521 28.5776 10.8857 28.5776 11.5996C28.5776 12.3743 28.4144 13.0356 28.0879 13.5835C27.7614 14.1313 27.2827 14.5492 26.6519 14.8369C26.021 15.1191 25.249 15.2603 24.3359 15.2603ZM39.5347 13.9819V18.4062C39.3853 18.6276 39.1473 18.8766 38.8208 19.1533C38.4943 19.4245 38.0433 19.6624 37.4678 19.8672C36.8978 20.0664 36.1618 20.166 35.2598 20.166C34.5238 20.166 33.8459 20.0387 33.2261 19.7842C32.6118 19.5241 32.0778 19.1478 31.624 18.6553C31.1758 18.1572 30.8271 17.554 30.5781 16.8457C30.3346 16.1318 30.2129 15.3239 30.2129 14.4219V13.4839C30.2129 12.5819 30.318 11.7767 30.5283 11.0684C30.7441 10.36 31.0596 9.7596 31.4746 9.26709C31.8896 8.76904 32.3988 8.39274 33.002 8.13818C33.6051 7.87809 34.2969 7.74805 35.0771 7.74805C36.0013 7.74805 36.7733 7.90853 37.3931 8.22949C38.0184 8.54492 38.5054 8.9821 38.854 9.54102C39.2082 10.0999 39.4351 10.7363 39.5347 11.4502H37.9326C37.8607 11.013 37.7168 10.6146 37.501 10.2549C37.2907 9.89518 36.9891 9.60742 36.5962 9.3916C36.2033 9.17025 35.6969 9.05957 35.0771 9.05957C34.5182 9.05957 34.034 9.16195 33.6245 9.3667C33.215 9.57145 32.8774 9.86475 32.6118 10.2466C32.3462 10.6284 32.147 11.0905 32.0142 11.6328C31.8869 12.1751 31.8232 12.7866 31.8232 13.4673V14.4219C31.8232 15.1191 31.9035 15.7417 32.064 16.2896C32.23 16.8374 32.4652 17.305 32.7695 17.6924C33.0739 18.0742 33.4364 18.3647 33.8569 18.564C34.283 18.7632 34.7534 18.8628 35.2681 18.8628C35.8381 18.8628 36.3001 18.8158 36.6543 18.7217C37.0085 18.6221 37.2852 18.5059 37.4844 18.373C37.6836 18.2347 37.8358 18.1047 37.9409 17.9829V15.2769H35.1436V13.9819H39.5347Z" fill="#3562FF"/>
<rect x="0.5" y="0.5" width="48" height="27" rx="4.5" stroke="#3562FF"/>
</svg>
